<svg width="338" height="77" viewBox="0 0 338 77" fill="none" xmlns="http://www.w3.org/2000/svg">
<path d="M99.072 26.792C97.92 25.544 96.704 24.92 95.424 24.92C95.008 24.92 94.624 25 94.272 25.16C93.92 25.32 93.6 25.64 93.312 26.12C93.056 26.568 92.848 27.208 92.688 28.04C92.528 28.84 92.448 29.88 92.448 31.16V36.728C92.448 38.04 92.528 39.096 92.688 39.896C92.848 40.696 93.056 41.336 93.312 41.816C93.6 42.264 93.92 42.568 94.272 42.728C94.624 42.888 95.008 42.968 95.424 42.968C96.704 42.968 97.92 42.344 99.072 41.096V26.792ZM99.552 47V43.832H99.456C99.2 44.248 98.848 44.68 98.4 45.128C97.952 45.544 97.44 45.928 96.864 46.28C96.288 46.632 95.664 46.92 94.992 47.144C94.352 47.368 93.696 47.48 93.024 47.48C90.656 47.48 88.96 46.6 87.936 44.84C86.912 43.08 86.4 40.504 86.4 37.112V30.776C86.4 27.384 86.912 24.808 87.936 23.048C88.96 21.288 90.656 20.408 93.024 20.408C93.856 20.408 94.704 20.632 95.568 21.08C96.464 21.496 97.632 22.232 99.072 23.288V12.344L105.12 12.344V47H99.552ZM116.448 39.128C116.448 40.152 116.768 40.92 117.408 41.432C118.08 41.944 118.944 42.2 120 42.2C121.056 42.2 121.904 41.944 122.544 41.432C123.216 40.92 123.552 40.152 123.552 39.128V28.76C123.552 27.736 123.216 26.968 122.544 26.456C121.904 25.944 121.056 25.688 120 25.688C118.944 25.688 118.08 25.944 117.408 26.456C116.768 26.968 116.448 27.736 116.448 28.76V39.128ZM110.4 30.296C110.4 26.84 111.232 24.328 112.896 22.76C114.592 21.192 116.96 20.408 120 20.408C123.008 20.408 125.36 21.192 127.056 22.76C128.752 24.328 129.6 26.84 129.6 30.296V37.592C129.6 41.048 128.752 43.56 127.056 45.128C125.36 46.696 123.008 47.48 120 47.48C116.96 47.48 114.592 46.696 112.896 45.128C111.232 43.56 110.4 41.048 110.4 37.592V30.296ZM147.552 29.912V28.76C147.552 27.736 147.216 26.968 146.544 26.456C145.904 25.944 145.056 25.688 144 25.688C142.944 25.688 142.08 25.944 141.408 26.456C140.768 26.968 140.448 27.736 140.448 28.76V39.128C140.448 40.152 140.768 40.92 141.408 41.432C142.08 41.944 142.944 42.2 144 42.2C145.056 42.2 145.904 41.944 146.544 41.432C147.216 40.92 147.552 40.152 147.552 39.128V37.496L153.6 37.496V37.592C153.6 41.048 152.752 43.56 151.056 45.128C149.36 46.696 147.008 47.48 144 47.48C140.96 47.48 138.592 46.696 136.896 45.128C135.232 43.56 134.4 41.048 134.4 37.592V30.296C134.4 26.84 135.232 24.328 136.896 22.76C138.592 21.192 140.96 20.408 144 20.408C146.976 20.408 149.296 21.16 150.96 22.664C152.624 24.168 153.488 26.584 153.552 29.912H147.552ZM177.12 20.888V47H171.264V44.024C170.144 44.984 169.04 45.8 167.952 46.472C166.896 47.144 165.744 47.48 164.496 47.48C162.64 47.48 161.232 46.968 160.272 45.944C159.344 44.92 158.88 43.192 158.88 40.76V20.888L164.928 20.888V40.088C164.928 40.952 165.088 41.656 165.408 42.2C165.728 42.712 166.304 42.968 167.136 42.968C167.776 42.968 168.432 42.728 169.104 42.248C169.776 41.736 170.432 41.192 171.072 40.616V20.888H177.12ZM182.88 20.888L188.736 20.888V23.864C189.728 22.968 190.736 22.168 191.76 21.464C192.784 20.76 193.936 20.408 195.216 20.408C196.336 20.408 197.296 20.76 198.096 21.464C198.896 22.168 199.472 23.128 199.824 24.344C200.752 23.32 201.728 22.408 202.752 21.608C203.776 20.808 204.944 20.408 206.256 20.408C208.08 20.408 209.456 20.968 210.384 22.088C211.312 23.208 211.776 24.952 211.776 27.32V47H205.728V27.128C205.728 26.264 205.584 25.688 205.296 25.4C205.008 25.08 204.624 24.92 204.144 24.92C203.856 24.92 203.536 25 203.184 25.16C202.832 25.288 202.464 25.48 202.08 25.736C201.728 25.96 201.392 26.216 201.072 26.504C200.784 26.76 200.544 27.016 200.352 27.272V47L194.304 47V27.128C194.304 26.264 194.144 25.688 193.824 25.4C193.536 25.08 193.152 24.92 192.672 24.92C192.352 24.92 192 25 191.616 25.16C191.264 25.288 190.912 25.48 190.56 25.736C190.24 25.96 189.936 26.216 189.648 26.504C189.36 26.76 189.12 27.016 188.928 27.272V47H182.88V20.888ZM230.193 30.488V29.048C230.193 27.896 229.905 26.984 229.329 26.312C228.753 25.64 227.857 25.304 226.641 25.304C225.425 25.304 224.529 25.64 223.953 26.312C223.377 26.984 223.089 27.896 223.089 29.048V30.488L230.193 30.488ZM223.089 35.384V38.84C223.089 40.152 223.425 41.112 224.097 41.72C224.769 42.296 225.617 42.584 226.641 42.584C227.921 42.584 228.833 42.232 229.377 41.528C229.921 40.824 230.193 39.96 230.193 38.936H236.241C236.081 41.656 235.201 43.768 233.601 45.272C232.033 46.744 229.713 47.48 226.641 47.48C225.201 47.48 223.889 47.272 222.705 46.856C221.521 46.408 220.513 45.784 219.681 44.984C218.849 44.184 218.193 43.224 217.713 42.104C217.265 40.952 217.041 39.656 217.041 38.216V29.672C217.041 28.232 217.265 26.952 217.713 25.832C218.193 24.68 218.849 23.704 219.681 22.904C220.513 22.104 221.521 21.496 222.705 21.08C223.889 20.632 225.201 20.408 226.641 20.408C228.049 20.408 229.329 20.632 230.481 21.08C231.665 21.496 232.673 22.088 233.505 22.856C234.369 23.624 235.041 24.552 235.521 25.64C236.001 26.728 236.241 27.944 236.241 29.288V35.384H223.089ZM241.521 47V20.888H247.377V23.864C248.497 22.904 249.585 22.088 250.641 21.416C251.729 20.744 252.897 20.408 254.145 20.408C256.001 20.408 257.393 20.92 258.321 21.944C259.281 22.968 259.761 24.696 259.761 27.128V47H253.713V27.8C253.713 26.936 253.553 26.248 253.233 25.736C252.913 25.192 252.337 24.92 251.505 24.92C250.865 24.92 250.209 25.176 249.537 25.688C248.865 26.168 248.209 26.696 247.569 27.272V47H241.521ZM262.929 26.936V22.04H265.329V14.936L271.377 14.936V22.04L275.265 22.04V26.936L271.377 26.936V40.28C271.377 40.92 271.617 41.4 272.097 41.72C272.609 42.04 273.281 42.2 274.113 42.2C274.337 42.2 274.545 42.2 274.737 42.2C274.929 42.2 275.121 42.184 275.313 42.152V47.24C274.737 47.336 274.161 47.4 273.585 47.432C273.009 47.464 272.433 47.48 271.857 47.48C269.873 47.48 268.289 47.096 267.105 46.328C265.921 45.528 265.329 44.184 265.329 42.296V26.936H262.929ZM279.648 16.376V10.904H285.696V16.376H279.648ZM285.696 20.888V47L279.648 47V20.888H285.696ZM292.239 47V20.888L298.095 20.888V23.864C299.215 22.904 300.303 22.088 301.359 21.416C302.447 20.744 303.615 20.408 304.863 20.408C306.719 20.408 308.111 20.92 309.039 21.944C309.999 22.968 310.479 24.696 310.479 27.128V47H304.431V27.8C304.431 26.936 304.271 26.248 303.951 25.736C303.631 25.192 303.055 24.92 302.223 24.92C301.583 24.92 300.927 25.176 300.255 25.688C299.583 26.168 298.927 26.696 298.287 27.272V47H292.239ZM321.423 48.152C321.103 48.472 320.815 48.776 320.559 49.064C320.303 49.384 320.175 49.784 320.175 50.264C320.175 50.936 320.639 51.416 321.567 51.704C322.527 52.024 323.903 52.184 325.695 52.184C327.135 52.184 328.255 52.008 329.055 51.656C329.855 51.304 330.255 50.792 330.255 50.12C330.255 49.672 330.111 49.336 329.823 49.112C329.567 48.92 328.975 48.792 328.047 48.728L321.423 48.152ZM327.375 30.344C327.375 26.984 326.319 25.304 324.207 25.304C323.055 25.304 322.239 25.736 321.759 26.6C321.279 27.464 321.039 28.92 321.039 30.968C321.039 32.6 321.279 33.832 321.759 34.664C322.271 35.464 322.991 35.864 323.919 35.864C324.559 35.864 325.103 35.8 325.551 35.672C325.999 35.512 326.351 35.224 326.607 34.808C326.895 34.392 327.087 33.832 327.183 33.128C327.311 32.424 327.375 31.496 327.375 30.344ZM336.303 25.688C336.047 25.624 335.727 25.544 335.343 25.448C334.991 25.352 334.687 25.304 334.431 25.304C334.111 25.304 333.791 25.368 333.471 25.496C333.151 25.624 332.783 25.752 332.367 25.88C332.559 26.744 332.735 27.528 332.895 28.232C333.055 28.936 333.135 29.688 333.135 30.488C333.135 33.784 332.431 36.328 331.023 38.12C329.615 39.88 327.407 40.76 324.399 40.76C323.951 40.76 323.535 40.744 323.151 40.712C322.767 40.68 322.351 40.584 321.903 40.424C321.743 40.68 321.519 40.92 321.231 41.144C320.975 41.368 320.847 41.64 320.847 41.96C320.847 42.504 321.215 42.856 321.951 43.016C322.719 43.176 323.663 43.272 324.783 43.304C325.903 43.336 327.119 43.4 328.431 43.496C329.743 43.56 330.959 43.784 332.079 44.168C333.199 44.552 334.127 45.176 334.863 46.04C335.631 46.872 336.015 48.072 336.015 49.64C336.015 50.76 335.727 51.72 335.151 52.52C334.607 53.352 333.823 54.04 332.799 54.584C331.807 55.128 330.591 55.528 329.151 55.784C327.743 56.072 326.159 56.216 324.399 56.216C321.167 56.216 318.687 55.784 316.959 54.92C315.263 54.088 314.415 52.936 314.415 51.464C314.415 50.984 314.527 50.536 314.751 50.12C315.007 49.736 315.311 49.368 315.663 49.016C316.047 48.696 316.447 48.392 316.863 48.104C317.311 47.848 317.711 47.608 318.063 47.384C317.327 46.936 316.719 46.424 316.239 45.848C315.791 45.24 315.567 44.52 315.567 43.688C315.567 43.176 315.679 42.712 315.903 42.296C316.159 41.848 316.463 41.448 316.815 41.096C317.199 40.712 317.599 40.376 318.015 40.088C318.431 39.8 318.831 39.544 319.215 39.32C317.743 38.36 316.719 37.16 316.143 35.72C315.567 34.28 315.279 32.456 315.279 30.248C315.279 28.84 315.423 27.544 315.711 26.36C315.999 25.144 316.495 24.104 317.199 23.24C317.903 22.344 318.815 21.656 319.935 21.176C321.087 20.664 322.511 20.408 324.207 20.408C325.455 20.408 326.703 20.68 327.951 21.224C329.231 21.768 330.255 22.504 331.023 23.432C331.791 22.472 332.575 21.736 333.375 21.224C334.207 20.68 335.183 20.408 336.303 20.408V25.688Z" fill="white"/>
<path d="M92.2 66.38C88.92 66.9533 87.28 67.9467 87.28 69.36C87.28 69.6 87.3333 69.82 87.44 70.02C87.5467 70.22 87.68 70.3933 87.84 70.54C88 70.6733 88.18 70.78 88.38 70.86C88.5933 70.9267 88.8 70.96 89 70.96C89.2533 70.96 89.5267 70.92 89.82 70.84C90.1133 70.7467 90.4 70.62 90.68 70.46C90.96 70.3 91.2267 70.12 91.48 69.92C91.7467 69.7067 91.9867 69.48 92.2 69.24V66.38ZM86.14 63.6C86.4733 63 86.96 62.4867 87.6 62.06C88.24 61.62 89.0533 61.4 90.04 61.4C90.48 61.4 90.9133 61.46 91.34 61.58C91.7667 61.6867 92.1467 61.8667 92.48 62.12C92.8267 62.36 93.1067 62.68 93.32 63.08C93.5333 63.4667 93.64 63.9467 93.64 64.52V69.76C93.64 70.3333 93.66 70.7867 93.7 71.12C93.7533 71.44 93.8133 71.7333 93.88 72H92.4L92.24 70.56C91.88 70.96 91.4133 71.3333 90.84 71.68C90.2667 72.0267 89.5867 72.2 88.8 72.2C88.4 72.2 88.02 72.14 87.66 72.02C87.3 71.9 86.9867 71.72 86.72 71.48C86.4533 71.24 86.24 70.9467 86.08 70.6C85.92 70.24 85.84 69.82 85.84 69.34C85.84 68.7667 85.9533 68.2667 86.18 67.84C86.4067 67.4 86.7733 67.0133 87.28 66.68C87.7867 66.3333 88.44 66.0333 89.24 65.78C90.0533 65.5267 91.04 65.3 92.2 65.1V64.54C92.2 63.8467 92 63.36 91.6 63.08C91.2 62.7867 90.6867 62.64 90.06 62.64C89.66 62.64 89.3067 62.6933 89 62.8C88.7067 62.8933 88.4533 63.02 88.24 63.18C88.0267 63.34 87.8467 63.52 87.7 63.72C87.5667 63.9067 87.4667 64.0867 87.4 64.26L86.14 63.6ZM96.62 69.36C96.9667 69.8533 97.3867 70.2467 97.88 70.54C98.3733 70.82 98.9467 70.96 99.6 70.96C100.373 70.96 100.94 70.7867 101.3 70.44C101.66 70.08 101.84 69.68 101.84 69.24C101.84 68.8 101.687 68.46 101.38 68.22C101.073 67.9667 100.693 67.76 100.24 67.6C99.7867 67.44 99.2933 67.2933 98.76 67.16C98.24 67.0133 97.7533 66.8267 97.3 66.6C96.86 66.3733 96.4933 66.08 96.2 65.72C95.9067 65.3467 95.7733 64.84 95.8 64.2C95.8267 63.2933 96.1533 62.6 96.78 62.12C97.42 61.6267 98.24 61.3867 99.24 61.4C99.5733 61.4 99.9133 61.4467 100.26 61.54C100.62 61.6333 100.953 61.76 101.26 61.92C101.58 62.08 101.873 62.2733 102.14 62.5C102.407 62.7133 102.627 62.9533 102.8 63.22L101.8 64.1C101.4 63.6067 100.993 63.24 100.58 63C100.167 62.76 99.68 62.64 99.12 62.64C98.5067 62.64 98.04 62.78 97.72 63.06C97.4 63.34 97.24 63.7133 97.24 64.18C97.24 64.5533 97.3867 64.8467 97.68 65.06C97.9867 65.2733 98.36 65.46 98.8 65.62C99.2533 65.7667 99.74 65.9133 100.26 66.06C100.78 66.2067 101.26 66.4067 101.7 66.66C102.153 66.9 102.527 67.22 102.82 67.62C103.127 68.0067 103.28 68.52 103.28 69.16C103.28 69.6667 103.18 70.1133 102.98 70.5C102.78 70.8733 102.507 71.1867 102.16 71.44C101.827 71.6933 101.44 71.88 101 72C100.56 72.1333 100.107 72.2 99.64 72.2C98.8267 72.2 98.0467 72.0333 97.3 71.7C96.5667 71.3533 95.96 70.86 95.48 70.22L96.62 69.36ZM113.48 57.36V59.08H112.04V57.36H113.48ZM112.04 61.6L113.48 61.6V72H112.04V61.6ZM117.607 61.6V58.18H119.047V61.6H121.447V62.84H119.047V70.24C119.047 70.48 119.134 70.66 119.307 70.78C119.494 70.9 119.8 70.96 120.227 70.96C120.467 70.96 120.694 70.9533 120.907 70.94C121.12 70.9133 121.32 70.8867 121.507 70.86V72.04C121.374 72.08 121.167 72.1133 120.887 72.14C120.607 72.18 120.254 72.2 119.827 72.2C119.04 72.2 118.474 72.08 118.127 71.84C117.78 71.6 117.607 71.1467 117.607 70.48V62.84H115.907V61.6H117.607ZM131.521 57.56V63H131.561C131.974 62.5333 132.441 62.1533 132.961 61.86C133.481 61.5533 134.041 61.4 134.641 61.4C135.027 61.4 135.401 61.4533 135.761 61.56C136.121 61.6667 136.441 61.84 136.721 62.08C137.001 62.32 137.221 62.6333 137.381 63.02C137.554 63.4067 137.641 63.88 137.641 64.44V72H136.201V64.48C136.201 63.7867 136.047 63.3067 135.741 63.04C135.434 62.7733 135.021 62.64 134.501 62.64C134.234 62.64 133.954 62.6933 133.661 62.8C133.381 62.8933 133.107 63.02 132.841 63.18C132.587 63.3267 132.341 63.4933 132.101 63.68C131.874 63.8667 131.681 64.0467 131.521 64.22V72H130.081V57.56H131.521ZM146.614 66.38C143.334 66.9533 141.694 67.9467 141.694 69.36C141.694 69.6 141.747 69.82 141.854 70.02C141.961 70.22 142.094 70.3933 142.254 70.54C142.414 70.6733 142.594 70.78 142.794 70.86C143.007 70.9267 143.214 70.96 143.414 70.96C143.667 70.96 143.941 70.92 144.234 70.84C144.527 70.7467 144.814 70.62 145.094 70.46C145.374 70.3 145.641 70.12 145.894 69.92C146.161 69.7067 146.401 69.48 146.614 69.24V66.38ZM140.554 63.6C140.887 63 141.374 62.4867 142.014 62.06C142.654 61.62 143.467 61.4 144.454 61.4C144.894 61.4 145.327 61.46 145.754 61.58C146.181 61.6867 146.561 61.8667 146.894 62.12C147.241 62.36 147.521 62.68 147.734 63.08C147.947 63.4667 148.054 63.9467 148.054 64.52V69.76C148.054 70.3333 148.074 70.7867 148.114 71.12C148.167 71.44 148.227 71.7333 148.294 72H146.814L146.654 70.56C146.294 70.96 145.827 71.3333 145.254 71.68C144.681 72.0267 144.001 72.2 143.214 72.2C142.814 72.2 142.434 72.14 142.074 72.02C141.714 71.9 141.401 71.72 141.134 71.48C140.867 71.24 140.654 70.9467 140.494 70.6C140.334 70.24 140.254 69.82 140.254 69.34C140.254 68.7667 140.367 68.2667 140.594 67.84C140.821 67.4 141.187 67.0133 141.694 66.68C142.201 66.3333 142.854 66.0333 143.654 65.78C144.467 65.5267 145.454 65.3 146.614 65.1V64.54C146.614 63.8467 146.414 63.36 146.014 63.08C145.614 62.7867 145.101 62.64 144.474 62.64C144.074 62.64 143.721 62.6933 143.414 62.8C143.121 62.8933 142.867 63.02 142.654 63.18C142.441 63.34 142.261 63.52 142.114 63.72C141.981 63.9067 141.881 64.0867 141.814 64.26L140.554 63.6ZM152.614 69.52C153.001 69.9467 153.427 70.2933 153.894 70.56C154.361 70.8267 154.807 70.96 155.234 70.96C155.647 70.96 156.034 70.8867 156.394 70.74C156.754 70.5933 157.067 70.3533 157.334 70.02C157.601 69.6867 157.807 69.2533 157.954 68.72C158.101 68.1733 158.174 67.5067 158.174 66.72C158.174 65.3867 157.907 64.3733 157.374 63.68C156.854 62.9867 156.141 62.64 155.234 62.64C154.767 62.64 154.341 62.7467 153.954 62.96C153.567 63.1733 153.121 63.5333 152.614 64.04V69.52ZM151.174 75.84V61.6H152.614V62.82H152.654C152.787 62.62 152.954 62.44 153.154 62.28C153.367 62.1067 153.594 61.9533 153.834 61.82C154.074 61.6867 154.321 61.5867 154.574 61.52C154.841 61.44 155.101 61.4 155.354 61.4C155.807 61.4 156.287 61.4867 156.794 61.66C157.301 61.8333 157.761 62.1267 158.174 62.54C158.587 62.9533 158.927 63.5067 159.194 64.2C159.474 64.8933 159.614 65.76 159.614 66.8C159.614 67.8133 159.474 68.6667 159.194 69.36C158.927 70.04 158.587 70.5933 158.174 71.02C157.774 71.4333 157.327 71.7333 156.834 71.92C156.341 72.1067 155.874 72.2 155.434 72.2C154.941 72.2 154.461 72.0933 153.994 71.88C153.527 71.6533 153.094 71.3733 152.694 71.04L152.614 71V75.84H151.174ZM163.727 69.52C164.114 69.9467 164.541 70.2933 165.007 70.56C165.474 70.8267 165.921 70.96 166.347 70.96C166.761 70.96 167.147 70.8867 167.507 70.74C167.867 70.5933 168.181 70.3533 168.447 70.02C168.714 69.6867 168.921 69.2533 169.067 68.72C169.214 68.1733 169.287 67.5067 169.287 66.72C169.287 65.3867 169.021 64.3733 168.487 63.68C167.967 62.9867 167.254 62.64 166.347 62.64C165.881 62.64 165.454 62.7467 165.067 62.96C164.681 63.1733 164.234 63.5333 163.727 64.04V69.52ZM162.287 75.84V61.6H163.727V62.82H163.767C163.901 62.62 164.067 62.44 164.267 62.28C164.481 62.1067 164.707 61.9533 164.947 61.82C165.187 61.6867 165.434 61.5867 165.687 61.52C165.954 61.44 166.214 61.4 166.467 61.4C166.921 61.4 167.401 61.4867 167.907 61.66C168.414 61.8333 168.874 62.1267 169.287 62.54C169.701 62.9533 170.041 63.5067 170.307 64.2C170.587 64.8933 170.727 65.76 170.727 66.8C170.727 67.8133 170.587 68.6667 170.307 69.36C170.041 70.04 169.701 70.5933 169.287 71.02C168.887 71.4333 168.441 71.7333 167.947 71.92C167.454 72.1067 166.987 72.2 166.547 72.2C166.054 72.2 165.574 72.0933 165.107 71.88C164.641 71.6533 164.207 71.3733 163.807 71.04L163.727 71V75.84H162.287ZM179.201 65.84C179.201 64.88 178.981 64.1067 178.541 63.52C178.114 62.9333 177.507 62.64 176.721 62.64C175.841 62.64 175.167 62.9333 174.701 63.52C174.247 64.1067 173.987 64.88 173.921 65.84H179.201ZM180.961 69.78C180.787 70.0733 180.594 70.3667 180.381 70.66C180.167 70.94 179.901 71.2 179.581 71.44C179.274 71.6667 178.907 71.8533 178.481 72C178.054 72.1333 177.547 72.2 176.961 72.2C176.374 72.2 175.807 72.1 175.261 71.9C174.727 71.6867 174.247 71.36 173.821 70.92C173.407 70.48 173.074 69.92 172.821 69.24C172.567 68.56 172.441 67.7467 172.441 66.8C172.441 65.96 172.541 65.2067 172.741 64.54C172.941 63.8733 173.227 63.3067 173.601 62.84C173.974 62.3733 174.421 62.02 174.941 61.78C175.461 61.5267 176.041 61.4 176.681 61.4C177.214 61.4 177.721 61.4933 178.201 61.68C178.681 61.8533 179.101 62.1333 179.461 62.52C179.821 62.8933 180.107 63.38 180.321 63.98C180.534 64.58 180.641 65.2933 180.641 66.12V67.08H173.881C173.881 67.6533 173.961 68.18 174.121 68.66C174.281 69.1267 174.501 69.5333 174.781 69.88C175.061 70.2133 175.387 70.48 175.761 70.68C176.134 70.8667 176.534 70.96 176.961 70.96C177.601 70.96 178.161 70.8067 178.641 70.5C179.134 70.18 179.534 69.7467 179.841 69.2L180.961 69.78ZM184.861 61.6V63H184.901C185.314 62.5333 185.781 62.1533 186.301 61.86C186.821 61.5533 187.381 61.4 187.981 61.4C188.367 61.4 188.741 61.4533 189.101 61.56C189.461 61.6667 189.781 61.84 190.061 62.08C190.341 62.32 190.561 62.6333 190.721 63.02C190.894 63.4067 190.981 63.88 190.981 64.44V72H189.541V64.48C189.541 63.7867 189.387 63.3067 189.081 63.04C188.774 62.7733 188.361 62.64 187.841 62.64C187.574 62.64 187.294 62.6933 187.001 62.8C186.721 62.8933 186.447 63.02 186.181 63.18C185.927 63.3267 185.681 63.4933 185.441 63.68C185.214 63.8667 185.021 64.0467 184.861 64.22V72H183.421V61.6H184.861ZM194.374 69.36C194.721 69.8533 195.141 70.2467 195.634 70.54C196.127 70.82 196.701 70.96 197.354 70.96C198.127 70.96 198.694 70.7867 199.054 70.44C199.414 70.08 199.594 69.68 199.594 69.24C199.594 68.8 199.441 68.46 199.134 68.22C198.827 67.9667 198.447 67.76 197.994 67.6C197.541 67.44 197.047 67.2933 196.514 67.16C195.994 67.0133 195.507 66.8267 195.054 66.6C194.614 66.3733 194.247 66.08 193.954 65.72C193.661 65.3467 193.527 64.84 193.554 64.2C193.581 63.2933 193.907 62.6 194.534 62.12C195.174 61.6267 195.994 61.3867 196.994 61.4C197.327 61.4 197.667 61.4467 198.014 61.54C198.374 61.6333 198.707 61.76 199.014 61.92C199.334 62.08 199.627 62.2733 199.894 62.5C200.161 62.7133 200.381 62.9533 200.554 63.22L199.554 64.1C199.154 63.6067 198.747 63.24 198.334 63C197.921 62.76 197.434 62.64 196.874 62.64C196.261 62.64 195.794 62.78 195.474 63.06C195.154 63.34 194.994 63.7133 194.994 64.18C194.994 64.5533 195.141 64.8467 195.434 65.06C195.741 65.2733 196.114 65.46 196.554 65.62C197.007 65.7667 197.494 65.9133 198.014 66.06C198.534 66.2067 199.014 66.4067 199.454 66.66C199.907 66.9 200.281 67.22 200.574 67.62C200.881 68.0067 201.034 68.52 201.034 69.16C201.034 69.6667 200.934 70.1133 200.734 70.5C200.534 70.8733 200.261 71.1867 199.914 71.44C199.581 71.6933 199.194 71.88 198.754 72C198.314 72.1333 197.861 72.2 197.394 72.2C196.581 72.2 195.801 72.0333 195.054 71.7C194.321 71.3533 193.714 70.86 193.234 70.22L194.374 69.36Z" fill="#ABABAB"/>
<path d="M0.065918 36.8585C2.00775 33.6927 8.85368 23.4098 22.1568 18.9663C36.4619 14.1872 48.493 19.4132 52.1488 21.0716C62.2018 25.6307 68.0594 32.9001 70.6196 36.5314" fill="white"/>
<path d="M0 36.7956C1.96554 40.2586 8.88769 51.5018 22.2214 56.274C36.5586 61.4058 48.5466 55.5612 52.1897 53.7082C62.2053 48.6131 68.0063 40.5748 70.5375 36.562" fill="white"/>
<path d="M34.7043 52.5996C42.5715 52.5996 48.9493 46.201 48.9493 38.3081C48.9493 30.4151 42.5715 24.0166 34.7043 24.0166C26.8371 24.0166 20.4595 30.4151 20.4595 38.3081C20.4595 46.201 26.8371 52.5996 34.7043 52.5996Z" fill="#2D2D2D" stroke="#2D2D2D" stroke-width="4.89617" stroke-miterlimit="10"/>
<path d="M34.494 46.4262C39.1037 46.4262 42.8406 42.6771 42.8406 38.0524C42.8406 33.4275 39.1037 29.6785 34.494 29.6785C29.8844 29.6785 26.1475 33.4275 26.1475 38.0524C26.1475 42.6771 29.8844 46.4262 34.494 46.4262Z" fill="#2D2D2D"/>
<path d="M41.8544 46.4619C44.0838 46.4619 45.8912 44.6486 45.8912 42.4117C45.8912 40.1749 44.0838 38.3616 41.8544 38.3616C39.6248 38.3616 37.8174 40.1749 37.8174 42.4117C37.8174 44.6486 39.6248 46.4619 41.8544 46.4619Z" fill="white"/>
</svg>
