<svg width="349" height="82" viewBox="0 0 349 82" fill="none" xmlns="http://www.w3.org/2000/svg">
<path d="M24.423 30.4739H13.5396V46.0714H24.423V30.4739Z" fill="white"/>
<path d="M19 81.5696C29.4934 81.5696 38 73.0877 38 62.6247C38 52.1616 29.4934 43.6797 19 43.6797C8.50659 43.6797 0 52.1616 0 62.6247C0 73.0877 8.50659 81.5696 19 81.5696Z" fill="white"/>
<path d="M33.0791 63.0974C33.0791 70.8855 26.7757 77.1991 19.0001 77.1991C11.2243 77.1991 4.9209 70.8855 4.9209 63.0974C4.9209 55.3093 33.0791 55.3093 33.0791 63.0974Z" fill="#2D2D2D"/>
<path d="M24.9811 31.6141H12.5762C11.9878 31.6141 11.5107 31.1384 11.5107 30.5517V30.4689C11.5107 29.8822 11.9878 29.4065 12.5762 29.4065H24.9816C25.57 29.4065 26.047 29.8822 26.047 30.4689V30.5517C26.0467 31.1384 25.5696 31.6141 24.9811 31.6141Z" fill="white"/>
<path d="M23.519 22.4541C26.1372 22.4541 28.2599 20.3377 28.2599 17.727C28.2599 15.1164 26.1372 13 23.519 13C20.9008 13 18.7783 15.1164 18.7783 17.727C18.7783 20.3377 20.9008 22.4541 23.519 22.4541Z" fill="white"/>
<path d="M14.0749 27.0519C15.7559 27.0519 17.1187 25.6932 17.1187 24.0171C17.1187 22.3409 15.7559 20.9822 14.0749 20.9822C12.394 20.9822 11.0312 22.3409 11.0312 24.0171C11.0312 25.6932 12.394 27.0519 14.0749 27.0519Z" fill="white"/>
<path d="M83.552 30.488V29.048C83.552 27.896 83.264 26.984 82.688 26.312C82.112 25.64 81.216 25.304 80 25.304C78.784 25.304 77.888 25.64 77.312 26.312C76.736 26.984 76.448 27.896 76.448 29.048V30.488L83.552 30.488ZM76.448 35.384V38.84C76.448 40.152 76.784 41.112 77.456 41.72C78.128 42.296 78.976 42.584 80 42.584C81.28 42.584 82.192 42.232 82.736 41.528C83.28 40.824 83.552 39.96 83.552 38.936H89.6C89.44 41.656 88.56 43.768 86.96 45.272C85.392 46.744 83.072 47.48 80 47.48C78.56 47.48 77.248 47.272 76.064 46.856C74.88 46.408 73.872 45.784 73.04 44.984C72.208 44.184 71.552 43.224 71.072 42.104C70.624 40.952 70.4 39.656 70.4 38.216V29.672C70.4 28.232 70.624 26.952 71.072 25.832C71.552 24.68 72.208 23.704 73.04 22.904C73.872 22.104 74.88 21.496 76.064 21.08C77.248 20.632 78.56 20.408 80 20.408C81.408 20.408 82.688 20.632 83.84 21.08C85.024 21.496 86.032 22.088 86.864 22.856C87.728 23.624 88.4 24.552 88.88 25.64C89.36 26.728 89.6 27.944 89.6 29.288V35.384H76.448ZM92.816 20.888H99.248L102.656 28.376L106.16 20.888H112.592L105.968 33.608L113.024 47H106.592L102.656 38.552L98.72 47H92.288L99.44 33.56L92.816 20.888ZM122.256 41.096C123.408 42.344 124.624 42.968 125.904 42.968C126.32 42.968 126.704 42.888 127.056 42.728C127.408 42.568 127.712 42.264 127.968 41.816C128.256 41.336 128.48 40.696 128.64 39.896C128.8 39.096 128.88 38.04 128.88 36.728V31.16C128.88 29.88 128.8 28.84 128.64 28.04C128.48 27.208 128.256 26.568 127.968 26.12C127.712 25.64 127.408 25.32 127.056 25.16C126.704 25 126.32 24.92 125.904 24.92C124.624 24.92 123.408 25.544 122.256 26.792V41.096ZM121.776 20.888V24.056H121.872C122.128 23.64 122.48 23.224 122.928 22.808C123.376 22.36 123.888 21.96 124.464 21.608C125.04 21.256 125.648 20.968 126.288 20.744C126.96 20.52 127.632 20.408 128.304 20.408C130.672 20.408 132.368 21.288 133.392 23.048C134.416 24.808 134.928 27.384 134.928 30.776V37.112C134.928 40.504 134.416 43.08 133.392 44.84C132.368 46.6 130.672 47.48 128.304 47.48C127.472 47.48 126.608 47.272 125.712 46.856C124.848 46.408 123.696 45.656 122.256 44.6V56.216H116.208V20.888H121.776ZM152.88 30.488V29.048C152.88 27.896 152.592 26.984 152.016 26.312C151.44 25.64 150.544 25.304 149.328 25.304C148.112 25.304 147.216 25.64 146.64 26.312C146.064 26.984 145.776 27.896 145.776 29.048V30.488H152.88ZM145.776 35.384V38.84C145.776 40.152 146.112 41.112 146.784 41.72C147.456 42.296 148.304 42.584 149.328 42.584C150.608 42.584 151.52 42.232 152.064 41.528C152.608 40.824 152.88 39.96 152.88 38.936H158.928C158.768 41.656 157.888 43.768 156.288 45.272C154.72 46.744 152.4 47.48 149.328 47.48C147.888 47.48 146.576 47.272 145.392 46.856C144.208 46.408 143.2 45.784 142.368 44.984C141.536 44.184 140.88 43.224 140.4 42.104C139.952 40.952 139.728 39.656 139.728 38.216V29.672C139.728 28.232 139.952 26.952 140.4 25.832C140.88 24.68 141.536 23.704 142.368 22.904C143.2 22.104 144.208 21.496 145.392 21.08C146.576 20.632 147.888 20.408 149.328 20.408C150.736 20.408 152.016 20.632 153.168 21.08C154.352 21.496 155.36 22.088 156.192 22.856C157.056 23.624 157.728 24.552 158.208 25.64C158.688 26.728 158.928 27.944 158.928 29.288V35.384H145.776ZM164.208 47V20.888L170.112 20.888V24.344H170.208C170.912 23.032 171.744 22.056 172.704 21.416C173.664 20.744 174.912 20.408 176.448 20.408V26.936C175.936 26.776 175.408 26.632 174.864 26.504C174.32 26.344 173.776 26.264 173.232 26.264C172.24 26.264 171.488 26.568 170.976 27.176C170.496 27.784 170.256 28.44 170.256 29.144V47H164.208ZM180.961 16.376V10.904L187.009 10.904V16.376H180.961ZM187.009 20.888V47H180.961V20.888H187.009ZM193.552 20.888H199.408V23.864C200.4 22.968 201.408 22.168 202.432 21.464C203.456 20.76 204.608 20.408 205.888 20.408C207.008 20.408 207.968 20.76 208.768 21.464C209.568 22.168 210.144 23.128 210.496 24.344C211.424 23.32 212.4 22.408 213.424 21.608C214.448 20.808 215.616 20.408 216.928 20.408C218.752 20.408 220.128 20.968 221.056 22.088C221.984 23.208 222.448 24.952 222.448 27.32V47H216.4V27.128C216.4 26.264 216.256 25.688 215.968 25.4C215.68 25.08 215.296 24.92 214.816 24.92C214.528 24.92 214.208 25 213.856 25.16C213.504 25.288 213.136 25.48 212.752 25.736C212.4 25.96 212.064 26.216 211.744 26.504C211.456 26.76 211.216 27.016 211.024 27.272V47H204.976V27.128C204.976 26.264 204.816 25.688 204.496 25.4C204.208 25.08 203.824 24.92 203.344 24.92C203.024 24.92 202.672 25 202.288 25.16C201.936 25.288 201.584 25.48 201.232 25.736C200.912 25.96 200.608 26.216 200.32 26.504C200.032 26.76 199.792 27.016 199.6 27.272V47H193.552V20.888ZM240.865 30.488V29.048C240.865 27.896 240.577 26.984 240.001 26.312C239.425 25.64 238.529 25.304 237.312 25.304C236.097 25.304 235.201 25.64 234.625 26.312C234.049 26.984 233.761 27.896 233.761 29.048V30.488H240.865ZM233.761 35.384V38.84C233.761 40.152 234.097 41.112 234.769 41.72C235.441 42.296 236.289 42.584 237.312 42.584C238.593 42.584 239.505 42.232 240.049 41.528C240.593 40.824 240.865 39.96 240.865 38.936H246.913C246.753 41.656 245.873 43.768 244.273 45.272C242.705 46.744 240.385 47.48 237.312 47.48C235.873 47.48 234.561 47.272 233.377 46.856C232.193 46.408 231.185 45.784 230.353 44.984C229.521 44.184 228.865 43.224 228.385 42.104C227.937 40.952 227.713 39.656 227.713 38.216V29.672C227.713 28.232 227.937 26.952 228.385 25.832C228.865 24.68 229.521 23.704 230.353 22.904C231.185 22.104 232.193 21.496 233.377 21.08C234.561 20.632 235.873 20.408 237.312 20.408C238.72 20.408 240.001 20.632 241.153 21.08C242.337 21.496 243.345 22.088 244.177 22.856C245.041 23.624 245.713 24.552 246.193 25.64C246.673 26.728 246.913 27.944 246.913 29.288V35.384H233.761ZM252.193 47V20.888L258.049 20.888V23.864C259.169 22.904 260.257 22.088 261.312 21.416C262.401 20.744 263.569 20.408 264.817 20.408C266.673 20.408 268.065 20.92 268.993 21.944C269.953 22.968 270.433 24.696 270.433 27.128V47L264.385 47V27.8C264.385 26.936 264.225 26.248 263.905 25.736C263.585 25.192 263.009 24.92 262.177 24.92C261.537 24.92 260.881 25.176 260.209 25.688C259.537 26.168 258.881 26.696 258.241 27.272V47H252.193ZM273.601 26.936V22.04H276.001V14.936H282.049V22.04H285.937V26.936H282.049V40.28C282.049 40.92 282.289 41.4 282.769 41.72C283.281 42.04 283.953 42.2 284.785 42.2C285.009 42.2 285.217 42.2 285.409 42.2C285.601 42.2 285.793 42.184 285.984 42.152V47.24C285.409 47.336 284.833 47.4 284.257 47.432C283.681 47.464 283.105 47.48 282.529 47.48C280.545 47.48 278.961 47.096 277.777 46.328C276.593 45.528 276.001 44.184 276.001 42.296V26.936H273.601ZM290.32 16.376V10.904L296.368 10.904V16.376H290.32ZM296.368 20.888V47H290.32V20.888H296.368ZM302.911 47V20.888H308.767V23.864C309.887 22.904 310.975 22.088 312.031 21.416C313.119 20.744 314.287 20.408 315.535 20.408C317.391 20.408 318.783 20.92 319.711 21.944C320.671 22.968 321.151 24.696 321.151 27.128V47H315.103V27.8C315.103 26.936 314.943 26.248 314.623 25.736C314.303 25.192 313.727 24.92 312.895 24.92C312.255 24.92 311.599 25.176 310.927 25.688C310.255 26.168 309.599 26.696 308.959 27.272V47H302.911ZM332.095 48.152C331.775 48.472 331.487 48.776 331.231 49.064C330.975 49.384 330.847 49.784 330.847 50.264C330.847 50.936 331.311 51.416 332.239 51.704C333.199 52.024 334.575 52.184 336.367 52.184C337.807 52.184 338.927 52.008 339.727 51.656C340.527 51.304 340.927 50.792 340.927 50.12C340.927 49.672 340.783 49.336 340.495 49.112C340.239 48.92 339.647 48.792 338.719 48.728L332.095 48.152ZM338.047 30.344C338.047 26.984 336.991 25.304 334.879 25.304C333.727 25.304 332.911 25.736 332.431 26.6C331.951 27.464 331.711 28.92 331.711 30.968C331.711 32.6 331.951 33.832 332.431 34.664C332.943 35.464 333.663 35.864 334.591 35.864C335.231 35.864 335.775 35.8 336.223 35.672C336.671 35.512 337.023 35.224 337.279 34.808C337.567 34.392 337.759 33.832 337.855 33.128C337.983 32.424 338.047 31.496 338.047 30.344ZM346.975 25.688C346.719 25.624 346.399 25.544 346.015 25.448C345.663 25.352 345.359 25.304 345.103 25.304C344.783 25.304 344.463 25.368 344.143 25.496C343.823 25.624 343.455 25.752 343.039 25.88C343.231 26.744 343.407 27.528 343.567 28.232C343.727 28.936 343.807 29.688 343.807 30.488C343.807 33.784 343.103 36.328 341.695 38.12C340.287 39.88 338.079 40.76 335.071 40.76C334.623 40.76 334.207 40.744 333.823 40.712C333.439 40.68 333.023 40.584 332.575 40.424C332.415 40.68 332.191 40.92 331.903 41.144C331.647 41.368 331.519 41.64 331.519 41.96C331.519 42.504 331.887 42.856 332.623 43.016C333.391 43.176 334.335 43.272 335.455 43.304C336.575 43.336 337.791 43.4 339.103 43.496C340.415 43.56 341.631 43.784 342.751 44.168C343.871 44.552 344.799 45.176 345.535 46.04C346.303 46.872 346.687 48.072 346.687 49.64C346.687 50.76 346.399 51.72 345.823 52.52C345.279 53.352 344.495 54.04 343.471 54.584C342.479 55.128 341.263 55.528 339.823 55.784C338.415 56.072 336.831 56.216 335.071 56.216C331.839 56.216 329.359 55.784 327.631 54.92C325.935 54.088 325.087 52.936 325.087 51.464C325.087 50.984 325.199 50.536 325.423 50.12C325.679 49.736 325.983 49.368 326.335 49.016C326.719 48.696 327.119 48.392 327.535 48.104C327.983 47.848 328.383 47.608 328.735 47.384C327.999 46.936 327.391 46.424 326.911 45.848C326.463 45.24 326.239 44.52 326.239 43.688C326.239 43.176 326.351 42.712 326.575 42.296C326.831 41.848 327.135 41.448 327.487 41.096C327.871 40.712 328.271 40.376 328.687 40.088C329.103 39.8 329.503 39.544 329.887 39.32C328.415 38.36 327.391 37.16 326.815 35.72C326.239 34.28 325.951 32.456 325.951 30.248C325.951 28.84 326.095 27.544 326.383 26.36C326.671 25.144 327.167 24.104 327.871 23.24C328.575 22.344 329.487 21.656 330.607 21.176C331.759 20.664 333.183 20.408 334.879 20.408C336.127 20.408 337.375 20.68 338.623 21.224C339.903 21.768 340.927 22.504 341.695 23.432C342.463 22.472 343.247 21.736 344.047 21.224C344.879 20.68 345.855 20.408 346.975 20.408V25.688Z" fill="white"/>
<path d="M73.5 59.36V61.08H72.06V59.36H73.5ZM72.06 63.6H73.5V74H72.06V63.6ZM78.7864 63.6V65H78.8264C79.2397 64.5333 79.7064 64.1533 80.2264 63.86C80.7464 63.5533 81.3064 63.4 81.9064 63.4C82.2931 63.4 82.6664 63.4533 83.0264 63.56C83.3864 63.6667 83.7064 63.84 83.9864 64.08C84.2664 64.32 84.4864 64.6333 84.6464 65.02C84.8197 65.4067 84.9064 65.88 84.9064 66.44V74H83.4664V66.48C83.4664 65.7867 83.3131 65.3067 83.0064 65.04C82.6997 64.7733 82.2864 64.64 81.7664 64.64C81.4997 64.64 81.2197 64.6933 80.9264 64.8C80.6464 64.8933 80.3731 65.02 80.1064 65.18C79.8531 65.3267 79.6064 65.4933 79.3664 65.68C79.1397 65.8667 78.9464 66.0467 78.7864 66.22V74H77.3464V63.6H78.7864ZM88.7397 63.6V60.18H90.1797V63.6H92.5797V64.84H90.1797V72.24C90.1797 72.48 90.2664 72.66 90.4397 72.78C90.6264 72.9 90.933 72.96 91.3597 72.96C91.5997 72.96 91.8264 72.9533 92.0397 72.94C92.253 72.9133 92.453 72.8867 92.6397 72.86V74.04C92.5064 74.08 92.2997 74.1133 92.0197 74.14C91.7397 74.18 91.3864 74.2 90.9597 74.2C90.173 74.2 89.6064 74.08 89.2597 73.84C88.913 73.6 88.7397 73.1467 88.7397 72.48V64.84H87.0397V63.6H88.7397ZM101.16 68.8C101.16 67.4533 100.907 66.4267 100.4 65.72C99.8932 65 99.2065 64.64 98.3398 64.64C97.4732 64.64 96.7865 65 96.2798 65.72C95.7732 66.4267 95.5198 67.4533 95.5198 68.8C95.5198 70.1467 95.7732 71.18 96.2798 71.9C96.7865 72.6067 97.4732 72.96 98.3398 72.96C99.2065 72.96 99.8932 72.6067 100.4 71.9C100.907 71.18 101.16 70.1467 101.16 68.8ZM102.6 68.8C102.6 69.5467 102.507 70.2533 102.32 70.92C102.147 71.5733 101.88 72.1467 101.52 72.64C101.173 73.12 100.733 73.5 100.2 73.78C99.6665 74.06 99.0465 74.2 98.3398 74.2C97.6332 74.2 97.0132 74.06 96.4798 73.78C95.9465 73.5 95.4998 73.12 95.1398 72.64C94.7932 72.1467 94.5265 71.5733 94.3398 70.92C94.1665 70.2533 94.0798 69.5467 94.0798 68.8C94.0798 68.0533 94.1665 67.3533 94.3398 66.7C94.5265 66.0333 94.7932 65.46 95.1398 64.98C95.4998 64.4867 95.9465 64.1 96.4798 63.82C97.0132 63.54 97.6332 63.4 98.3398 63.4C99.0465 63.4 99.6665 63.54 100.2 63.82C100.733 64.1 101.173 64.4867 101.52 64.98C101.88 65.46 102.147 66.0333 102.32 66.7C102.507 67.3533 102.6 68.0533 102.6 68.8ZM111.494 63.6V60.18H112.934V63.6H115.334V64.84H112.934V72.24C112.934 72.48 113.02 72.66 113.194 72.78C113.38 72.9 113.687 72.96 114.114 72.96C114.354 72.96 114.58 72.9533 114.794 72.94C115.007 72.9133 115.207 72.8867 115.394 72.86V74.04C115.26 74.08 115.054 74.1133 114.774 74.14C114.494 74.18 114.14 74.2 113.714 74.2C112.927 74.2 112.36 74.08 112.014 73.84C111.667 73.6 111.494 73.1467 111.494 72.48V64.84H109.794V63.6H111.494ZM119.314 59.56V65H119.354C119.767 64.5333 120.234 64.1533 120.754 63.86C121.274 63.5533 121.834 63.4 122.434 63.4C122.82 63.4 123.194 63.4533 123.554 63.56C123.914 63.6667 124.234 63.84 124.514 64.08C124.794 64.32 125.014 64.6333 125.174 65.02C125.347 65.4067 125.434 65.88 125.434 66.44V74L123.994 74V66.48C123.994 65.7867 123.84 65.3067 123.534 65.04C123.227 64.7733 122.814 64.64 122.294 64.64C122.027 64.64 121.747 64.6933 121.454 64.8C121.174 64.8933 120.9 65.02 120.634 65.18C120.38 65.3267 120.134 65.4933 119.894 65.68C119.667 65.8667 119.474 66.0467 119.314 66.22V74H117.874V59.56H119.314ZM134.767 67.84C134.767 66.88 134.547 66.1067 134.107 65.52C133.68 64.9333 133.074 64.64 132.287 64.64C131.407 64.64 130.734 64.9333 130.267 65.52C129.814 66.1067 129.554 66.88 129.487 67.84H134.767ZM136.527 71.78C136.354 72.0733 136.16 72.3667 135.947 72.66C135.734 72.94 135.467 73.2 135.147 73.44C134.84 73.6667 134.474 73.8533 134.047 74C133.62 74.1333 133.114 74.2 132.527 74.2C131.94 74.2 131.374 74.1 130.827 73.9C130.294 73.6867 129.814 73.36 129.387 72.92C128.974 72.48 128.64 71.92 128.387 71.24C128.134 70.56 128.007 69.7467 128.007 68.8C128.007 67.96 128.107 67.2067 128.307 66.54C128.507 65.8733 128.794 65.3067 129.167 64.84C129.54 64.3733 129.987 64.02 130.507 63.78C131.027 63.5267 131.607 63.4 132.247 63.4C132.78 63.4 133.287 63.4933 133.767 63.68C134.247 63.8533 134.667 64.1333 135.027 64.52C135.387 64.8933 135.674 65.38 135.887 65.98C136.1 66.58 136.207 67.2933 136.207 68.12V69.08H129.447C129.447 69.6533 129.527 70.18 129.687 70.66C129.847 71.1267 130.067 71.5333 130.347 71.88C130.627 72.2133 130.954 72.48 131.327 72.68C131.7 72.8667 132.1 72.96 132.527 72.96C133.167 72.96 133.727 72.8067 134.207 72.5C134.7 72.18 135.1 71.7467 135.407 71.2L136.527 71.78ZM151.201 74V72.6H151.161C150.747 73.0667 150.281 73.4533 149.761 73.76C149.241 74.0533 148.681 74.2 148.081 74.2C147.694 74.2 147.321 74.1467 146.961 74.04C146.601 73.9333 146.281 73.76 146.001 73.52C145.721 73.28 145.494 72.9667 145.321 72.58C145.161 72.1933 145.081 71.72 145.081 71.16V63.6H146.521V71.12C146.521 71.8133 146.674 72.2933 146.981 72.56C147.287 72.8267 147.701 72.96 148.221 72.96C148.487 72.96 148.761 72.9133 149.041 72.82C149.334 72.7133 149.607 72.5867 149.861 72.44C150.127 72.28 150.374 72.1067 150.601 71.92C150.841 71.7333 151.041 71.5533 151.201 71.38V63.6H152.641V74H151.201ZM157.634 63.6V65H157.674C158.087 64.5333 158.554 64.1533 159.074 63.86C159.594 63.5533 160.154 63.4 160.754 63.4C161.141 63.4 161.514 63.4533 161.874 63.56C162.234 63.6667 162.554 63.84 162.834 64.08C163.114 64.32 163.334 64.6333 163.494 65.02C163.667 65.4067 163.754 65.88 163.754 66.44V74H162.314V66.48C162.314 65.7867 162.161 65.3067 161.854 65.04C161.547 64.7733 161.134 64.64 160.614 64.64C160.347 64.64 160.067 64.6933 159.774 64.8C159.494 64.8933 159.221 65.02 158.954 65.18C158.701 65.3267 158.454 65.4933 158.214 65.68C157.987 65.8667 157.794 66.0467 157.634 66.22V74H156.194V63.6H157.634ZM167.207 59.56H168.647V68.86H168.687L172.887 63.6H174.627L171.567 67.44L175.027 74H173.327L170.567 68.68L168.647 70.88V74H167.207V59.56ZM178.747 63.6V65H178.787C179.201 64.5333 179.667 64.1533 180.187 63.86C180.707 63.5533 181.267 63.4 181.867 63.4C182.254 63.4 182.627 63.4533 182.987 63.56C183.347 63.6667 183.667 63.84 183.947 64.08C184.227 64.32 184.447 64.6333 184.607 65.02C184.781 65.4067 184.867 65.88 184.867 66.44V74H183.427V66.48C183.427 65.7867 183.274 65.3067 182.967 65.04C182.661 64.7733 182.247 64.64 181.727 64.64C181.461 64.64 181.181 64.6933 180.887 64.8C180.607 64.8933 180.334 65.02 180.067 65.18C179.814 65.3267 179.567 65.4933 179.327 65.68C179.101 65.8667 178.907 66.0467 178.747 66.22V74H177.307V63.6H178.747ZM194.461 68.8C194.461 67.4533 194.207 66.4267 193.701 65.72C193.194 65 192.507 64.64 191.641 64.64C190.774 64.64 190.087 65 189.581 65.72C189.074 66.4267 188.821 67.4533 188.821 68.8C188.821 70.1467 189.074 71.18 189.581 71.9C190.087 72.6067 190.774 72.96 191.641 72.96C192.507 72.96 193.194 72.6067 193.701 71.9C194.207 71.18 194.461 70.1467 194.461 68.8ZM195.901 68.8C195.901 69.5467 195.807 70.2533 195.621 70.92C195.447 71.5733 195.181 72.1467 194.821 72.64C194.474 73.12 194.034 73.5 193.501 73.78C192.967 74.06 192.347 74.2 191.641 74.2C190.934 74.2 190.314 74.06 189.781 73.78C189.247 73.5 188.801 73.12 188.441 72.64C188.094 72.1467 187.827 71.5733 187.641 70.92C187.467 70.2533 187.381 69.5467 187.381 68.8C187.381 68.0533 187.467 67.3533 187.641 66.7C187.827 66.0333 188.094 65.46 188.441 64.98C188.801 64.4867 189.247 64.1 189.781 63.82C190.314 63.54 190.934 63.4 191.641 63.4C192.347 63.4 192.967 63.54 193.501 63.82C194.034 64.1 194.474 64.4867 194.821 64.98C195.181 65.46 195.447 66.0333 195.621 66.7C195.807 67.3533 195.901 68.0533 195.901 68.8ZM196.961 63.6H198.421L200.521 71.6H200.561L202.601 63.6H204.061L206.141 71.64H206.181L208.201 63.6H209.661L206.881 74H205.421L203.341 65.96H203.301L201.241 74H199.781L196.961 63.6ZM213.2 63.6V65H213.24C213.654 64.5333 214.12 64.1533 214.64 63.86C215.16 63.5533 215.72 63.4 216.32 63.4C216.707 63.4 217.08 63.4533 217.44 63.56C217.8 63.6667 218.12 63.84 218.4 64.08C218.68 64.32 218.9 64.6333 219.06 65.02C219.234 65.4067 219.32 65.88 219.32 66.44V74H217.88V66.48C217.88 65.7867 217.727 65.3067 217.42 65.04C217.114 64.7733 216.7 64.64 216.18 64.64C215.914 64.64 215.634 64.6933 215.34 64.8C215.06 64.8933 214.787 65.02 214.52 65.18C214.267 65.3267 214.02 65.4933 213.78 65.68C213.554 65.8667 213.36 66.0467 213.2 66.22V74H211.76V63.6H213.2Z" fill="#ABABAB"/>
</svg>
