<svg width="519" height="138" viewBox="0 0 519 138" fill="none" xmlns="http://www.w3.org/2000/svg">
<path d="M8.84296 98.6824V12.0424H25.403V46.6024H48.803V12.0424H65.363V98.6824H48.803V61.2424H25.403V98.6824H8.84296ZM78.6023 98.6824V12.0424H95.1623V98.6824H78.6023ZM108.401 98.6824V12.0424H126.521L149.561 63.4024H149.801V12.0424H164.921V98.6824H149.081L123.761 42.7624H123.521V98.6824H108.401ZM193.76 84.0424H199.52C204.08 84.0424 207.6 82.8024 210.08 80.3224C212.64 77.7624 213.92 73.2424 213.92 66.7624V43.9624C213.92 37.8024 212.8 33.4024 210.56 30.7624C208.4 28.0424 204.72 26.6824 199.52 26.6824H193.76V84.0424ZM177.2 12.0424H200.24C204.96 12.0424 209.16 12.6024 212.84 13.7224C216.52 14.7624 219.64 16.4824 222.2 18.8824C224.76 21.2824 226.72 24.4024 228.08 28.2424C229.52 32.0024 230.32 36.6024 230.48 42.0424V68.6824C230.32 74.1224 229.52 78.7624 228.08 82.6024C226.72 86.3624 224.76 89.4424 222.2 91.8424C219.64 94.2424 216.52 96.0024 212.84 97.1224C209.16 98.1624 204.96 98.6824 200.24 98.6824H177.2V12.0424ZM276.88 36.1624C275.52 32.0824 273.88 29.1224 271.96 27.2824C270.04 25.4424 267.64 24.5224 264.76 24.5224C261.8 24.5224 259.52 25.3624 257.92 27.0424C256.4 28.7224 255.64 31.0424 255.64 34.0024C255.64 36.1624 256.56 38.0824 258.4 39.7624C260.24 41.3624 262.52 42.9224 265.24 44.4424C267.96 45.9624 270.92 47.6024 274.12 49.3624C277.32 51.0424 280.28 53.0424 283 55.3624C285.72 57.6824 288 60.4424 289.84 63.6424C291.68 66.8424 292.6 70.6824 292.6 75.1624C292.6 78.9224 291.96 82.3224 290.68 85.3624C289.48 88.4024 287.68 91.0024 285.28 93.1624C282.96 95.3224 280.08 97.0024 276.64 98.2024C273.2 99.3224 269.32 99.8824 265 99.8824C258.2 99.8824 252.32 97.9624 247.36 94.1224C242.48 90.2824 238.92 84.0824 236.68 75.5224L253 72.0424C253.48 74.6824 254.16 76.9224 255.04 78.7624C256 80.5224 257.08 81.9624 258.28 83.0824C259.48 84.2024 260.72 85.0024 262 85.4824C263.36 85.9624 264.64 86.2024 265.84 86.2024C268.72 86.2024 271.12 85.3224 273.04 83.5624C275.04 81.7224 276.04 79.1624 276.04 75.8824C276.04 73.1624 275.12 70.8424 273.28 68.9224C271.44 66.9224 269.16 65.0824 266.44 63.4024C263.72 61.7224 260.76 60.0824 257.56 58.4824C254.36 56.8024 251.4 54.9224 248.68 52.8424C245.96 50.6824 243.68 48.2024 241.84 45.4024C240 42.6024 239.08 39.1624 239.08 35.0824C239.08 27.5624 241.24 21.6424 245.56 17.3224C249.96 13.0024 256.48 10.8424 265.12 10.8424C268.8 10.8424 272.12 11.3624 275.08 12.4024C278.04 13.4424 280.64 14.9224 282.88 16.8424C285.12 18.6824 286.96 20.8824 288.4 23.4424C289.92 26.0024 291.04 28.8024 291.76 31.8424L276.88 36.1624ZM304.32 98.6824V12.0424H320.88V98.6824H304.32ZM374.558 91.4824C372.318 94.0424 369.958 96.0824 367.478 97.6024C364.998 99.1224 362.198 99.8824 359.078 99.8824C355.078 99.8824 351.398 99.3624 348.038 98.3224C344.678 97.2824 341.798 95.6424 339.398 93.4024C336.998 91.0824 335.118 88.0824 333.758 84.4024C332.398 80.7224 331.718 76.2024 331.718 70.8424V39.8824C331.718 34.5224 332.398 30.0024 333.758 26.3224C335.118 22.6424 336.998 19.6824 339.398 17.4424C341.798 15.1224 344.678 13.4424 348.038 12.4024C351.398 11.3624 355.078 10.8424 359.078 10.8424C367.558 10.8424 374.038 13.2824 378.518 18.1624C382.998 22.9624 385.398 30.3224 385.718 40.2424H369.158C369.158 34.6424 368.238 30.8024 366.398 28.7224C364.558 26.5624 362.118 25.4824 359.078 25.4824C355.718 25.4824 353.078 26.3224 351.158 28.0024C349.238 29.6824 348.278 32.9224 348.278 37.7224V73.0024C348.278 77.8024 349.238 81.0424 351.158 82.7224C353.078 84.4024 355.718 85.2424 359.078 85.2424C362.198 85.2424 364.638 84.2024 366.398 82.1224C368.238 79.9624 369.158 77.0024 369.158 73.2424V67.9624H357.518V54.2824H385.718V98.6824H377.078L374.558 91.4824ZM397.198 98.6824V12.0424H413.758V46.6024H437.158V12.0424H453.718V98.6824H437.158V61.2424H413.758V98.6824H397.198ZM516.157 12.0424V26.6824H496.837V98.6824H480.277V26.6824H460.957V12.0424H516.157Z" fill="white" fill-opacity="0.2"/>
<path d="M172.591 127.38C169.311 127.953 167.671 128.947 167.671 130.36C167.671 130.6 167.724 130.82 167.831 131.02C167.937 131.22 168.071 131.393 168.231 131.54C168.391 131.673 168.571 131.78 168.771 131.86C168.984 131.927 169.191 131.96 169.391 131.96C169.644 131.96 169.917 131.92 170.211 131.84C170.504 131.747 170.791 131.62 171.071 131.46C171.351 131.3 171.617 131.12 171.871 130.92C172.137 130.707 172.377 130.48 172.591 130.24V127.38ZM166.531 124.6C166.864 124 167.351 123.487 167.991 123.06C168.631 122.62 169.444 122.4 170.431 122.4C170.871 122.4 171.304 122.46 171.731 122.58C172.157 122.687 172.537 122.867 172.871 123.12C173.217 123.36 173.497 123.68 173.711 124.08C173.924 124.467 174.031 124.947 174.031 125.52V130.76C174.031 131.333 174.051 131.787 174.091 132.12C174.144 132.44 174.204 132.733 174.271 133H172.791L172.631 131.56C172.271 131.96 171.804 132.333 171.231 132.68C170.657 133.027 169.977 133.2 169.191 133.2C168.791 133.2 168.411 133.14 168.051 133.02C167.691 132.9 167.377 132.72 167.111 132.48C166.844 132.24 166.631 131.947 166.471 131.6C166.311 131.24 166.231 130.82 166.231 130.34C166.231 129.767 166.344 129.267 166.571 128.84C166.797 128.4 167.164 128.013 167.671 127.68C168.177 127.333 168.831 127.033 169.631 126.78C170.444 126.527 171.431 126.3 172.591 126.1V125.54C172.591 124.847 172.391 124.36 171.991 124.08C171.591 123.787 171.077 123.64 170.451 123.64C170.051 123.64 169.697 123.693 169.391 123.8C169.097 123.893 168.844 124.02 168.631 124.18C168.417 124.34 168.237 124.52 168.091 124.72C167.957 124.907 167.857 125.087 167.791 125.26L166.531 124.6ZM178.891 118.56V133H177.451V118.56H178.891ZM184.457 118.56V133H183.017V118.56H184.457ZM194.677 122.6V119.18H196.117V122.6H198.517V123.84H196.117V131.24C196.117 131.48 196.204 131.66 196.377 131.78C196.564 131.9 196.871 131.96 197.297 131.96C197.537 131.96 197.764 131.953 197.977 131.94C198.191 131.913 198.391 131.887 198.577 131.86V133.04C198.444 133.08 198.237 133.113 197.957 133.14C197.677 133.18 197.324 133.2 196.897 133.2C196.111 133.2 195.544 133.08 195.197 132.84C194.851 132.6 194.677 132.147 194.677 131.48V123.84H192.977V122.6H194.677ZM202.497 118.56V124H202.537C202.951 123.533 203.417 123.153 203.937 122.86C204.457 122.553 205.017 122.4 205.617 122.4C206.004 122.4 206.377 122.453 206.737 122.56C207.097 122.667 207.417 122.84 207.697 123.08C207.977 123.32 208.197 123.633 208.357 124.02C208.531 124.407 208.617 124.88 208.617 125.44V133H207.177V125.48C207.177 124.787 207.024 124.307 206.717 124.04C206.411 123.773 205.997 123.64 205.477 123.64C205.211 123.64 204.931 123.693 204.637 123.8C204.357 123.893 204.084 124.02 203.817 124.18C203.564 124.327 203.317 124.493 203.077 124.68C202.851 124.867 202.657 125.047 202.497 125.22V133H201.057V118.56H202.497ZM217.951 126.84C217.951 125.88 217.731 125.107 217.291 124.52C216.864 123.933 216.257 123.64 215.471 123.64C214.591 123.64 213.917 123.933 213.451 124.52C212.997 125.107 212.737 125.88 212.671 126.84L217.951 126.84ZM219.711 130.78C219.537 131.073 219.344 131.367 219.131 131.66C218.917 131.94 218.651 132.2 218.331 132.44C218.024 132.667 217.657 132.853 217.231 133C216.804 133.133 216.297 133.2 215.711 133.2C215.124 133.2 214.557 133.1 214.011 132.9C213.477 132.687 212.997 132.36 212.571 131.92C212.157 131.48 211.824 130.92 211.571 130.24C211.317 129.56 211.191 128.747 211.191 127.8C211.191 126.96 211.291 126.207 211.491 125.54C211.691 124.873 211.977 124.307 212.351 123.84C212.724 123.373 213.171 123.02 213.691 122.78C214.211 122.527 214.791 122.4 215.431 122.4C215.964 122.4 216.471 122.493 216.951 122.68C217.431 122.853 217.851 123.133 218.211 123.52C218.571 123.893 218.857 124.38 219.071 124.98C219.284 125.58 219.391 126.293 219.391 127.12V128.08H212.631C212.631 128.653 212.711 129.18 212.871 129.66C213.031 130.127 213.251 130.533 213.531 130.88C213.811 131.213 214.137 131.48 214.511 131.68C214.884 131.867 215.284 131.96 215.711 131.96C216.351 131.96 216.911 131.807 217.391 131.5C217.884 131.18 218.284 130.747 218.591 130.2L219.711 130.78ZM226.804 122.6H228.264L230.364 130.6H230.404L232.444 122.6H233.904L235.984 130.64H236.024L238.044 122.6H239.504L236.724 133H235.264L233.184 124.96H233.144L231.084 133H229.624L226.804 122.6ZM247.644 127.8C247.644 126.453 247.391 125.427 246.884 124.72C246.378 124 245.691 123.64 244.824 123.64C243.958 123.64 243.271 124 242.764 124.72C242.258 125.427 242.004 126.453 242.004 127.8C242.004 129.147 242.258 130.18 242.764 130.9C243.271 131.607 243.958 131.96 244.824 131.96C245.691 131.96 246.378 131.607 246.884 130.9C247.391 130.18 247.644 129.147 247.644 127.8ZM249.084 127.8C249.084 128.547 248.991 129.253 248.804 129.92C248.631 130.573 248.364 131.147 248.004 131.64C247.658 132.12 247.218 132.5 246.684 132.78C246.151 133.06 245.531 133.2 244.824 133.2C244.118 133.2 243.498 133.06 242.964 132.78C242.431 132.5 241.984 132.12 241.624 131.64C241.278 131.147 241.011 130.573 240.824 129.92C240.651 129.253 240.564 128.547 240.564 127.8C240.564 127.053 240.651 126.353 240.824 125.7C241.011 125.033 241.278 124.46 241.624 123.98C241.984 123.487 242.431 123.1 242.964 122.82C243.498 122.54 244.118 122.4 244.824 122.4C245.531 122.4 246.151 122.54 246.684 122.82C247.218 123.1 247.658 123.487 248.004 123.98C248.364 124.46 248.631 125.033 248.804 125.7C248.991 126.353 249.084 127.053 249.084 127.8ZM251.224 122.6H252.664V124.66H252.704C252.904 124.3 253.111 123.987 253.324 123.72C253.538 123.44 253.778 123.207 254.044 123.02C254.311 122.833 254.611 122.693 254.944 122.6C255.278 122.493 255.658 122.44 256.084 122.44V123.88C255.178 123.907 254.464 124.207 253.944 124.78C253.438 125.34 253.011 126.16 252.664 127.24V133H251.224V122.6ZM259.984 118.56V133H258.544V118.56H259.984ZM269.971 125.08C269.584 124.653 269.157 124.307 268.691 124.04C268.224 123.773 267.777 123.64 267.351 123.64C266.924 123.64 266.531 123.713 266.171 123.86C265.824 124.007 265.517 124.247 265.251 124.58C264.984 124.913 264.777 125.353 264.631 125.9C264.484 126.433 264.411 127.093 264.411 127.88C264.411 129.213 264.671 130.227 265.191 130.92C265.724 131.613 266.444 131.96 267.351 131.96C267.817 131.96 268.244 131.853 268.631 131.64C269.017 131.427 269.464 131.067 269.971 130.56V125.08ZM271.411 118.56V130.72C271.411 131.107 271.404 131.487 271.391 131.86C271.391 132.233 271.424 132.613 271.491 133H270.171L269.971 131.98C269.731 132.313 269.371 132.6 268.891 132.84C268.411 133.08 267.857 133.2 267.231 133.2C266.764 133.2 266.277 133.113 265.771 132.94C265.277 132.767 264.824 132.473 264.411 132.06C263.997 131.647 263.651 131.093 263.371 130.4C263.104 129.707 262.971 128.84 262.971 127.8C262.971 126.787 263.104 125.94 263.371 125.26C263.651 124.567 263.991 124.013 264.391 123.6C264.804 123.173 265.257 122.867 265.751 122.68C266.244 122.493 266.711 122.4 267.151 122.4C267.644 122.4 268.124 122.513 268.591 122.74C269.057 122.953 269.491 123.227 269.891 123.56L269.971 123.6V118.56H271.411ZM276.984 120.76L275.724 123.6H274.884L275.824 120.76H275.024V118.56H276.984V120.76ZM279.608 130.36C279.955 130.853 280.375 131.247 280.868 131.54C281.362 131.82 281.935 131.96 282.588 131.96C283.362 131.96 283.928 131.787 284.288 131.44C284.648 131.08 284.828 130.68 284.828 130.24C284.828 129.8 284.675 129.46 284.368 129.22C284.062 128.967 283.682 128.76 283.228 128.6C282.775 128.44 282.282 128.293 281.748 128.16C281.228 128.013 280.742 127.827 280.288 127.6C279.848 127.373 279.482 127.08 279.188 126.72C278.895 126.347 278.762 125.84 278.788 125.2C278.815 124.293 279.142 123.6 279.768 123.12C280.408 122.627 281.228 122.387 282.228 122.4C282.562 122.4 282.902 122.447 283.248 122.54C283.608 122.633 283.942 122.76 284.248 122.92C284.568 123.08 284.862 123.273 285.128 123.5C285.395 123.713 285.615 123.953 285.788 124.22L284.788 125.1C284.388 124.607 283.982 124.24 283.568 124C283.155 123.76 282.668 123.64 282.108 123.64C281.495 123.64 281.028 123.78 280.708 124.06C280.388 124.34 280.228 124.713 280.228 125.18C280.228 125.553 280.375 125.847 280.668 126.06C280.975 126.273 281.348 126.46 281.788 126.62C282.242 126.767 282.728 126.913 283.248 127.06C283.768 127.207 284.248 127.407 284.688 127.66C285.142 127.9 285.515 128.22 285.808 128.62C286.115 129.007 286.268 129.52 286.268 130.16C286.268 130.667 286.168 131.113 285.968 131.5C285.768 131.873 285.495 132.187 285.148 132.44C284.815 132.693 284.428 132.88 283.988 133C283.548 133.133 283.095 133.2 282.628 133.2C281.815 133.2 281.035 133.033 280.288 132.7C279.555 132.353 278.948 131.86 278.468 131.22L279.608 130.36ZM300.169 127.38C296.889 127.953 295.249 128.947 295.249 130.36C295.249 130.6 295.302 130.82 295.409 131.02C295.515 131.22 295.649 131.393 295.809 131.54C295.969 131.673 296.149 131.78 296.349 131.86C296.562 131.927 296.769 131.96 296.969 131.96C297.222 131.96 297.495 131.92 297.789 131.84C298.082 131.747 298.369 131.62 298.649 131.46C298.929 131.3 299.195 131.12 299.449 130.92C299.715 130.707 299.955 130.48 300.169 130.24V127.38ZM294.109 124.6C294.442 124 294.929 123.487 295.569 123.06C296.209 122.62 297.022 122.4 298.009 122.4C298.449 122.4 298.882 122.46 299.309 122.58C299.735 122.687 300.115 122.867 300.449 123.12C300.795 123.36 301.075 123.68 301.289 124.08C301.502 124.467 301.609 124.947 301.609 125.52V130.76C301.609 131.333 301.629 131.787 301.669 132.12C301.722 132.44 301.782 132.733 301.849 133H300.369L300.209 131.56C299.849 131.96 299.382 132.333 298.809 132.68C298.235 133.027 297.555 133.2 296.769 133.2C296.369 133.2 295.989 133.14 295.629 133.02C295.269 132.9 294.955 132.72 294.689 132.48C294.422 132.24 294.209 131.947 294.049 131.6C293.889 131.24 293.809 130.82 293.809 130.34C293.809 129.767 293.922 129.267 294.149 128.84C294.375 128.4 294.742 128.013 295.249 127.68C295.755 127.333 296.409 127.033 297.209 126.78C298.022 126.527 299.009 126.3 300.169 126.1V125.54C300.169 124.847 299.969 124.36 299.569 124.08C299.169 123.787 298.655 123.64 298.029 123.64C297.629 123.64 297.275 123.693 296.969 123.8C296.675 123.893 296.422 124.02 296.209 124.18C295.995 124.34 295.815 124.52 295.669 124.72C295.535 124.907 295.435 125.087 295.369 125.26L294.109 124.6ZM310.683 130.36C311.029 130.853 311.449 131.247 311.943 131.54C312.436 131.82 313.009 131.96 313.663 131.96C314.436 131.96 315.003 131.787 315.363 131.44C315.723 131.08 315.903 130.68 315.903 130.24C315.903 129.8 315.749 129.46 315.443 129.22C315.136 128.967 314.756 128.76 314.303 128.6C313.849 128.44 313.356 128.293 312.823 128.16C312.303 128.013 311.816 127.827 311.363 127.6C310.923 127.373 310.556 127.08 310.263 126.72C309.969 126.347 309.836 125.84 309.863 125.2C309.889 124.293 310.216 123.6 310.843 123.12C311.483 122.627 312.303 122.387 313.303 122.4C313.636 122.4 313.976 122.447 314.323 122.54C314.683 122.633 315.016 122.76 315.323 122.92C315.643 123.08 315.936 123.273 316.203 123.5C316.469 123.713 316.689 123.953 316.863 124.22L315.863 125.1C315.463 124.607 315.056 124.24 314.643 124C314.229 123.76 313.743 123.64 313.183 123.64C312.569 123.64 312.103 123.78 311.783 124.06C311.463 124.34 311.303 124.713 311.303 125.18C311.303 125.553 311.449 125.847 311.743 126.06C312.049 126.273 312.423 126.46 312.863 126.62C313.316 126.767 313.803 126.913 314.323 127.06C314.843 127.207 315.323 127.407 315.763 127.66C316.216 127.9 316.589 128.22 316.883 128.62C317.189 129.007 317.343 129.52 317.343 130.16C317.343 130.667 317.243 131.113 317.043 131.5C316.843 131.873 316.569 132.187 316.223 132.44C315.889 132.693 315.503 132.88 315.063 133C314.623 133.133 314.169 133.2 313.703 133.2C312.889 133.2 312.109 133.033 311.363 132.7C310.629 132.353 310.023 131.86 309.543 131.22L310.683 130.36ZM320.009 122.6V119.18H321.449V122.6H323.849V123.84H321.449V131.24C321.449 131.48 321.536 131.66 321.709 131.78C321.896 131.9 322.203 131.96 322.629 131.96C322.869 131.96 323.096 131.953 323.309 131.94C323.523 131.913 323.723 131.887 323.909 131.86V133.04C323.776 133.08 323.569 133.113 323.289 133.14C323.009 133.18 322.656 133.2 322.229 133.2C321.443 133.2 320.876 133.08 320.529 132.84C320.183 132.6 320.009 132.147 320.009 131.48V123.84H318.309V122.6H320.009ZM331.809 127.38C328.529 127.953 326.889 128.947 326.889 130.36C326.889 130.6 326.943 130.82 327.049 131.02C327.156 131.22 327.289 131.393 327.449 131.54C327.609 131.673 327.789 131.78 327.989 131.86C328.203 131.927 328.409 131.96 328.609 131.96C328.863 131.96 329.136 131.92 329.429 131.84C329.723 131.747 330.009 131.62 330.289 131.46C330.569 131.3 330.836 131.12 331.089 130.92C331.356 130.707 331.596 130.48 331.809 130.24V127.38ZM325.749 124.6C326.083 124 326.569 123.487 327.209 123.06C327.849 122.62 328.663 122.4 329.649 122.4C330.089 122.4 330.523 122.46 330.949 122.58C331.376 122.687 331.756 122.867 332.089 123.12C332.436 123.36 332.716 123.68 332.929 124.08C333.143 124.467 333.249 124.947 333.249 125.52V130.76C333.249 131.333 333.269 131.787 333.309 132.12C333.363 132.44 333.423 132.733 333.489 133H332.009L331.849 131.56C331.489 131.96 331.023 132.333 330.449 132.68C329.876 133.027 329.196 133.2 328.409 133.2C328.009 133.2 327.629 133.14 327.269 133.02C326.909 132.9 326.596 132.72 326.329 132.48C326.063 132.24 325.849 131.947 325.689 131.6C325.529 131.24 325.449 130.82 325.449 130.34C325.449 129.767 325.563 129.267 325.789 128.84C326.016 128.4 326.383 128.013 326.889 127.68C327.396 127.333 328.049 127.033 328.849 126.78C329.663 126.527 330.649 126.3 331.809 126.1V125.54C331.809 124.847 331.609 124.36 331.209 124.08C330.809 123.787 330.296 123.64 329.669 123.64C329.269 123.64 328.916 123.693 328.609 123.8C328.316 123.893 328.063 124.02 327.849 124.18C327.636 124.34 327.456 124.52 327.309 124.72C327.176 124.907 327.076 125.087 327.009 125.26L325.749 124.6ZM342.869 134.1C342.856 133.593 342.569 133.213 342.009 132.96C341.463 132.693 340.549 132.56 339.269 132.56C338.709 132.56 338.243 132.62 337.869 132.74C337.496 132.847 337.196 132.98 336.969 133.14C336.756 133.313 336.603 133.5 336.509 133.7C336.416 133.913 336.369 134.113 336.369 134.3C336.369 134.5 336.409 134.68 336.489 134.84C336.569 135 336.729 135.133 336.969 135.24C337.209 135.36 337.549 135.447 337.989 135.5C338.429 135.567 339.009 135.6 339.729 135.6C340.156 135.6 340.556 135.567 340.929 135.5C341.316 135.447 341.649 135.353 341.929 135.22C342.223 135.1 342.449 134.947 342.609 134.76C342.783 134.573 342.869 134.353 342.869 134.1ZM341.969 126.12C341.969 125.36 341.749 124.76 341.309 124.32C340.869 123.867 340.209 123.64 339.329 123.64C338.503 123.64 337.876 123.873 337.449 124.34C337.023 124.793 336.809 125.36 336.809 126.04C336.809 126.733 337.056 127.307 337.549 127.76C338.043 128.213 338.689 128.44 339.489 128.44C339.903 128.44 340.263 128.38 340.569 128.26C340.876 128.127 341.129 127.953 341.329 127.74C341.543 127.527 341.703 127.28 341.809 127C341.916 126.72 341.969 126.427 341.969 126.12ZM344.209 123.64C343.903 123.64 343.603 123.667 343.309 123.72C343.029 123.76 342.796 123.827 342.609 123.92C342.756 124.107 342.909 124.387 343.069 124.76C343.243 125.133 343.329 125.56 343.329 126.04C343.329 126.56 343.229 127.04 343.029 127.48C342.829 127.92 342.556 128.307 342.209 128.64C341.876 128.96 341.476 129.213 341.009 129.4C340.543 129.587 340.049 129.68 339.529 129.68C339.103 129.68 338.756 129.653 338.489 129.6C338.236 129.547 337.969 129.48 337.689 129.4C337.143 129.56 336.869 129.88 336.869 130.36C336.869 130.6 336.943 130.787 337.089 130.92C337.249 131.053 337.463 131.12 337.729 131.12C338.956 131.12 339.983 131.18 340.809 131.3C341.649 131.407 342.323 131.58 342.829 131.82C343.336 132.06 343.696 132.367 343.909 132.74C344.123 133.1 344.229 133.533 344.229 134.04C344.229 134.427 344.129 134.787 343.929 135.12C343.743 135.453 343.456 135.747 343.069 136C342.683 136.267 342.189 136.473 341.589 136.62C341.003 136.767 340.303 136.84 339.489 136.84C338.023 136.84 336.909 136.633 336.149 136.22C335.389 135.82 335.009 135.187 335.009 134.32C335.009 133.8 335.163 133.387 335.469 133.08C335.776 132.787 336.209 132.493 336.769 132.2C336.369 132.08 336.049 131.88 335.809 131.6C335.583 131.32 335.469 131.027 335.469 130.72C335.469 130.267 335.603 129.92 335.869 129.68C336.136 129.44 336.469 129.193 336.869 128.94C336.376 128.567 336.016 128.133 335.789 127.64C335.563 127.147 335.449 126.613 335.449 126.04C335.449 125.493 335.549 125 335.749 124.56C335.949 124.107 336.223 123.72 336.569 123.4C336.929 123.08 337.349 122.833 337.829 122.66C338.309 122.487 338.829 122.4 339.389 122.4C339.949 122.4 340.429 122.46 340.829 122.58C341.243 122.7 341.623 122.88 341.969 123.12C342.276 122.893 342.629 122.693 343.029 122.52C343.429 122.347 343.823 122.24 344.209 122.2V123.64ZM352.169 126.84C352.169 125.88 351.949 125.107 351.509 124.52C351.083 123.933 350.476 123.64 349.689 123.64C348.809 123.64 348.136 123.933 347.669 124.52C347.216 125.107 346.956 125.88 346.889 126.84H352.169ZM353.929 130.78C353.756 131.073 353.563 131.367 353.349 131.66C353.136 131.94 352.869 132.2 352.549 132.44C352.243 132.667 351.876 132.853 351.449 133C351.023 133.133 350.516 133.2 349.929 133.2C349.343 133.2 348.776 133.1 348.229 132.9C347.696 132.687 347.216 132.36 346.789 131.92C346.376 131.48 346.043 130.92 345.789 130.24C345.536 129.56 345.409 128.747 345.409 127.8C345.409 126.96 345.509 126.207 345.709 125.54C345.909 124.873 346.196 124.307 346.569 123.84C346.943 123.373 347.389 123.02 347.909 122.78C348.429 122.527 349.009 122.4 349.649 122.4C350.183 122.4 350.689 122.493 351.169 122.68C351.649 122.853 352.069 123.133 352.429 123.52C352.789 123.893 353.076 124.38 353.289 124.98C353.503 125.58 353.609 126.293 353.609 127.12V128.08H346.849C346.849 128.653 346.929 129.18 347.089 129.66C347.249 130.127 347.469 130.533 347.749 130.88C348.029 131.213 348.356 131.48 348.729 131.68C349.103 131.867 349.503 131.96 349.929 131.96C350.569 131.96 351.129 131.807 351.609 131.5C352.103 131.18 352.503 130.747 352.809 130.2L353.929 130.78Z" fill="#ABABAB"/>
</svg>
