<svg width="251" height="80" viewBox="0 0 251 80" fill="none" xmlns="http://www.w3.org/2000/svg">
<path d="M85.88 20.888H91.736V23.864C92.728 22.968 93.736 22.168 94.76 21.464C95.784 20.76 96.936 20.408 98.216 20.408C99.336 20.408 100.296 20.76 101.096 21.464C101.896 22.168 102.472 23.128 102.824 24.344C103.752 23.32 104.728 22.408 105.752 21.608C106.776 20.808 107.944 20.408 109.256 20.408C111.08 20.408 112.456 20.968 113.384 22.088C114.312 23.208 114.776 24.952 114.776 27.32V47H108.728V27.128C108.728 26.264 108.584 25.688 108.296 25.4C108.008 25.08 107.624 24.92 107.144 24.92C106.856 24.92 106.536 25 106.184 25.16C105.832 25.288 105.464 25.48 105.08 25.736C104.728 25.96 104.392 26.216 104.072 26.504C103.784 26.76 103.544 27.016 103.352 27.272V47H97.304V27.128C97.304 26.264 97.144 25.688 96.824 25.4C96.536 25.08 96.152 24.92 95.672 24.92C95.352 24.92 95 25 94.616 25.16C94.264 25.288 93.912 25.48 93.56 25.736C93.24 25.96 92.936 26.216 92.648 26.504C92.36 26.76 92.12 27.016 91.928 27.272V47H85.88L85.88 20.888ZM132.473 34.232C131.577 34.552 130.697 34.92 129.833 35.336C128.969 35.72 128.185 36.168 127.481 36.68C126.809 37.192 126.265 37.752 125.849 38.36C125.433 38.936 125.225 39.56 125.225 40.232C125.225 41.096 125.465 41.768 125.945 42.248C126.425 42.728 127.081 42.968 127.913 42.968C128.841 42.968 129.641 42.76 130.313 42.344C131.017 41.896 131.737 41.304 132.473 40.568V34.232ZM119.945 28.52C120.041 27.08 120.377 25.848 120.953 24.824C121.529 23.768 122.249 22.92 123.113 22.28C124.009 21.64 125.017 21.176 126.137 20.888C127.257 20.568 128.425 20.408 129.641 20.408C131.241 20.408 132.601 20.6 133.721 20.984C134.873 21.368 135.801 21.912 136.505 22.616C137.209 23.32 137.721 24.168 138.041 25.16C138.361 26.12 138.521 27.176 138.521 28.328V44.888C138.521 45.24 138.553 45.592 138.617 45.944C138.681 46.296 138.761 46.648 138.857 47H132.809C132.745 46.648 132.681 46.28 132.617 45.896C132.553 45.48 132.473 45 132.377 44.456C131.481 45.352 130.441 46.088 129.257 46.664C128.073 47.208 126.713 47.48 125.177 47.48C123.353 47.48 121.897 46.968 120.809 45.944C119.721 44.92 119.177 43.352 119.177 41.24C119.177 39.736 119.513 38.424 120.185 37.304C120.857 36.184 121.785 35.208 122.969 34.376C124.185 33.544 125.593 32.808 127.193 32.168C128.825 31.528 130.585 30.92 132.473 30.344V28.424C132.473 27.304 132.169 26.504 131.561 26.024C130.953 25.544 130.217 25.304 129.353 25.304C128.425 25.304 127.625 25.608 126.953 26.216C126.313 26.824 125.993 27.592 125.993 28.52H119.945ZM150.569 41.096C151.721 42.344 152.937 42.968 154.217 42.968C154.633 42.968 155.017 42.888 155.369 42.728C155.721 42.568 156.025 42.264 156.281 41.816C156.569 41.336 156.793 40.696 156.953 39.896C157.113 39.096 157.193 38.04 157.193 36.728V31.16C157.193 29.88 157.113 28.84 156.953 28.04C156.793 27.208 156.569 26.568 156.281 26.12C156.025 25.64 155.721 25.32 155.369 25.16C155.017 25 154.633 24.92 154.217 24.92C152.937 24.92 151.721 25.544 150.569 26.792V41.096ZM150.089 20.888V24.056H150.185C150.441 23.64 150.793 23.224 151.241 22.808C151.689 22.36 152.201 21.96 152.777 21.608C153.353 21.256 153.961 20.968 154.601 20.744C155.273 20.52 155.945 20.408 156.617 20.408C158.985 20.408 160.681 21.288 161.705 23.048C162.729 24.808 163.241 27.384 163.241 30.776V37.112C163.241 40.504 162.729 43.08 161.705 44.84C160.681 46.6 158.985 47.48 156.617 47.48C155.785 47.48 154.921 47.272 154.025 46.856C153.161 46.408 152.009 45.656 150.569 44.6V56.216L144.521 56.216V20.888H150.089ZM174.569 41.096C175.721 42.344 176.937 42.968 178.217 42.968C178.633 42.968 179.017 42.888 179.369 42.728C179.721 42.568 180.025 42.264 180.281 41.816C180.569 41.336 180.793 40.696 180.953 39.896C181.113 39.096 181.193 38.04 181.193 36.728V31.16C181.193 29.88 181.113 28.84 180.953 28.04C180.793 27.208 180.569 26.568 180.281 26.12C180.025 25.64 179.721 25.32 179.369 25.16C179.017 25 178.633 24.92 178.217 24.92C176.937 24.92 175.721 25.544 174.569 26.792V41.096ZM174.089 20.888V24.056H174.185C174.441 23.64 174.793 23.224 175.241 22.808C175.689 22.36 176.201 21.96 176.777 21.608C177.353 21.256 177.961 20.968 178.601 20.744C179.273 20.52 179.945 20.408 180.617 20.408C182.985 20.408 184.681 21.288 185.705 23.048C186.729 24.808 187.241 27.384 187.241 30.776V37.112C187.241 40.504 186.729 43.08 185.705 44.84C184.681 46.6 182.985 47.48 180.617 47.48C179.785 47.48 178.921 47.272 178.025 46.856C177.161 46.408 176.009 45.656 174.569 44.6V56.216H168.521V20.888H174.089ZM193.289 16.376V10.904L199.337 10.904V16.376H193.289ZM199.337 20.888V47L193.289 47V20.888H199.337ZM205.88 47V20.888H211.736V23.864C212.856 22.904 213.944 22.088 215 21.416C216.088 20.744 217.256 20.408 218.504 20.408C220.36 20.408 221.752 20.92 222.68 21.944C223.64 22.968 224.12 24.696 224.12 27.128V47H218.072V27.8C218.072 26.936 217.912 26.248 217.592 25.736C217.272 25.192 216.696 24.92 215.864 24.92C215.224 24.92 214.568 25.176 213.896 25.688C213.224 26.168 212.568 26.696 211.928 27.272V47H205.88ZM235.064 48.152C234.744 48.472 234.456 48.776 234.2 49.064C233.944 49.384 233.816 49.784 233.816 50.264C233.816 50.936 234.28 51.416 235.208 51.704C236.168 52.024 237.544 52.184 239.336 52.184C240.776 52.184 241.896 52.008 242.696 51.656C243.496 51.304 243.896 50.792 243.896 50.12C243.896 49.672 243.752 49.336 243.464 49.112C243.208 48.92 242.616 48.792 241.688 48.728L235.064 48.152ZM241.016 30.344C241.016 26.984 239.96 25.304 237.848 25.304C236.696 25.304 235.88 25.736 235.4 26.6C234.92 27.464 234.68 28.92 234.68 30.968C234.68 32.6 234.92 33.832 235.4 34.664C235.912 35.464 236.632 35.864 237.56 35.864C238.2 35.864 238.744 35.8 239.192 35.672C239.64 35.512 239.992 35.224 240.248 34.808C240.536 34.392 240.728 33.832 240.824 33.128C240.952 32.424 241.016 31.496 241.016 30.344ZM249.944 25.688C249.688 25.624 249.368 25.544 248.984 25.448C248.632 25.352 248.328 25.304 248.072 25.304C247.752 25.304 247.432 25.368 247.112 25.496C246.792 25.624 246.424 25.752 246.008 25.88C246.2 26.744 246.376 27.528 246.536 28.232C246.696 28.936 246.776 29.688 246.776 30.488C246.776 33.784 246.072 36.328 244.664 38.12C243.256 39.88 241.048 40.76 238.04 40.76C237.592 40.76 237.176 40.744 236.792 40.712C236.408 40.68 235.992 40.584 235.544 40.424C235.384 40.68 235.16 40.92 234.872 41.144C234.616 41.368 234.488 41.64 234.488 41.96C234.488 42.504 234.856 42.856 235.592 43.016C236.36 43.176 237.304 43.272 238.424 43.304C239.544 43.336 240.76 43.4 242.072 43.496C243.384 43.56 244.6 43.784 245.72 44.168C246.84 44.552 247.768 45.176 248.504 46.04C249.272 46.872 249.656 48.072 249.656 49.64C249.656 50.76 249.368 51.72 248.792 52.52C248.248 53.352 247.464 54.04 246.44 54.584C245.448 55.128 244.232 55.528 242.792 55.784C241.384 56.072 239.8 56.216 238.04 56.216C234.808 56.216 232.328 55.784 230.6 54.92C228.904 54.088 228.056 52.936 228.056 51.464C228.056 50.984 228.168 50.536 228.392 50.12C228.648 49.736 228.952 49.368 229.304 49.016C229.688 48.696 230.088 48.392 230.504 48.104C230.952 47.848 231.352 47.608 231.704 47.384C230.968 46.936 230.36 46.424 229.88 45.848C229.432 45.24 229.208 44.52 229.208 43.688C229.208 43.176 229.32 42.712 229.544 42.296C229.8 41.848 230.104 41.448 230.456 41.096C230.84 40.712 231.24 40.376 231.656 40.088C232.072 39.8 232.472 39.544 232.856 39.32C231.384 38.36 230.36 37.16 229.784 35.72C229.208 34.28 228.92 32.456 228.92 30.248C228.92 28.84 229.064 27.544 229.352 26.36C229.64 25.144 230.136 24.104 230.84 23.24C231.544 22.344 232.456 21.656 233.576 21.176C234.728 20.664 236.152 20.408 237.848 20.408C239.096 20.408 240.344 20.68 241.592 21.224C242.872 21.768 243.896 22.504 244.664 23.432C245.432 22.472 246.216 21.736 247.016 21.224C247.848 20.68 248.824 20.408 249.944 20.408V25.688Z" fill="white"/>
<path d="M84.32 64.6H85.78L87.88 72.6H87.92L89.96 64.6H91.42L93.5 72.64H93.54L95.56 64.6H97.02L94.24 75H92.78L90.7 66.96H90.66L88.6 75H87.14L84.32 64.6ZM100.56 60.56V66H100.6C101.013 65.5333 101.48 65.1533 102 64.86C102.52 64.5533 103.08 64.4 103.68 64.4C104.067 64.4 104.44 64.4533 104.8 64.56C105.16 64.6667 105.48 64.84 105.76 65.08C106.04 65.32 106.26 65.6333 106.42 66.02C106.593 66.4067 106.68 66.88 106.68 67.44V75H105.24V67.48C105.24 66.7867 105.087 66.3067 104.78 66.04C104.473 65.7733 104.06 65.64 103.54 65.64C103.273 65.64 102.993 65.6933 102.7 65.8C102.42 65.8933 102.147 66.02 101.88 66.18C101.627 66.3267 101.38 66.4933 101.14 66.68C100.913 66.8667 100.72 67.0467 100.56 67.22V75H99.1198V60.56H100.56ZM115.653 69.38C112.373 69.9533 110.733 70.9467 110.733 72.36C110.733 72.6 110.786 72.82 110.893 73.02C111 73.22 111.133 73.3933 111.293 73.54C111.453 73.6733 111.633 73.78 111.833 73.86C112.046 73.9267 112.253 73.96 112.453 73.96C112.706 73.96 112.98 73.92 113.273 73.84C113.566 73.7467 113.853 73.62 114.133 73.46C114.413 73.3 114.68 73.12 114.933 72.92C115.2 72.7067 115.44 72.48 115.653 72.24V69.38ZM109.593 66.6C109.926 66 110.413 65.4867 111.053 65.06C111.693 64.62 112.506 64.4 113.493 64.4C113.933 64.4 114.366 64.46 114.793 64.58C115.22 64.6867 115.6 64.8667 115.933 65.12C116.28 65.36 116.56 65.68 116.773 66.08C116.986 66.4667 117.093 66.9467 117.093 67.52V72.76C117.093 73.3333 117.113 73.7867 117.153 74.12C117.206 74.44 117.266 74.7333 117.333 75H115.853L115.693 73.56C115.333 73.96 114.866 74.3333 114.293 74.68C113.72 75.0267 113.04 75.2 112.253 75.2C111.853 75.2 111.473 75.14 111.113 75.02C110.753 74.9 110.44 74.72 110.173 74.48C109.906 74.24 109.693 73.9467 109.533 73.6C109.373 73.24 109.293 72.82 109.293 72.34C109.293 71.7667 109.406 71.2667 109.633 70.84C109.86 70.4 110.226 70.0133 110.733 69.68C111.24 69.3333 111.893 69.0333 112.693 68.78C113.506 68.5267 114.493 68.3 115.653 68.1V67.54C115.653 66.8467 115.453 66.36 115.053 66.08C114.653 65.7867 114.14 65.64 113.513 65.64C113.113 65.64 112.76 65.6933 112.453 65.8C112.16 65.8933 111.906 66.02 111.693 66.18C111.48 66.34 111.3 66.52 111.153 66.72C111.02 66.9067 110.92 67.0867 110.853 67.26L109.593 66.6ZM120.513 64.6V61.18H121.953V64.6H124.353V65.84H121.953V73.24C121.953 73.48 122.04 73.66 122.213 73.78C122.4 73.9 122.706 73.96 123.133 73.96C123.373 73.96 123.6 73.9533 123.813 73.94C124.026 73.9133 124.226 73.8867 124.413 73.86V75.04C124.28 75.08 124.073 75.1133 123.793 75.14C123.513 75.18 123.16 75.2 122.733 75.2C121.946 75.2 121.38 75.08 121.033 74.84C120.686 74.6 120.513 74.1467 120.513 73.48V65.84H118.813V64.6H120.513ZM134.707 60.56V75H133.267V60.56H134.707ZM140.273 60.36V62.08H138.833V60.36H140.273ZM138.833 64.6H140.273V75L138.833 75V64.6ZM149.9 68.84C149.9 67.88 149.68 67.1067 149.24 66.52C148.813 65.9333 148.207 65.64 147.42 65.64C146.54 65.64 145.867 65.9333 145.4 66.52C144.947 67.1067 144.687 67.88 144.62 68.84H149.9ZM151.66 72.78C151.487 73.0733 151.293 73.3667 151.08 73.66C150.867 73.94 150.6 74.2 150.28 74.44C149.973 74.6667 149.607 74.8533 149.18 75C148.753 75.1333 148.247 75.2 147.66 75.2C147.073 75.2 146.507 75.1 145.96 74.9C145.427 74.6867 144.947 74.36 144.52 73.92C144.107 73.48 143.773 72.92 143.52 72.24C143.267 71.56 143.14 70.7467 143.14 69.8C143.14 68.96 143.24 68.2067 143.44 67.54C143.64 66.8733 143.927 66.3067 144.3 65.84C144.673 65.3733 145.12 65.02 145.64 64.78C146.16 64.5267 146.74 64.4 147.38 64.4C147.913 64.4 148.42 64.4933 148.9 64.68C149.38 64.8533 149.8 65.1333 150.16 65.52C150.52 65.8933 150.807 66.38 151.02 66.98C151.233 67.58 151.34 68.2933 151.34 69.12V70.08H144.58C144.58 70.6533 144.66 71.18 144.82 71.66C144.98 72.1267 145.2 72.5333 145.48 72.88C145.76 73.2133 146.087 73.48 146.46 73.68C146.833 73.8667 147.233 73.96 147.66 73.96C148.3 73.96 148.86 73.8067 149.34 73.5C149.833 73.18 150.233 72.7467 150.54 72.2L151.66 72.78ZM153.96 72.36C154.307 72.8533 154.727 73.2467 155.22 73.54C155.713 73.82 156.287 73.96 156.94 73.96C157.713 73.96 158.28 73.7867 158.64 73.44C159 73.08 159.18 72.68 159.18 72.24C159.18 71.8 159.027 71.46 158.72 71.22C158.413 70.9667 158.033 70.76 157.58 70.6C157.127 70.44 156.633 70.2933 156.1 70.16C155.58 70.0133 155.093 69.8267 154.64 69.6C154.2 69.3733 153.833 69.08 153.54 68.72C153.247 68.3467 153.113 67.84 153.14 67.2C153.167 66.2933 153.493 65.6 154.12 65.12C154.76 64.6267 155.58 64.3867 156.58 64.4C156.913 64.4 157.253 64.4467 157.6 64.54C157.96 64.6333 158.293 64.76 158.6 64.92C158.92 65.08 159.213 65.2733 159.48 65.5C159.747 65.7133 159.967 65.9533 160.14 66.22L159.14 67.1C158.74 66.6067 158.333 66.24 157.92 66C157.507 65.76 157.02 65.64 156.46 65.64C155.847 65.64 155.38 65.78 155.06 66.06C154.74 66.34 154.58 66.7133 154.58 67.18C154.58 67.5533 154.727 67.8467 155.02 68.06C155.327 68.2733 155.7 68.46 156.14 68.62C156.593 68.7667 157.08 68.9133 157.6 69.06C158.12 69.2067 158.6 69.4067 159.04 69.66C159.493 69.9 159.867 70.22 160.16 70.62C160.467 71.0067 160.62 71.52 160.62 72.16C160.62 72.6667 160.52 73.1133 160.32 73.5C160.12 73.8733 159.847 74.1867 159.5 74.44C159.167 74.6933 158.78 74.88 158.34 75C157.9 75.1333 157.447 75.2 156.98 75.2C156.167 75.2 155.387 75.0333 154.64 74.7C153.907 74.3533 153.3 73.86 152.82 73.22L153.96 72.36ZM170.52 72.56C171.027 73.0667 171.474 73.4267 171.86 73.64C172.247 73.8533 172.674 73.96 173.14 73.96C174.047 73.96 174.76 73.6133 175.28 72.92C175.814 72.2267 176.08 71.2133 176.08 69.88C176.08 69.0933 176.007 68.4333 175.86 67.9C175.714 67.3533 175.507 66.9133 175.24 66.58C174.974 66.2467 174.66 66.0067 174.3 65.86C173.94 65.7133 173.554 65.64 173.14 65.64C172.714 65.64 172.267 65.7733 171.8 66.04C171.334 66.3067 170.907 66.6533 170.52 67.08V72.56ZM170.52 60.56V65.6L170.6 65.56C171 65.2267 171.434 64.9533 171.9 64.74C172.367 64.5133 172.847 64.4 173.34 64.4C173.78 64.4 174.247 64.4933 174.74 64.68C175.234 64.8667 175.68 65.1733 176.08 65.6C176.494 66.0133 176.834 66.5667 177.1 67.26C177.38 67.94 177.52 68.7867 177.52 69.8C177.52 70.84 177.38 71.7067 177.1 72.4C176.834 73.0933 176.494 73.6467 176.08 74.06C175.667 74.4733 175.207 74.7667 174.7 74.94C174.194 75.1133 173.714 75.2 173.26 75.2C172.634 75.2 172.08 75.08 171.6 74.84C171.134 74.6 170.687 74.2867 170.26 73.9L170 75H169C169.067 74.6133 169.094 74.2333 169.08 73.86C169.08 73.4867 169.08 73.1067 169.08 72.72V60.56H170.52ZM185.994 68.84C185.994 67.88 185.774 67.1067 185.334 66.52C184.907 65.9333 184.3 65.64 183.514 65.64C182.634 65.64 181.96 65.9333 181.494 66.52C181.04 67.1067 180.78 67.88 180.714 68.84H185.994ZM187.754 72.78C187.58 73.0733 187.387 73.3667 187.174 73.66C186.96 73.94 186.694 74.2 186.374 74.44C186.067 74.6667 185.7 74.8533 185.274 75C184.847 75.1333 184.34 75.2 183.754 75.2C183.167 75.2 182.6 75.1 182.054 74.9C181.52 74.6867 181.04 74.36 180.614 73.92C180.2 73.48 179.867 72.92 179.614 72.24C179.36 71.56 179.234 70.7467 179.234 69.8C179.234 68.96 179.334 68.2067 179.534 67.54C179.734 66.8733 180.02 66.3067 180.394 65.84C180.767 65.3733 181.214 65.02 181.734 64.78C182.254 64.5267 182.834 64.4 183.474 64.4C184.007 64.4 184.514 64.4933 184.994 64.68C185.474 64.8533 185.894 65.1333 186.254 65.52C186.614 65.8933 186.9 66.38 187.114 66.98C187.327 67.58 187.434 68.2933 187.434 69.12V70.08H180.674C180.674 70.6533 180.754 71.18 180.914 71.66C181.074 72.1267 181.294 72.5333 181.574 72.88C181.854 73.2133 182.18 73.48 182.554 73.68C182.927 73.8667 183.327 73.96 183.754 73.96C184.394 73.96 184.954 73.8067 185.434 73.5C185.927 73.18 186.327 72.7467 186.634 72.2L187.754 72.78ZM191.654 64.6V66H191.694C192.107 65.5333 192.574 65.1533 193.094 64.86C193.614 64.5533 194.174 64.4 194.774 64.4C195.16 64.4 195.534 64.4533 195.894 64.56C196.254 64.6667 196.574 64.84 196.854 65.08C197.134 65.32 197.354 65.6333 197.514 66.02C197.687 66.4067 197.774 66.88 197.774 67.44V75H196.334V67.48C196.334 66.7867 196.18 66.3067 195.874 66.04C195.567 65.7733 195.154 65.64 194.634 65.64C194.367 65.64 194.087 65.6933 193.794 65.8C193.514 65.8933 193.24 66.02 192.974 66.18C192.72 66.3267 192.474 66.4933 192.234 66.68C192.007 66.8667 191.814 67.0467 191.654 67.22V75H190.214V64.6H191.654ZM207.107 68.84C207.107 67.88 206.887 67.1067 206.447 66.52C206.02 65.9333 205.414 65.64 204.627 65.64C203.747 65.64 203.074 65.9333 202.607 66.52C202.154 67.1067 201.894 67.88 201.827 68.84H207.107ZM208.867 72.78C208.694 73.0733 208.5 73.3667 208.287 73.66C208.074 73.94 207.807 74.2 207.487 74.44C207.18 74.6667 206.814 74.8533 206.387 75C205.96 75.1333 205.454 75.2 204.867 75.2C204.28 75.2 203.714 75.1 203.167 74.9C202.634 74.6867 202.154 74.36 201.727 73.92C201.314 73.48 200.98 72.92 200.727 72.24C200.474 71.56 200.347 70.7467 200.347 69.8C200.347 68.96 200.447 68.2067 200.647 67.54C200.847 66.8733 201.134 66.3067 201.507 65.84C201.88 65.3733 202.327 65.02 202.847 64.78C203.367 64.5267 203.947 64.4 204.587 64.4C205.12 64.4 205.627 64.4933 206.107 64.68C206.587 64.8533 207.007 65.1333 207.367 65.52C207.727 65.8933 208.014 66.38 208.227 66.98C208.44 67.58 208.547 68.2933 208.547 69.12V70.08H201.787C201.787 70.6533 201.867 71.18 202.027 71.66C202.187 72.1267 202.407 72.5333 202.687 72.88C202.967 73.2133 203.294 73.48 203.667 73.68C204.04 73.8667 204.44 73.96 204.867 73.96C205.507 73.96 206.067 73.8067 206.547 73.5C207.04 73.18 207.44 72.7467 207.747 72.2L208.867 72.78ZM216.747 69.38C213.467 69.9533 211.827 70.9467 211.827 72.36C211.827 72.6 211.88 72.82 211.987 73.02C212.094 73.22 212.227 73.3933 212.387 73.54C212.547 73.6733 212.727 73.78 212.927 73.86C213.14 73.9267 213.347 73.96 213.547 73.96C213.8 73.96 214.074 73.92 214.367 73.84C214.66 73.7467 214.947 73.62 215.227 73.46C215.507 73.3 215.774 73.12 216.027 72.92C216.294 72.7067 216.534 72.48 216.747 72.24V69.38ZM210.687 66.6C211.02 66 211.507 65.4867 212.147 65.06C212.787 64.62 213.6 64.4 214.587 64.4C215.027 64.4 215.46 64.46 215.887 64.58C216.314 64.6867 216.694 64.8667 217.027 65.12C217.374 65.36 217.654 65.68 217.867 66.08C218.08 66.4667 218.187 66.9467 218.187 67.52V72.76C218.187 73.3333 218.207 73.7867 218.247 74.12C218.3 74.44 218.36 74.7333 218.427 75H216.947L216.787 73.56C216.427 73.96 215.96 74.3333 215.387 74.68C214.814 75.0267 214.134 75.2 213.347 75.2C212.947 75.2 212.567 75.14 212.207 75.02C211.847 74.9 211.534 74.72 211.267 74.48C211 74.24 210.787 73.9467 210.627 73.6C210.467 73.24 210.387 72.82 210.387 72.34C210.387 71.7667 210.5 71.2667 210.727 70.84C210.954 70.4 211.32 70.0133 211.827 69.68C212.334 69.3333 212.987 69.0333 213.787 68.78C214.6 68.5267 215.587 68.3 216.747 68.1V67.54C216.747 66.8467 216.547 66.36 216.147 66.08C215.747 65.7867 215.234 65.64 214.607 65.64C214.207 65.64 213.854 65.6933 213.547 65.8C213.254 65.8933 213 66.02 212.787 66.18C212.574 66.34 212.394 66.52 212.247 66.72C212.114 66.9067 212.014 67.0867 211.947 67.26L210.687 66.6ZM221.607 64.6V61.18H223.047V64.6H225.447V65.84H223.047V73.24C223.047 73.48 223.134 73.66 223.307 73.78C223.494 73.9 223.8 73.96 224.227 73.96C224.467 73.96 224.694 73.9533 224.907 73.94C225.12 73.9133 225.32 73.8867 225.507 73.86V75.04C225.374 75.08 225.167 75.1133 224.887 75.14C224.607 75.18 224.254 75.2 223.827 75.2C223.04 75.2 222.474 75.08 222.127 74.84C221.78 74.6 221.607 74.1467 221.607 73.48V65.84H219.907V64.6H221.607ZM229.427 60.56V66H229.467C229.88 65.5333 230.347 65.1533 230.867 64.86C231.387 64.5533 231.947 64.4 232.547 64.4C232.934 64.4 233.307 64.4533 233.667 64.56C234.027 64.6667 234.347 64.84 234.627 65.08C234.907 65.32 235.127 65.6333 235.287 66.02C235.46 66.4067 235.547 66.88 235.547 67.44V75H234.107V67.48C234.107 66.7867 233.954 66.3067 233.647 66.04C233.34 65.7733 232.927 65.64 232.407 65.64C232.14 65.64 231.86 65.6933 231.567 65.8C231.287 65.8933 231.014 66.02 230.747 66.18C230.494 66.3267 230.247 66.4933 230.007 66.68C229.78 66.8667 229.587 67.0467 229.427 67.22V75H227.987V60.56H229.427Z" fill="#ABABAB"/>
<path d="M20.9731 21.9248L32.8161 40.9299" stroke="white"/>
<path d="M53.0745 28.3413L32.8853 41.3646" stroke="white"/>
<path d="M41.7977 66.8374L32.9546 40.7227" stroke="white"/>
<path d="M41.7971 67.7354L6.1333 49.2295" stroke="white"/>
<path d="M20.7752 28.8502C24.5998 28.8502 27.7003 25.7497 27.7003 21.9251C27.7003 18.1005 24.5998 15 20.7752 15C16.9506 15 13.8501 18.1005 13.8501 21.9251C13.8501 25.7497 16.9506 28.8502 20.7752 28.8502Z" fill="white"/>
<path d="M53.075 35.2286C56.8996 35.2286 60.0001 32.1282 60.0001 28.3035C60.0001 24.4789 56.8996 21.3784 53.075 21.3784C49.2504 21.3784 46.1499 24.4789 46.1499 28.3035C46.1499 32.1282 49.2504 35.2286 53.075 35.2286Z" fill="white"/>
<path d="M32.8613 45.4702C35.3747 45.4702 37.4121 43.4328 37.4121 40.9194C37.4121 38.4061 35.3747 36.3687 32.8613 36.3687C30.348 36.3687 28.3105 38.4061 28.3105 40.9194C28.3105 43.4328 30.348 45.4702 32.8613 45.4702Z" fill="white"/>
<path d="M5.54009 55.7594C8.59979 55.7594 11.0802 53.279 11.0802 50.2193C11.0802 47.1596 8.59979 44.6792 5.54009 44.6792C2.48038 44.6792 0 47.1596 0 50.2193C0 53.279 2.48038 55.7594 5.54009 55.7594Z" fill="white"/>
<path d="M42.159 74.7462C45.9836 74.7462 49.0841 71.6457 49.0841 67.8211C49.0841 63.9965 45.9836 60.896 42.159 60.896C38.3344 60.896 35.2339 63.9965 35.2339 67.8211C35.2339 71.6457 38.3344 74.7462 42.159 74.7462Z" fill="white"/>
</svg>
