<svg width="263" height="77" viewBox="0 0 263 77" fill="none" xmlns="http://www.w3.org/2000/svg">
<path d="M86.88 47L86.88 20.888H92.736V23.864C93.856 22.904 94.944 22.088 96 21.416C97.088 20.744 98.256 20.408 99.504 20.408C101.36 20.408 102.752 20.92 103.68 21.944C104.64 22.968 105.12 24.696 105.12 27.128V47H99.072V27.8C99.072 26.936 98.912 26.248 98.592 25.736C98.272 25.192 97.696 24.92 96.864 24.92C96.224 24.92 95.568 25.176 94.896 25.688C94.224 26.168 93.568 26.696 92.928 27.272V47H86.88ZM122.832 34.232C121.936 34.552 121.056 34.92 120.192 35.336C119.328 35.72 118.544 36.168 117.84 36.68C117.168 37.192 116.624 37.752 116.208 38.36C115.792 38.936 115.584 39.56 115.584 40.232C115.584 41.096 115.824 41.768 116.304 42.248C116.784 42.728 117.44 42.968 118.272 42.968C119.2 42.968 120 42.76 120.672 42.344C121.376 41.896 122.096 41.304 122.832 40.568V34.232ZM110.304 28.52C110.4 27.08 110.736 25.848 111.312 24.824C111.888 23.768 112.608 22.92 113.472 22.28C114.368 21.64 115.376 21.176 116.496 20.888C117.616 20.568 118.784 20.408 120 20.408C121.6 20.408 122.96 20.6 124.08 20.984C125.232 21.368 126.16 21.912 126.864 22.616C127.568 23.32 128.08 24.168 128.4 25.16C128.72 26.12 128.88 27.176 128.88 28.328V44.888C128.88 45.24 128.912 45.592 128.976 45.944C129.04 46.296 129.12 46.648 129.216 47H123.168C123.104 46.648 123.04 46.28 122.976 45.896C122.912 45.48 122.832 45 122.736 44.456C121.84 45.352 120.8 46.088 119.616 46.664C118.432 47.208 117.072 47.48 115.536 47.48C113.712 47.48 112.256 46.968 111.168 45.944C110.08 44.92 109.536 43.352 109.536 41.24C109.536 39.736 109.872 38.424 110.544 37.304C111.216 36.184 112.144 35.208 113.328 34.376C114.544 33.544 115.952 32.808 117.552 32.168C119.184 31.528 120.944 30.92 122.832 30.344V28.424C122.832 27.304 122.528 26.504 121.92 26.024C121.312 25.544 120.576 25.304 119.712 25.304C118.784 25.304 117.984 25.608 117.312 26.216C116.672 26.824 116.352 27.592 116.352 28.52H110.304ZM134.88 47V20.888L140.784 20.888V24.344H140.88C141.584 23.032 142.416 22.056 143.376 21.416C144.336 20.744 145.584 20.408 147.12 20.408V26.936C146.608 26.776 146.08 26.632 145.536 26.504C144.992 26.344 144.448 26.264 143.904 26.264C142.912 26.264 142.16 26.568 141.648 27.176C141.168 27.784 140.928 28.44 140.928 29.144V47H134.88ZM150.864 47V20.888H156.768V24.344H156.864C157.568 23.032 158.4 22.056 159.36 21.416C160.32 20.744 161.568 20.408 163.104 20.408V26.936C162.592 26.776 162.064 26.632 161.52 26.504C160.976 26.344 160.432 26.264 159.888 26.264C158.896 26.264 158.144 26.568 157.632 27.176C157.152 27.784 156.912 28.44 156.912 29.144V47H150.864ZM178.801 34.232C177.905 34.552 177.025 34.92 176.161 35.336C175.297 35.72 174.513 36.168 173.809 36.68C173.137 37.192 172.593 37.752 172.177 38.36C171.761 38.936 171.553 39.56 171.553 40.232C171.553 41.096 171.793 41.768 172.273 42.248C172.753 42.728 173.409 42.968 174.241 42.968C175.169 42.968 175.969 42.76 176.641 42.344C177.345 41.896 178.065 41.304 178.801 40.568V34.232ZM166.273 28.52C166.369 27.08 166.705 25.848 167.281 24.824C167.857 23.768 168.577 22.92 169.441 22.28C170.337 21.64 171.345 21.176 172.465 20.888C173.585 20.568 174.753 20.408 175.969 20.408C177.569 20.408 178.929 20.6 180.049 20.984C181.201 21.368 182.129 21.912 182.833 22.616C183.537 23.32 184.049 24.168 184.369 25.16C184.689 26.12 184.849 27.176 184.849 28.328V44.888C184.849 45.24 184.881 45.592 184.945 45.944C185.009 46.296 185.089 46.648 185.185 47H179.137C179.073 46.648 179.009 46.28 178.945 45.896C178.881 45.48 178.801 45 178.705 44.456C177.809 45.352 176.769 46.088 175.585 46.664C174.401 47.208 173.041 47.48 171.505 47.48C169.681 47.48 168.225 46.968 167.137 45.944C166.049 44.92 165.505 43.352 165.505 41.24C165.505 39.736 165.841 38.424 166.513 37.304C167.185 36.184 168.113 35.208 169.297 34.376C170.513 33.544 171.921 32.808 173.521 32.168C175.153 31.528 176.913 30.92 178.801 30.344V28.424C178.801 27.304 178.497 26.504 177.889 26.024C177.281 25.544 176.545 25.304 175.681 25.304C174.753 25.304 173.953 25.608 173.281 26.216C172.641 26.824 172.321 27.592 172.321 28.52H166.273ZM188.257 26.936V22.04H190.657V14.936H196.705V22.04H200.593V26.936H196.705V40.28C196.705 40.92 196.945 41.4 197.425 41.72C197.937 42.04 198.609 42.2 199.441 42.2C199.665 42.2 199.873 42.2 200.065 42.2C200.257 42.2 200.449 42.184 200.641 42.152V47.24C200.065 47.336 199.489 47.4 198.913 47.432C198.337 47.464 197.761 47.48 197.185 47.48C195.201 47.48 193.617 47.096 192.433 46.328C191.249 45.528 190.657 44.184 190.657 42.296V26.936H188.257ZM204.976 16.376V10.904H211.024V16.376L204.976 16.376ZM211.024 20.888V47H204.976V20.888L211.024 20.888ZM217.568 47V20.888H223.424V23.864C224.544 22.904 225.632 22.088 226.688 21.416C227.776 20.744 228.944 20.408 230.192 20.408C232.048 20.408 233.44 20.92 234.368 21.944C235.328 22.968 235.808 24.696 235.808 27.128V47H229.76V27.8C229.76 26.936 229.6 26.248 229.28 25.736C228.96 25.192 228.384 24.92 227.552 24.92C226.912 24.92 226.256 25.176 225.584 25.688C224.912 26.168 224.256 26.696 223.616 27.272V47H217.568ZM246.752 48.152C246.432 48.472 246.144 48.776 245.888 49.064C245.632 49.384 245.504 49.784 245.504 50.264C245.504 50.936 245.968 51.416 246.896 51.704C247.856 52.024 249.232 52.184 251.023 52.184C252.464 52.184 253.584 52.008 254.384 51.656C255.184 51.304 255.584 50.792 255.584 50.12C255.584 49.672 255.44 49.336 255.152 49.112C254.896 48.92 254.304 48.792 253.376 48.728L246.752 48.152ZM252.704 30.344C252.704 26.984 251.648 25.304 249.536 25.304C248.384 25.304 247.568 25.736 247.088 26.6C246.608 27.464 246.368 28.92 246.368 30.968C246.368 32.6 246.608 33.832 247.088 34.664C247.6 35.464 248.32 35.864 249.248 35.864C249.888 35.864 250.432 35.8 250.88 35.672C251.328 35.512 251.68 35.224 251.936 34.808C252.224 34.392 252.416 33.832 252.512 33.128C252.64 32.424 252.704 31.496 252.704 30.344ZM261.632 25.688C261.376 25.624 261.056 25.544 260.672 25.448C260.32 25.352 260.016 25.304 259.76 25.304C259.44 25.304 259.12 25.368 258.8 25.496C258.48 25.624 258.112 25.752 257.696 25.88C257.888 26.744 258.064 27.528 258.224 28.232C258.384 28.936 258.464 29.688 258.464 30.488C258.464 33.784 257.76 36.328 256.352 38.12C254.944 39.88 252.736 40.76 249.728 40.76C249.28 40.76 248.864 40.744 248.48 40.712C248.096 40.68 247.68 40.584 247.232 40.424C247.072 40.68 246.848 40.92 246.56 41.144C246.304 41.368 246.176 41.64 246.176 41.96C246.176 42.504 246.544 42.856 247.28 43.016C248.048 43.176 248.992 43.272 250.112 43.304C251.232 43.336 252.448 43.4 253.76 43.496C255.072 43.56 256.288 43.784 257.408 44.168C258.528 44.552 259.456 45.176 260.192 46.04C260.96 46.872 261.344 48.072 261.344 49.64C261.344 50.76 261.056 51.72 260.48 52.52C259.936 53.352 259.152 54.04 258.128 54.584C257.136 55.128 255.92 55.528 254.48 55.784C253.072 56.072 251.488 56.216 249.728 56.216C246.496 56.216 244.016 55.784 242.288 54.92C240.592 54.088 239.744 52.936 239.744 51.464C239.744 50.984 239.856 50.536 240.08 50.12C240.336 49.736 240.64 49.368 240.992 49.016C241.376 48.696 241.776 48.392 242.192 48.104C242.64 47.848 243.04 47.608 243.392 47.384C242.656 46.936 242.048 46.424 241.568 45.848C241.12 45.24 240.896 44.52 240.896 43.688C240.896 43.176 241.008 42.712 241.232 42.296C241.488 41.848 241.792 41.448 242.144 41.096C242.528 40.712 242.928 40.376 243.344 40.088C243.76 39.8 244.16 39.544 244.544 39.32C243.072 38.36 242.048 37.16 241.472 35.72C240.896 34.28 240.608 32.456 240.608 30.248C240.608 28.84 240.752 27.544 241.04 26.36C241.328 25.144 241.824 24.104 242.528 23.24C243.232 22.344 244.144 21.656 245.264 21.176C246.416 20.664 247.84 20.408 249.536 20.408C250.784 20.408 252.032 20.68 253.28 21.224C254.56 21.768 255.584 22.504 256.352 23.432C257.12 22.472 257.904 21.736 258.704 21.224C259.536 20.68 260.512 20.408 261.632 20.408V25.688Z" fill="white"/>
<path d="M87.2 69.56C87.7067 70.0667 88.1533 70.4267 88.54 70.64C88.9267 70.8533 89.3533 70.96 89.82 70.96C90.7267 70.96 91.44 70.6133 91.96 69.92C92.4933 69.2267 92.76 68.2133 92.76 66.88C92.76 66.0933 92.6867 65.4333 92.54 64.9C92.3933 64.3533 92.1867 63.9133 91.92 63.58C91.6533 63.2467 91.34 63.0067 90.98 62.86C90.62 62.7133 90.2333 62.64 89.82 62.64C89.3933 62.64 88.9467 62.7733 88.48 63.04C88.0133 63.3067 87.5867 63.6533 87.2 64.08V69.56ZM87.2 57.56V62.6L87.28 62.56C87.68 62.2267 88.1133 61.9533 88.58 61.74C89.0467 61.5133 89.5267 61.4 90.02 61.4C90.46 61.4 90.9267 61.4933 91.42 61.68C91.9133 61.8667 92.36 62.1733 92.76 62.6C93.1733 63.0133 93.5133 63.5667 93.78 64.26C94.06 64.94 94.2 65.7867 94.2 66.8C94.2 67.84 94.06 68.7067 93.78 69.4C93.5133 70.0933 93.1733 70.6467 92.76 71.06C92.3467 71.4733 91.8867 71.7667 91.38 71.94C90.8733 72.1133 90.3933 72.2 89.94 72.2C89.3133 72.2 88.76 72.08 88.28 71.84C87.8133 71.6 87.3667 71.2867 86.94 70.9L86.68 72H85.68C85.7467 71.6133 85.7733 71.2333 85.76 70.86C85.76 70.4867 85.76 70.1067 85.76 69.72V57.56H87.2ZM96.5133 61.6H97.9533V63.66H97.9933C98.1933 63.3 98.3999 62.9867 98.6133 62.72C98.8266 62.44 99.0666 62.2067 99.3333 62.02C99.5999 61.8333 99.8999 61.6933 100.233 61.6C100.567 61.4933 100.947 61.44 101.373 61.44V62.88C100.467 62.9067 99.7533 63.2067 99.2333 63.78C98.7266 64.34 98.2999 65.16 97.9533 66.24V72H96.5133V61.6ZM109.333 65.84C109.333 64.88 109.113 64.1067 108.673 63.52C108.247 62.9333 107.64 62.64 106.853 62.64C105.973 62.64 105.3 62.9333 104.833 63.52C104.38 64.1067 104.12 64.88 104.053 65.84H109.333ZM111.093 69.78C110.92 70.0733 110.727 70.3667 110.513 70.66C110.3 70.94 110.033 71.2 109.713 71.44C109.407 71.6667 109.04 71.8533 108.613 72C108.187 72.1333 107.68 72.2 107.093 72.2C106.507 72.2 105.94 72.1 105.393 71.9C104.86 71.6867 104.38 71.36 103.953 70.92C103.54 70.48 103.207 69.92 102.953 69.24C102.7 68.56 102.573 67.7467 102.573 66.8C102.573 65.96 102.673 65.2067 102.873 64.54C103.073 63.8733 103.36 63.3067 103.733 62.84C104.107 62.3733 104.553 62.02 105.073 61.78C105.593 61.5267 106.173 61.4 106.813 61.4C107.347 61.4 107.853 61.4933 108.333 61.68C108.813 61.8533 109.233 62.1333 109.593 62.52C109.953 62.8933 110.24 63.38 110.453 63.98C110.667 64.58 110.773 65.2933 110.773 66.12V67.08H104.013C104.013 67.6533 104.093 68.18 104.253 68.66C104.413 69.1267 104.633 69.5333 104.913 69.88C105.193 70.2133 105.52 70.48 105.893 70.68C106.267 70.8667 106.667 70.96 107.093 70.96C107.733 70.96 108.293 70.8067 108.773 70.5C109.267 70.18 109.667 69.7467 109.973 69.2L111.093 69.78ZM118.973 66.38C115.693 66.9533 114.053 67.9467 114.053 69.36C114.053 69.6 114.107 69.82 114.213 70.02C114.32 70.22 114.453 70.3933 114.613 70.54C114.773 70.6733 114.953 70.78 115.153 70.86C115.367 70.9267 115.573 70.96 115.773 70.96C116.027 70.96 116.3 70.92 116.593 70.84C116.887 70.7467 117.173 70.62 117.453 70.46C117.733 70.3 118 70.12 118.253 69.92C118.52 69.7067 118.76 69.48 118.973 69.24V66.38ZM112.913 63.6C113.247 63 113.733 62.4867 114.373 62.06C115.013 61.62 115.827 61.4 116.813 61.4C117.253 61.4 117.687 61.46 118.113 61.58C118.54 61.6867 118.92 61.8667 119.253 62.12C119.6 62.36 119.88 62.68 120.093 63.08C120.307 63.4667 120.413 63.9467 120.413 64.52V69.76C120.413 70.3333 120.433 70.7867 120.473 71.12C120.527 71.44 120.587 71.7333 120.653 72H119.173L119.013 70.56C118.653 70.96 118.187 71.3333 117.613 71.68C117.04 72.0267 116.36 72.2 115.573 72.2C115.173 72.2 114.793 72.14 114.433 72.02C114.073 71.9 113.76 71.72 113.493 71.48C113.227 71.24 113.013 70.9467 112.853 70.6C112.693 70.24 112.613 69.82 112.613 69.34C112.613 68.7667 112.727 68.2667 112.953 67.84C113.18 67.4 113.547 67.0133 114.053 66.68C114.56 66.3333 115.213 66.0333 116.013 65.78C116.827 65.5267 117.813 65.3 118.973 65.1V64.54C118.973 63.8467 118.773 63.36 118.373 63.08C117.973 62.7867 117.46 62.64 116.833 62.64C116.433 62.64 116.08 62.6933 115.773 62.8C115.48 62.8933 115.227 63.02 115.013 63.18C114.8 63.34 114.62 63.52 114.473 63.72C114.34 63.9067 114.24 64.0867 114.173 64.26L112.913 63.6ZM123.453 57.56H124.893V66.86H124.933L129.133 61.6H130.873L127.813 65.44L131.273 72H129.573L126.813 66.68L124.893 68.88V72H123.453V57.56ZM135.273 57.36V59.08H133.833V57.36H135.273ZM133.833 61.6H135.273V72H133.833V61.6ZM140.56 61.6V63H140.6C141.013 62.5333 141.48 62.1533 142 61.86C142.52 61.5533 143.08 61.4 143.68 61.4C144.067 61.4 144.44 61.4533 144.8 61.56C145.16 61.6667 145.48 61.84 145.76 62.08C146.04 62.32 146.26 62.6333 146.42 63.02C146.593 63.4067 146.68 63.88 146.68 64.44V72H145.24V64.48C145.24 63.7867 145.087 63.3067 144.78 63.04C144.473 62.7733 144.06 62.64 143.54 62.64C143.273 62.64 142.993 62.6933 142.7 62.8C142.42 62.8933 142.147 63.02 141.88 63.18C141.627 63.3267 141.38 63.4933 141.14 63.68C140.913 63.8667 140.72 64.0467 140.56 64.22V72L139.12 72V61.6H140.56ZM156.713 73.1C156.7 72.5933 156.413 72.2133 155.853 71.96C155.306 71.6933 154.393 71.56 153.113 71.56C152.553 71.56 152.086 71.62 151.713 71.74C151.34 71.8467 151.04 71.98 150.813 72.14C150.6 72.3133 150.446 72.5 150.353 72.7C150.26 72.9133 150.213 73.1133 150.213 73.3C150.213 73.5 150.253 73.68 150.333 73.84C150.413 74 150.573 74.1333 150.813 74.24C151.053 74.36 151.393 74.4467 151.833 74.5C152.273 74.5667 152.853 74.6 153.573 74.6C154 74.6 154.4 74.5667 154.773 74.5C155.16 74.4467 155.493 74.3533 155.773 74.22C156.066 74.1 156.293 73.9467 156.453 73.76C156.626 73.5733 156.713 73.3533 156.713 73.1ZM155.813 65.12C155.813 64.36 155.593 63.76 155.153 63.32C154.713 62.8667 154.053 62.64 153.173 62.64C152.346 62.64 151.72 62.8733 151.293 63.34C150.866 63.7933 150.653 64.36 150.653 65.04C150.653 65.7333 150.9 66.3067 151.393 66.76C151.886 67.2133 152.533 67.44 153.333 67.44C153.746 67.44 154.106 67.38 154.413 67.26C154.72 67.1267 154.973 66.9533 155.173 66.74C155.386 66.5267 155.546 66.28 155.653 66C155.76 65.72 155.813 65.4267 155.813 65.12ZM158.053 62.64C157.746 62.64 157.446 62.6667 157.153 62.72C156.873 62.76 156.64 62.8267 156.453 62.92C156.6 63.1067 156.753 63.3867 156.913 63.76C157.086 64.1333 157.173 64.56 157.173 65.04C157.173 65.56 157.073 66.04 156.873 66.48C156.673 66.92 156.4 67.3067 156.053 67.64C155.72 67.96 155.32 68.2133 154.853 68.4C154.386 68.5867 153.893 68.68 153.373 68.68C152.946 68.68 152.6 68.6533 152.333 68.6C152.08 68.5467 151.813 68.48 151.533 68.4C150.986 68.56 150.713 68.88 150.713 69.36C150.713 69.6 150.786 69.7867 150.933 69.92C151.093 70.0533 151.306 70.12 151.573 70.12C152.8 70.12 153.826 70.18 154.653 70.3C155.493 70.4067 156.166 70.58 156.673 70.82C157.18 71.06 157.54 71.3667 157.753 71.74C157.966 72.1 158.073 72.5333 158.073 73.04C158.073 73.4267 157.973 73.7867 157.773 74.12C157.586 74.4533 157.3 74.7467 156.913 75C156.526 75.2667 156.033 75.4733 155.433 75.62C154.846 75.7667 154.146 75.84 153.333 75.84C151.866 75.84 150.753 75.6333 149.993 75.22C149.233 74.82 148.853 74.1867 148.853 73.32C148.853 72.8 149.006 72.3867 149.313 72.08C149.62 71.7867 150.053 71.4933 150.613 71.2C150.213 71.08 149.893 70.88 149.653 70.6C149.426 70.32 149.313 70.0267 149.313 69.72C149.313 69.2667 149.446 68.92 149.713 68.68C149.98 68.44 150.313 68.1933 150.713 67.94C150.22 67.5667 149.86 67.1333 149.633 66.64C149.406 66.1467 149.293 65.6133 149.293 65.04C149.293 64.4933 149.393 64 149.593 63.56C149.793 63.1067 150.066 62.72 150.413 62.4C150.773 62.08 151.193 61.8333 151.673 61.66C152.153 61.4867 152.673 61.4 153.233 61.4C153.793 61.4 154.273 61.46 154.673 61.58C155.086 61.7 155.466 61.88 155.813 62.12C156.12 61.8933 156.473 61.6933 156.873 61.52C157.273 61.3467 157.666 61.24 158.053 61.2V62.64ZM166.607 61.6V58.18H168.047V61.6H170.447V62.84H168.047V70.24C168.047 70.48 168.134 70.66 168.307 70.78C168.494 70.9 168.8 70.96 169.227 70.96C169.467 70.96 169.694 70.9533 169.907 70.94C170.12 70.9133 170.32 70.8867 170.507 70.86V72.04C170.374 72.08 170.167 72.1133 169.887 72.14C169.607 72.18 169.254 72.2 168.827 72.2C168.04 72.2 167.474 72.08 167.127 71.84C166.78 71.6 166.607 71.1467 166.607 70.48V62.84H164.907V61.6H166.607ZM174.427 57.56V63H174.467C174.88 62.5333 175.347 62.1533 175.867 61.86C176.387 61.5533 176.947 61.4 177.547 61.4C177.934 61.4 178.307 61.4533 178.667 61.56C179.027 61.6667 179.347 61.84 179.627 62.08C179.907 62.32 180.127 62.6333 180.287 63.02C180.46 63.4067 180.547 63.88 180.547 64.44V72H179.107V64.48C179.107 63.7867 178.954 63.3067 178.647 63.04C178.34 62.7733 177.927 62.64 177.407 62.64C177.14 62.64 176.86 62.6933 176.567 62.8C176.287 62.8933 176.014 63.02 175.747 63.18C175.494 63.3267 175.247 63.4933 175.007 63.68C174.78 63.8667 174.587 64.0467 174.427 64.22V72H172.987V57.56H174.427ZM189.88 65.84C189.88 64.88 189.66 64.1067 189.22 63.52C188.794 62.9333 188.187 62.64 187.4 62.64C186.52 62.64 185.847 62.9333 185.38 63.52C184.927 64.1067 184.667 64.88 184.6 65.84H189.88ZM191.64 69.78C191.467 70.0733 191.274 70.3667 191.06 70.66C190.847 70.94 190.58 71.2 190.26 71.44C189.954 71.6667 189.587 71.8533 189.16 72C188.734 72.1333 188.227 72.2 187.64 72.2C187.054 72.2 186.487 72.1 185.94 71.9C185.407 71.6867 184.927 71.36 184.5 70.92C184.087 70.48 183.754 69.92 183.5 69.24C183.247 68.56 183.12 67.7467 183.12 66.8C183.12 65.96 183.22 65.2067 183.42 64.54C183.62 63.8733 183.907 63.3067 184.28 62.84C184.654 62.3733 185.1 62.02 185.62 61.78C186.14 61.5267 186.72 61.4 187.36 61.4C187.894 61.4 188.4 61.4933 188.88 61.68C189.36 61.8533 189.78 62.1333 190.14 62.52C190.5 62.8933 190.787 63.38 191 63.98C191.214 64.58 191.32 65.2933 191.32 66.12V67.08H184.56C184.56 67.6533 184.64 68.18 184.8 68.66C184.96 69.1267 185.18 69.5333 185.46 69.88C185.74 70.2133 186.067 70.48 186.44 70.68C186.814 70.8667 187.214 70.96 187.64 70.96C188.28 70.96 188.84 70.8067 189.32 70.5C189.814 70.18 190.214 69.7467 190.52 69.2L191.64 69.78ZM200.034 69.36C200.381 69.8533 200.801 70.2467 201.294 70.54C201.787 70.82 202.361 70.96 203.014 70.96C203.787 70.96 204.354 70.7867 204.714 70.44C205.074 70.08 205.254 69.68 205.254 69.24C205.254 68.8 205.101 68.46 204.794 68.22C204.487 67.9667 204.107 67.76 203.654 67.6C203.201 67.44 202.707 67.2933 202.174 67.16C201.654 67.0133 201.167 66.8267 200.714 66.6C200.274 66.3733 199.907 66.08 199.614 65.72C199.321 65.3467 199.187 64.84 199.214 64.2C199.241 63.2933 199.567 62.6 200.194 62.12C200.834 61.6267 201.654 61.3867 202.654 61.4C202.987 61.4 203.327 61.4467 203.674 61.54C204.034 61.6333 204.367 61.76 204.674 61.92C204.994 62.08 205.287 62.2733 205.554 62.5C205.821 62.7133 206.041 62.9533 206.214 63.22L205.214 64.1C204.814 63.6067 204.407 63.24 203.994 63C203.581 62.76 203.094 62.64 202.534 62.64C201.921 62.64 201.454 62.78 201.134 63.06C200.814 63.34 200.654 63.7133 200.654 64.18C200.654 64.5533 200.801 64.8467 201.094 65.06C201.401 65.2733 201.774 65.46 202.214 65.62C202.667 65.7667 203.154 65.9133 203.674 66.06C204.194 66.2067 204.674 66.4067 205.114 66.66C205.567 66.9 205.941 67.22 206.234 67.62C206.541 68.0067 206.694 68.52 206.694 69.16C206.694 69.6667 206.594 70.1133 206.394 70.5C206.194 70.8733 205.921 71.1867 205.574 71.44C205.241 71.6933 204.854 71.88 204.414 72C203.974 72.1333 203.521 72.2 203.054 72.2C202.241 72.2 201.461 72.0333 200.714 71.7C199.981 71.3533 199.374 70.86 198.894 70.22L200.034 69.36ZM210.801 57.36V59.08H209.361V57.36H210.801ZM209.361 61.6H210.801V72H209.361V61.6ZM216.367 57.56V72H214.927V57.56H216.367ZM225.994 65.84C225.994 64.88 225.774 64.1067 225.334 63.52C224.907 62.9333 224.3 62.64 223.514 62.64C222.634 62.64 221.96 62.9333 221.494 63.52C221.04 64.1067 220.78 64.88 220.714 65.84H225.994ZM227.754 69.78C227.58 70.0733 227.387 70.3667 227.174 70.66C226.96 70.94 226.694 71.2 226.374 71.44C226.067 71.6667 225.7 71.8533 225.274 72C224.847 72.1333 224.34 72.2 223.754 72.2C223.167 72.2 222.6 72.1 222.054 71.9C221.52 71.6867 221.04 71.36 220.614 70.92C220.2 70.48 219.867 69.92 219.614 69.24C219.36 68.56 219.234 67.7467 219.234 66.8C219.234 65.96 219.334 65.2067 219.534 64.54C219.734 63.8733 220.02 63.3067 220.394 62.84C220.767 62.3733 221.214 62.02 221.734 61.78C222.254 61.5267 222.834 61.4 223.474 61.4C224.007 61.4 224.514 61.4933 224.994 61.68C225.474 61.8533 225.894 62.1333 226.254 62.52C226.614 62.8933 226.9 63.38 227.114 63.98C227.327 64.58 227.434 65.2933 227.434 66.12V67.08H220.674C220.674 67.6533 220.754 68.18 220.914 68.66C221.074 69.1267 221.294 69.5333 221.574 69.88C221.854 70.2133 222.18 70.48 222.554 70.68C222.927 70.8667 223.327 70.96 223.754 70.96C224.394 70.96 224.954 70.8067 225.434 70.5C225.927 70.18 226.327 69.7467 226.634 69.2L227.754 69.78ZM231.654 61.6V63H231.694C232.107 62.5333 232.574 62.1533 233.094 61.86C233.614 61.5533 234.174 61.4 234.774 61.4C235.16 61.4 235.534 61.4533 235.894 61.56C236.254 61.6667 236.574 61.84 236.854 62.08C237.134 62.32 237.354 62.6333 237.514 63.02C237.687 63.4067 237.774 63.88 237.774 64.44V72H236.334V64.48C236.334 63.7867 236.18 63.3067 235.874 63.04C235.567 62.7733 235.154 62.64 234.634 62.64C234.367 62.64 234.087 62.6933 233.794 62.8C233.514 62.8933 233.24 63.02 232.974 63.18C232.72 63.3267 232.474 63.4933 232.234 63.68C232.007 63.8667 231.814 64.0467 231.654 64.22V72H230.214V61.6H231.654ZM247.067 64.7C246.867 64.06 246.56 63.56 246.147 63.2C245.747 62.8267 245.234 62.64 244.607 62.64C243.714 62.64 243.02 63 242.527 63.72C242.034 64.44 241.787 65.4667 241.787 66.8C241.787 68.1333 242.034 69.16 242.527 69.88C243.02 70.6 243.714 70.96 244.607 70.96C244.94 70.96 245.234 70.9333 245.487 70.88C245.754 70.8133 246 70.7067 246.227 70.56C246.454 70.4133 246.667 70.22 246.867 69.98C247.067 69.7267 247.267 69.4133 247.467 69.04L248.627 69.56C248.36 70 248.1 70.3867 247.847 70.72C247.594 71.0533 247.307 71.3333 246.987 71.56C246.68 71.7733 246.334 71.9333 245.947 72.04C245.574 72.1467 245.127 72.2 244.607 72.2C243.954 72.2 243.36 72.08 242.827 71.84C242.307 71.5867 241.86 71.2267 241.487 70.76C241.127 70.2933 240.847 69.7267 240.647 69.06C240.447 68.3933 240.347 67.64 240.347 66.8C240.347 65.96 240.447 65.2067 240.647 64.54C240.847 63.8733 241.127 63.3067 241.487 62.84C241.86 62.3733 242.307 62.02 242.827 61.78C243.36 61.5267 243.954 61.4 244.607 61.4C245.14 61.4 245.607 61.4733 246.007 61.62C246.407 61.7533 246.754 61.9467 247.047 62.2C247.354 62.4533 247.614 62.7533 247.827 63.1C248.054 63.4467 248.247 63.82 248.407 64.22L247.067 64.7ZM257.107 65.84C257.107 64.88 256.887 64.1067 256.447 63.52C256.02 62.9333 255.414 62.64 254.627 62.64C253.747 62.64 253.074 62.9333 252.607 63.52C252.154 64.1067 251.894 64.88 251.827 65.84H257.107ZM258.867 69.78C258.694 70.0733 258.5 70.3667 258.287 70.66C258.074 70.94 257.807 71.2 257.487 71.44C257.18 71.6667 256.814 71.8533 256.387 72C255.96 72.1333 255.454 72.2 254.867 72.2C254.28 72.2 253.714 72.1 253.167 71.9C252.634 71.6867 252.154 71.36 251.727 70.92C251.314 70.48 250.98 69.92 250.727 69.24C250.474 68.56 250.347 67.7467 250.347 66.8C250.347 65.96 250.447 65.2067 250.647 64.54C250.847 63.8733 251.134 63.3067 251.507 62.84C251.88 62.3733 252.327 62.02 252.847 61.78C253.367 61.5267 253.947 61.4 254.587 61.4C255.12 61.4 255.627 61.4933 256.107 61.68C256.587 61.8533 257.007 62.1333 257.367 62.52C257.727 62.8933 258.014 63.38 258.227 63.98C258.44 64.58 258.547 65.2933 258.547 66.12V67.08H251.787C251.787 67.6533 251.867 68.18 252.027 68.66C252.187 69.1267 252.407 69.5333 252.687 69.88C252.967 70.2133 253.294 70.48 253.667 70.68C254.04 70.8667 254.44 70.96 254.867 70.96C255.507 70.96 256.067 70.8067 256.547 70.5C257.04 70.18 257.44 69.7467 257.747 69.2L258.867 69.78Z" fill="#ABABAB"/>
<path d="M16.4565 68.0422C7.34341 67.9271 0 62.0886 0 54.903C0 47.6452 7.48978 41.7622 16.7295 41.7622C25.9692 41.7622 33.459 47.6452 33.459 54.903C33.459 60.3271 29.275 64.9848 23.3032 66.9913C23.3032 66.9913 22.4036 68.3613 22.2819 69.8908C22.1602 71.4204 23.5861 72.2986 23.5861 72.2986C23.3624 72.2805 23.1387 72.2493 22.9167 72.2131C22.3888 72.1309 21.8658 72.0174 21.3526 71.8694C20.7326 71.6901 20.1208 71.4582 19.5599 71.1342C19.1981 70.9253 18.8807 70.6474 18.5567 70.3842C17.9169 69.8645 17.2739 69.2988 16.8199 68.6031C16.7607 68.5126 16.7081 68.4172 16.6538 68.3235C16.6242 68.2741 16.5946 68.2264 16.5634 68.1787C16.5486 68.1574 16.4811 68.0422 16.4565 68.0422Z" fill="white"/>
<path d="M46.4952 57.962C46.3539 57.9635 46.2587 58.0349 46.2367 58.0513L46.2363 58.0516C46.1997 58.0791 46.1722 58.1077 46.1564 58.1255C46.123 58.1623 46.0941 58.2025 46.0745 58.2311C46.0452 58.2733 46.003 58.3413 45.9947 58.3546C45.94 58.434 45.8916 58.5144 45.8507 58.5827L45.8479 58.5876L45.8464 58.5901L45.8449 58.5924C45.8207 58.634 45.7982 58.6735 45.7765 58.7115C45.7176 58.8144 45.665 58.9062 45.6048 58.9983L45.6043 58.9988C44.9548 59.995 44.0259 60.8158 43.0598 61.6015C42.975 61.6704 42.8918 61.7388 42.8095 61.8062C42.4018 62.1411 42.0209 62.4541 41.5956 62.6993L41.5953 62.6995C40.7845 63.1677 39.8921 63.5068 38.973 63.7723L38.9727 63.7724C38.324 63.9607 37.6624 64.1094 36.994 64.2252C37.0228 64.1923 37.0516 64.1588 37.0802 64.1242C37.6382 63.4527 38.1953 62.4388 38.0908 61.1378C37.9936 59.9152 37.5877 58.7695 37.2139 57.9388C37.0261 57.5214 36.8442 57.1783 36.7085 56.9389C36.6407 56.819 36.5843 56.7247 36.5444 56.6596C36.5243 56.627 36.5085 56.6019 36.4973 56.5844C36.4917 56.5756 36.4874 56.5688 36.4843 56.5639L36.4805 56.5581L36.4794 56.5565L36.4791 56.5558L36.4789 56.5557C36.4789 56.5557 36.4787 56.5555 36.135 56.7811L36.4787 56.5555L36.4008 56.4366L36.2661 56.3914C27.3352 53.3907 21.1719 46.464 21.1719 38.4826C21.1719 27.8087 32.2265 19 46.0852 19C59.9441 19 71.0002 27.8087 71.0002 38.4826C71.0002 49.0496 60.1618 57.789 46.4952 57.962Z" fill="#2D2D2D"/>
<path d="M46.4952 57.962C46.3539 57.9635 46.2587 58.0349 46.2367 58.0513L46.2363 58.0516C46.1997 58.0791 46.1722 58.1077 46.1564 58.1255C46.123 58.1623 46.0941 58.2025 46.0745 58.2311C46.0452 58.2733 46.003 58.3413 45.9947 58.3546C45.94 58.434 45.8916 58.5144 45.8507 58.5827L45.8479 58.5876L45.8464 58.5901L45.8449 58.5924C45.8207 58.634 45.7982 58.6735 45.7765 58.7115C45.7176 58.8144 45.665 58.9062 45.6048 58.9983L45.6043 58.9988C44.9548 59.995 44.0259 60.8158 43.0598 61.6015C42.975 61.6704 42.8918 61.7388 42.8095 61.8062C42.4018 62.1411 42.0209 62.4541 41.5956 62.6993L41.5953 62.6995C40.7845 63.1677 39.8921 63.5068 38.973 63.7723L38.9727 63.7724C38.324 63.9607 37.6624 64.1094 36.994 64.2252C37.0228 64.1923 37.0516 64.1588 37.0802 64.1242C37.6382 63.4527 38.1953 62.4388 38.0908 61.1378C37.9936 59.9152 37.5877 58.7695 37.2139 57.9388C37.0261 57.5214 36.8442 57.1783 36.7085 56.9389C36.6407 56.819 36.5843 56.7247 36.5444 56.6596C36.5243 56.627 36.5085 56.6019 36.4973 56.5844C36.4917 56.5756 36.4874 56.5688 36.4843 56.5639L36.4805 56.5581L36.4794 56.5565L36.4791 56.5558L36.4789 56.5557C36.4789 56.5557 36.4787 56.5555 36.135 56.7811L36.4787 56.5555L36.4008 56.4366L36.2661 56.3914C27.3352 53.3907 21.1719 46.464 21.1719 38.4826C21.1719 27.8087 32.2265 19 46.0852 19C59.9441 19 71.0002 27.8087 71.0002 38.4826C71.0002 49.0496 60.1618 57.789 46.4952 57.962ZM46.4952 57.962C46.4967 57.962 46.4982 57.962 46.4996 57.962M46.4952 57.962H46.4946" stroke="white" stroke-width="3"/>
<path d="M32.5742 34.7067V33.6558H33.6252V34.7067H32.5742ZM35.8181 34.7067V33.6558H36.8691V34.7067H35.8181ZM39.0622 34.7067V33.6558H40.1132V34.7067H39.0622ZM42.3062 34.7067V33.6558H43.3571V34.7067H42.3062ZM45.5503 34.7067V33.6558H46.6012V34.7067H45.5503ZM48.7942 34.7067V33.6558H49.8451V34.7067H48.7942ZM52.0381 34.7067V33.6558H53.0891V34.7067H52.0381ZM55.2822 34.7067V33.6558H56.3332V34.7067H55.2822ZM58.5261 34.7067V33.6558H59.5771V34.7067H58.5261ZM32.5742 43.5879V42.5369H33.6252V43.5879H32.5742ZM35.8181 43.5879V42.5369H36.8691V43.5879H35.8181ZM39.0622 43.5879V42.5369H40.1132V43.5879H39.0622ZM42.3062 43.5879V42.5369H43.3571V43.5879H42.3062ZM45.5503 43.5879V42.5369H46.6012V43.5879H45.5503ZM48.7942 43.5879V42.5369H49.8451V43.5879H48.7942ZM52.0381 43.5879V42.5369H53.0891V43.5879H52.0381ZM55.2822 43.5879V42.5369H56.3332V43.5879H55.2822ZM58.5261 43.5879V42.5369H59.5771V43.5879H58.5261Z" fill="white"/>
<path d="M9.87305 53.6201V53.0596H10.4335V53.6201H9.87305ZM11.7413 53.6201V53.0596H12.3018V53.6201H11.7413ZM13.6096 53.6201V53.0596H14.1701V53.6201H13.6096ZM15.4779 53.6201V53.0596H16.0384V53.6201H15.4779ZM17.3462 53.6201V53.0596H17.9067V53.6201H17.3462ZM19.2145 53.6201V53.0596H19.775V53.6201H19.2145ZM21.0827 53.6201V53.0596H21.6432V53.6201H21.0827ZM22.951 53.6201V53.0596H23.5115V53.6201H22.951ZM9.87305 58.3896V57.8291H10.4335V58.3896H9.87305ZM11.7413 58.3896V57.8291H12.3018V58.3896H11.7413ZM13.6096 58.3896V57.8291H14.1701V58.3896H13.6096ZM15.4779 58.3896V57.8291H16.0384V58.3896H15.4779ZM17.3462 58.3896V57.8291H17.9067V58.3896H17.3462ZM19.2145 58.3896V57.8291H19.775V58.3896H19.2145ZM21.0827 58.3896V57.8291H21.6432V58.3896H21.0827ZM22.951 58.3896V57.8291H23.5115V58.3896H22.951Z" fill="#2D2D2D"/>
</svg>
