<svg width="346" height="277" viewBox="0 0 346 277" fill="none" xmlns="http://www.w3.org/2000/svg">
<path d="M87.5408 36.1624C86.1808 32.0824 84.5408 29.1224 82.6208 27.2824C80.7008 25.4424 78.3008 24.5224 75.4208 24.5224C72.4608 24.5224 70.1808 25.3624 68.5808 27.0424C67.0608 28.7224 66.3008 31.0424 66.3008 34.0024C66.3008 36.1624 67.2208 38.0824 69.0608 39.7624C70.9008 41.3624 73.1808 42.9224 75.9008 44.4424C78.6208 45.9624 81.5808 47.6024 84.7808 49.3624C87.9808 51.0424 90.9408 53.0424 93.6608 55.3624C96.3808 57.6824 98.6608 60.4424 100.501 63.6424C102.341 66.8424 103.261 70.6824 103.261 75.1624C103.261 78.9224 102.621 82.3224 101.341 85.3624C100.141 88.4024 98.3408 91.0024 95.9408 93.1624C93.6208 95.3224 90.7408 97.0024 87.3008 98.2024C83.8608 99.3224 79.9808 99.8824 75.6608 99.8824C68.8608 99.8824 62.9808 97.9624 58.0208 94.1224C53.1408 90.2824 49.5808 84.0824 47.3408 75.5224L63.6608 72.0424C64.1408 74.6824 64.8208 76.9224 65.7008 78.7624C66.6608 80.5224 67.7408 81.9624 68.9408 83.0824C70.1408 84.2024 71.3808 85.0024 72.6608 85.4824C74.0208 85.9624 75.3008 86.2024 76.5008 86.2024C79.3808 86.2024 81.7808 85.3224 83.7008 83.5624C85.7008 81.7224 86.7008 79.1624 86.7008 75.8824C86.7008 73.1624 85.7808 70.8424 83.9408 68.9224C82.1008 66.9224 79.8208 65.0824 77.1008 63.4024C74.3808 61.7224 71.4208 60.0824 68.2208 58.4824C65.0208 56.8024 62.0608 54.9224 59.3408 52.8424C56.6208 50.6824 54.3408 48.2024 52.5008 45.4024C50.6608 42.6024 49.7408 39.1624 49.7408 35.0824C49.7408 27.5624 51.9008 21.6424 56.2208 17.3224C60.6208 13.0024 67.1408 10.8424 75.7808 10.8424C79.4608 10.8424 82.7808 11.3624 85.7408 12.4024C88.7008 13.4424 91.3008 14.9224 93.5408 16.8424C95.7808 18.6824 97.6208 20.8824 99.0608 23.4424C100.581 26.0024 101.701 28.8024 102.421 31.8424L87.5408 36.1624ZM131.54 50.2024H140.42C148.58 50.2024 152.66 46.1224 152.66 37.9624C152.66 29.8024 148.58 25.7224 140.42 25.7224H131.54V50.2024ZM114.98 98.6824V12.0424H138.86C149.1 12.0424 156.7 14.3224 161.66 18.8824C166.7 23.3624 169.22 29.7224 169.22 37.9624C169.22 46.2024 166.7 52.6024 161.66 57.1624C156.7 61.6424 149.1 63.8824 138.86 63.8824H131.54V98.6824H114.98ZM178.06 98.6824V12.0424H194.62V98.6824H178.06ZM206.899 98.6824V12.0424H223.459V84.0424H250.099V98.6824H206.899ZM256.619 98.6824V12.0424H273.179V84.0424H299.819V98.6824H256.619ZM70.9405 179.002C70.9405 183.802 71.9005 187.042 73.8205 188.722C75.7405 190.402 78.3805 191.242 81.7405 191.242C85.1005 191.242 87.7405 190.402 89.6605 188.722C91.5805 187.042 92.5405 183.802 92.5405 179.002V143.722C92.5405 138.922 91.5805 135.682 89.6605 134.002C87.7405 132.322 85.1005 131.482 81.7405 131.482C78.3805 131.482 75.7405 132.322 73.8205 134.002C71.9005 135.682 70.9405 138.922 70.9405 143.722V179.002ZM54.3805 145.882C54.3805 140.522 55.0605 136.002 56.4205 132.322C57.7805 128.642 59.6605 125.682 62.0605 123.442C64.4605 121.122 67.3405 119.442 70.7005 118.402C74.0605 117.362 77.7405 116.842 81.7405 116.842C85.7405 116.842 89.4205 117.362 92.7805 118.402C96.1405 119.442 99.0205 121.122 101.42 123.442C103.82 125.682 105.7 128.642 107.06 132.322C108.42 136.002 109.1 140.522 109.1 145.882V176.842C109.1 182.202 108.42 186.722 107.06 190.402C105.7 194.082 103.82 197.082 101.42 199.402C99.0205 201.642 96.1405 203.282 92.7805 204.322C89.4205 205.362 85.7405 205.882 81.7405 205.882C77.7405 205.882 74.0605 205.362 70.7005 204.322C67.3405 203.282 64.4605 201.642 62.0605 199.402C59.6605 197.082 57.7805 194.082 56.4205 190.402C55.0605 186.722 54.3805 182.202 54.3805 176.842V145.882ZM113.26 118.042H129.58L144.82 179.962H145.06L160.18 118.042H176.38L154.3 204.682H135.46L113.26 118.042ZM181.98 204.682V118.042H227.34V132.682H198.54V152.602H220.5V167.242H198.54V190.042H228.54V204.682H181.98ZM254.94 155.722H263.46C267.14 155.722 270.02 154.802 272.1 152.962C274.18 151.042 275.22 147.962 275.22 143.722C275.22 139.482 274.18 136.442 272.1 134.602C270.02 132.682 267.14 131.722 263.46 131.722H254.94V155.722ZM277.26 204.682L262.86 169.402H254.94V204.682H238.38V118.042H262.38C272.38 118.042 279.78 120.322 284.58 124.882C289.38 129.362 291.78 135.722 291.78 143.962C291.78 149.402 290.74 154.002 288.66 157.762C286.66 161.522 283.34 164.282 278.7 166.042L295.02 204.682H277.26Z" fill="white" fill-opacity="0.2"/>
<path d="M124.943 257.36V259.08H123.503V257.36H124.943ZM123.503 261.6H124.943V272H123.503V261.6ZM130.23 261.6V263H130.27C130.683 262.533 131.15 262.153 131.67 261.86C132.19 261.553 132.75 261.4 133.35 261.4C133.736 261.4 134.11 261.453 134.47 261.56C134.83 261.667 135.15 261.84 135.43 262.08C135.71 262.32 135.93 262.633 136.09 263.02C136.263 263.407 136.35 263.88 136.35 264.44V272H134.91V264.48C134.91 263.787 134.756 263.307 134.45 263.04C134.143 262.773 133.73 262.64 133.21 262.64C132.943 262.64 132.663 262.693 132.37 262.8C132.09 262.893 131.816 263.02 131.55 263.18C131.296 263.327 131.05 263.493 130.81 263.68C130.583 263.867 130.39 264.047 130.23 264.22V272H128.79V261.6H130.23ZM140.183 261.6V258.18H141.623V261.6H144.023V262.84H141.623V270.24C141.623 270.48 141.71 270.66 141.883 270.78C142.07 270.9 142.376 270.96 142.803 270.96C143.043 270.96 143.27 270.953 143.483 270.94C143.696 270.913 143.896 270.887 144.083 270.86V272.04C143.95 272.08 143.743 272.113 143.463 272.14C143.183 272.18 142.83 272.2 142.403 272.2C141.616 272.2 141.05 272.08 140.703 271.84C140.356 271.6 140.183 271.147 140.183 270.48V262.84H138.483V261.6H140.183ZM152.603 266.8C152.603 265.453 152.35 264.427 151.843 263.72C151.337 263 150.65 262.64 149.783 262.64C148.917 262.64 148.23 263 147.723 263.72C147.217 264.427 146.963 265.453 146.963 266.8C146.963 268.147 147.217 269.18 147.723 269.9C148.23 270.607 148.917 270.96 149.783 270.96C150.65 270.96 151.337 270.607 151.843 269.9C152.35 269.18 152.603 268.147 152.603 266.8ZM154.043 266.8C154.043 267.547 153.95 268.253 153.763 268.92C153.59 269.573 153.323 270.147 152.963 270.64C152.617 271.12 152.177 271.5 151.643 271.78C151.11 272.06 150.49 272.2 149.783 272.2C149.077 272.2 148.457 272.06 147.923 271.78C147.39 271.5 146.943 271.12 146.583 270.64C146.237 270.147 145.97 269.573 145.783 268.92C145.61 268.253 145.523 267.547 145.523 266.8C145.523 266.053 145.61 265.353 145.783 264.7C145.97 264.033 146.237 263.46 146.583 262.98C146.943 262.487 147.39 262.1 147.923 261.82C148.457 261.54 149.077 261.4 149.783 261.4C150.49 261.4 151.11 261.54 151.643 261.82C152.177 262.1 152.617 262.487 152.963 262.98C153.323 263.46 153.59 264.033 153.763 264.7C153.95 265.353 154.043 266.053 154.043 266.8ZM168.697 266.8C168.697 265.453 168.444 264.427 167.937 263.72C167.43 263 166.744 262.64 165.877 262.64C165.01 262.64 164.324 263 163.817 263.72C163.31 264.427 163.057 265.453 163.057 266.8C163.057 268.147 163.31 269.18 163.817 269.9C164.324 270.607 165.01 270.96 165.877 270.96C166.744 270.96 167.43 270.607 167.937 269.9C168.444 269.18 168.697 268.147 168.697 266.8ZM170.137 266.8C170.137 267.547 170.044 268.253 169.857 268.92C169.684 269.573 169.417 270.147 169.057 270.64C168.71 271.12 168.27 271.5 167.737 271.78C167.204 272.06 166.584 272.2 165.877 272.2C165.17 272.2 164.55 272.06 164.017 271.78C163.484 271.5 163.037 271.12 162.677 270.64C162.33 270.147 162.064 269.573 161.877 268.92C161.704 268.253 161.617 267.547 161.617 266.8C161.617 266.053 161.704 265.353 161.877 264.7C162.064 264.033 162.33 263.46 162.677 262.98C163.037 262.487 163.484 262.1 164.017 261.82C164.55 261.54 165.17 261.4 165.877 261.4C166.584 261.4 167.204 261.54 167.737 261.82C168.27 262.1 168.71 262.487 169.057 262.98C169.417 263.46 169.684 264.033 169.857 264.7C170.044 265.353 170.137 266.053 170.137 266.8ZM178.777 272V270.6H178.737C178.324 271.067 177.857 271.453 177.337 271.76C176.817 272.053 176.257 272.2 175.657 272.2C175.27 272.2 174.897 272.147 174.537 272.04C174.177 271.933 173.857 271.76 173.577 271.52C173.297 271.28 173.07 270.967 172.897 270.58C172.737 270.193 172.657 269.72 172.657 269.16V261.6H174.097V269.12C174.097 269.813 174.25 270.293 174.557 270.56C174.864 270.827 175.277 270.96 175.797 270.96C176.064 270.96 176.337 270.913 176.617 270.82C176.91 270.713 177.184 270.587 177.437 270.44C177.704 270.28 177.95 270.107 178.177 269.92C178.417 269.733 178.617 269.553 178.777 269.38V261.6H180.217V272H178.777ZM183.39 261.6H184.83V263.66H184.87C185.07 263.3 185.277 262.987 185.49 262.72C185.704 262.44 185.944 262.207 186.21 262.02C186.477 261.833 186.777 261.693 187.11 261.6C187.444 261.493 187.824 261.44 188.25 261.44V262.88C187.344 262.907 186.63 263.207 186.11 263.78C185.604 264.34 185.177 265.16 184.83 266.24V272H183.39V261.6ZM198.244 257.56V272H196.804V257.56H198.244ZM203.811 257.36V259.08H202.371V257.36H203.811ZM202.371 261.6H203.811V272H202.371V261.6ZM211.317 272H209.397L206.197 261.6H207.657L210.297 270.2H210.337L212.977 261.6H214.437L211.317 272ZM222.324 265.84C222.324 264.88 222.104 264.107 221.664 263.52C221.237 262.933 220.63 262.64 219.844 262.64C218.964 262.64 218.29 262.933 217.824 263.52C217.37 264.107 217.11 264.88 217.044 265.84H222.324ZM224.084 269.78C223.91 270.073 223.717 270.367 223.504 270.66C223.29 270.94 223.024 271.2 222.704 271.44C222.397 271.667 222.03 271.853 221.604 272C221.177 272.133 220.67 272.2 220.084 272.2C219.497 272.2 218.93 272.1 218.384 271.9C217.85 271.687 217.37 271.36 216.944 270.92C216.53 270.48 216.197 269.92 215.944 269.24C215.69 268.56 215.564 267.747 215.564 266.8C215.564 265.96 215.664 265.207 215.864 264.54C216.064 263.873 216.35 263.307 216.724 262.84C217.097 262.373 217.544 262.02 218.064 261.78C218.584 261.527 219.164 261.4 219.804 261.4C220.337 261.4 220.844 261.493 221.324 261.68C221.804 261.853 222.224 262.133 222.584 262.52C222.944 262.893 223.23 263.38 223.444 263.98C223.657 264.58 223.764 265.293 223.764 266.12V267.08H217.004C217.004 267.653 217.084 268.18 217.244 268.66C217.404 269.127 217.624 269.533 217.904 269.88C218.184 270.213 218.51 270.48 218.884 270.68C219.257 270.867 219.657 270.96 220.084 270.96C220.724 270.96 221.284 270.807 221.764 270.5C222.257 270.18 222.657 269.747 222.964 269.2L224.084 269.78ZM226.384 269.36C226.73 269.853 227.15 270.247 227.644 270.54C228.137 270.82 228.71 270.96 229.364 270.96C230.137 270.96 230.704 270.787 231.064 270.44C231.424 270.08 231.604 269.68 231.604 269.24C231.604 268.8 231.45 268.46 231.144 268.22C230.837 267.967 230.457 267.76 230.004 267.6C229.55 267.44 229.057 267.293 228.524 267.16C228.004 267.013 227.517 266.827 227.064 266.6C226.624 266.373 226.257 266.08 225.964 265.72C225.67 265.347 225.537 264.84 225.564 264.2C225.59 263.293 225.917 262.6 226.544 262.12C227.184 261.627 228.004 261.387 229.004 261.4C229.337 261.4 229.677 261.447 230.024 261.54C230.384 261.633 230.717 261.76 231.024 261.92C231.344 262.08 231.637 262.273 231.904 262.5C232.17 262.713 232.39 262.953 232.564 263.22L231.564 264.1C231.164 263.607 230.757 263.24 230.344 263C229.93 262.76 229.444 262.64 228.884 262.64C228.27 262.64 227.804 262.78 227.484 263.06C227.164 263.34 227.004 263.713 227.004 264.18C227.004 264.553 227.15 264.847 227.444 265.06C227.75 265.273 228.124 265.46 228.564 265.62C229.017 265.767 229.504 265.913 230.024 266.06C230.544 266.207 231.024 266.407 231.464 266.66C231.917 266.9 232.29 267.22 232.584 267.62C232.89 268.007 233.044 268.52 233.044 269.16C233.044 269.667 232.944 270.113 232.744 270.5C232.544 270.873 232.27 271.187 231.924 271.44C231.59 271.693 231.204 271.88 230.764 272C230.324 272.133 229.87 272.2 229.404 272.2C228.59 272.2 227.81 272.033 227.064 271.7C226.33 271.353 225.724 270.86 225.244 270.22L226.384 269.36Z" fill="#ABABAB"/>
</svg>
