<svg width="412" height="282" viewBox="0 0 412 282" fill="none" xmlns="http://www.w3.org/2000/svg">
<path d="M104.101 12.0424V26.6824H84.7808V98.6824H68.2208V26.6824H48.9008V12.0424H104.101ZM126.901 49.7224H135.421C139.101 49.7224 141.981 48.8024 144.061 46.9624C146.141 45.0424 147.181 41.9624 147.181 37.7224C147.181 33.4824 146.141 30.4424 144.061 28.6024C141.981 26.6824 139.101 25.7224 135.421 25.7224H126.901V49.7224ZM149.221 98.6824L134.821 63.4024H126.901V98.6824H110.341V12.0424H134.341C144.341 12.0424 151.741 14.3224 156.541 18.8824C161.341 23.3624 163.741 29.7224 163.741 37.9624C163.741 43.4024 162.701 48.0024 160.621 51.7624C158.621 55.5224 155.301 58.2824 150.661 60.0424L166.981 98.6824H149.221ZM191.18 65.8024H207.62L199.58 30.7624H199.34L191.18 65.8024ZM167.54 98.6824L189.02 12.0424H210.26L231.14 98.6824H215.3L211.1 80.4424H188.18L183.5 98.6824H167.54ZM237.46 98.6824V12.0424H255.58L278.62 63.4024H278.86V12.0424H293.98V98.6824H278.14L252.82 42.7624H252.58V98.6824H237.46ZM342.86 36.1624C341.5 32.0824 339.86 29.1224 337.94 27.2824C336.02 25.4424 333.62 24.5224 330.74 24.5224C327.78 24.5224 325.5 25.3624 323.9 27.0424C322.38 28.7224 321.62 31.0424 321.62 34.0024C321.62 36.1624 322.54 38.0824 324.38 39.7624C326.22 41.3624 328.5 42.9224 331.22 44.4424C333.94 45.9624 336.9 47.6024 340.1 49.3624C343.3 51.0424 346.26 53.0424 348.98 55.3624C351.7 57.6824 353.98 60.4424 355.82 63.6424C357.66 66.8424 358.58 70.6824 358.58 75.1624C358.58 78.9224 357.94 82.3224 356.66 85.3624C355.46 88.4024 353.66 91.0024 351.26 93.1624C348.94 95.3224 346.06 97.0024 342.62 98.2024C339.18 99.3224 335.3 99.8824 330.98 99.8824C324.18 99.8824 318.3 97.9624 313.34 94.1224C308.46 90.2824 304.9 84.0824 302.66 75.5224L318.98 72.0424C319.46 74.6824 320.14 76.9224 321.02 78.7624C321.98 80.5224 323.06 81.9624 324.26 83.0824C325.46 84.2024 326.7 85.0024 327.98 85.4824C329.34 85.9624 330.62 86.2024 331.82 86.2024C334.7 86.2024 337.1 85.3224 339.02 83.5624C341.02 81.7224 342.02 79.1624 342.02 75.8824C342.02 73.1624 341.1 70.8424 339.26 68.9224C337.42 66.9224 335.14 65.0824 332.42 63.4024C329.7 61.7224 326.74 60.0824 323.54 58.4824C320.34 56.8024 317.38 54.9224 314.66 52.8424C311.94 50.6824 309.66 48.2024 307.82 45.4024C305.98 42.6024 305.06 39.1624 305.06 35.0824C305.06 27.5624 307.22 21.6424 311.54 17.3224C315.94 13.0024 322.46 10.8424 331.1 10.8424C334.78 10.8424 338.1 11.3624 341.06 12.4024C344.02 13.4424 346.62 14.9224 348.86 16.8424C351.1 18.6824 352.94 20.8824 354.38 23.4424C355.9 26.0024 357.02 28.8024 357.74 31.8424L342.86 36.1624ZM8.40313 204.682V118.042H31.5631L46.5631 174.922H46.8031L61.8031 118.042H84.9631V204.682H70.8031V136.522H70.5631L52.9231 204.682H40.4431L22.8031 136.522H22.5631V204.682H8.40313ZM98.2016 204.682V118.042H114.762V204.682H98.2016ZM163.64 142.162C162.28 138.082 160.64 135.122 158.72 133.282C156.8 131.442 154.4 130.522 151.52 130.522C148.56 130.522 146.28 131.362 144.68 133.042C143.16 134.722 142.4 137.042 142.4 140.002C142.4 142.162 143.32 144.082 145.16 145.762C147 147.362 149.28 148.922 152 150.442C154.72 151.962 157.68 153.602 160.88 155.362C164.08 157.042 167.04 159.042 169.76 161.362C172.48 163.682 174.76 166.442 176.6 169.642C178.44 172.842 179.36 176.682 179.36 181.162C179.36 184.922 178.72 188.322 177.44 191.362C176.24 194.402 174.44 197.002 172.04 199.162C169.72 201.322 166.84 203.002 163.4 204.202C159.96 205.322 156.08 205.882 151.76 205.882C144.96 205.882 139.08 203.962 134.12 200.122C129.24 196.282 125.68 190.082 123.44 181.522L139.76 178.042C140.24 180.682 140.92 182.922 141.8 184.762C142.76 186.522 143.84 187.962 145.04 189.082C146.24 190.202 147.48 191.002 148.76 191.482C150.12 191.962 151.4 192.202 152.6 192.202C155.48 192.202 157.88 191.322 159.8 189.562C161.8 187.722 162.8 185.162 162.8 181.882C162.8 179.162 161.88 176.842 160.04 174.922C158.2 172.922 155.92 171.082 153.2 169.402C150.48 167.722 147.52 166.082 144.32 164.482C141.12 162.802 138.16 160.922 135.44 158.842C132.72 156.682 130.44 154.202 128.6 151.402C126.76 148.602 125.84 145.162 125.84 141.082C125.84 133.562 128 127.642 132.32 123.322C136.72 119.002 143.24 116.842 151.88 116.842C155.56 116.842 158.88 117.362 161.84 118.402C164.8 119.442 167.4 120.922 169.64 122.842C171.88 124.682 173.72 126.882 175.16 129.442C176.68 132.002 177.8 134.802 178.52 137.842L163.64 142.162ZM226.72 142.162C225.36 138.082 223.72 135.122 221.8 133.282C219.88 131.442 217.48 130.522 214.6 130.522C211.64 130.522 209.36 131.362 207.76 133.042C206.24 134.722 205.48 137.042 205.48 140.002C205.48 142.162 206.4 144.082 208.24 145.762C210.08 147.362 212.36 148.922 215.08 150.442C217.8 151.962 220.76 153.602 223.96 155.362C227.16 157.042 230.12 159.042 232.84 161.362C235.56 163.682 237.84 166.442 239.68 169.642C241.52 172.842 242.44 176.682 242.44 181.162C242.44 184.922 241.8 188.322 240.52 191.362C239.32 194.402 237.52 197.002 235.12 199.162C232.8 201.322 229.92 203.002 226.48 204.202C223.04 205.322 219.16 205.882 214.84 205.882C208.04 205.882 202.16 203.962 197.2 200.122C192.32 196.282 188.76 190.082 186.52 181.522L202.84 178.042C203.32 180.682 204 182.922 204.88 184.762C205.84 186.522 206.92 187.962 208.12 189.082C209.32 190.202 210.56 191.002 211.84 191.482C213.2 191.962 214.48 192.202 215.68 192.202C218.56 192.202 220.96 191.322 222.88 189.562C224.88 187.722 225.88 185.162 225.88 181.882C225.88 179.162 224.96 176.842 223.12 174.922C221.28 172.922 219 171.082 216.28 169.402C213.56 167.722 210.6 166.082 207.4 164.482C204.2 162.802 201.24 160.922 198.52 158.842C195.8 156.682 193.52 154.202 191.68 151.402C189.84 148.602 188.92 145.162 188.92 141.082C188.92 133.562 191.08 127.642 195.4 123.322C199.8 119.002 206.32 116.842 214.96 116.842C218.64 116.842 221.96 117.362 224.92 118.402C227.88 119.442 230.48 120.922 232.72 122.842C234.96 124.682 236.8 126.882 238.24 129.442C239.76 132.002 240.88 134.802 241.6 137.842L226.72 142.162ZM254.159 204.682V118.042H270.719V204.682H254.159ZM298.118 179.002C298.118 183.802 299.078 187.042 300.998 188.722C302.918 190.402 305.558 191.242 308.918 191.242C312.278 191.242 314.918 190.402 316.838 188.722C318.758 187.042 319.718 183.802 319.718 179.002V143.722C319.718 138.922 318.758 135.682 316.838 134.002C314.918 132.322 312.278 131.482 308.918 131.482C305.558 131.482 302.918 132.322 300.998 134.002C299.078 135.682 298.118 138.922 298.118 143.722V179.002ZM281.558 145.882C281.558 140.522 282.238 136.002 283.598 132.322C284.958 128.642 286.838 125.682 289.238 123.442C291.638 121.122 294.518 119.442 297.878 118.402C301.238 117.362 304.918 116.842 308.918 116.842C312.918 116.842 316.598 117.362 319.958 118.402C323.318 119.442 326.198 121.122 328.598 123.442C330.998 125.682 332.878 128.642 334.238 132.322C335.598 136.002 336.278 140.522 336.278 145.882V176.842C336.278 182.202 335.598 186.722 334.238 190.402C332.878 194.082 330.998 197.082 328.598 199.402C326.198 201.642 323.318 203.282 319.958 204.322C316.598 205.362 312.918 205.882 308.918 205.882C304.918 205.882 301.238 205.362 297.878 204.322C294.518 203.282 291.638 201.642 289.238 199.402C286.838 197.082 284.958 194.082 283.598 190.402C282.238 186.722 281.558 182.202 281.558 176.842V145.882ZM347.038 204.682V118.042H365.158L388.198 169.402H388.438V118.042H403.558V204.682H387.718L362.398 148.762H362.158V204.682H347.038Z" fill="white" fill-opacity="0.2"/>
<path d="M122.693 262.56V268H122.733C123.146 267.533 123.613 267.153 124.133 266.86C124.653 266.553 125.213 266.4 125.813 266.4C126.199 266.4 126.573 266.453 126.933 266.56C127.293 266.667 127.613 266.84 127.893 267.08C128.173 267.32 128.393 267.633 128.553 268.02C128.726 268.407 128.813 268.88 128.813 269.44V277H127.373V269.48C127.373 268.787 127.219 268.307 126.913 268.04C126.606 267.773 126.193 267.64 125.673 267.64C125.406 267.64 125.126 267.693 124.833 267.8C124.553 267.893 124.279 268.02 124.013 268.18C123.759 268.327 123.513 268.493 123.273 268.68C123.046 268.867 122.853 269.047 122.693 269.22V277H121.253V262.56H122.693ZM138.406 271.8C138.406 270.453 138.153 269.427 137.646 268.72C137.139 268 136.453 267.64 135.586 267.64C134.719 267.64 134.033 268 133.526 268.72C133.019 269.427 132.766 270.453 132.766 271.8C132.766 273.147 133.019 274.18 133.526 274.9C134.033 275.607 134.719 275.96 135.586 275.96C136.453 275.96 137.139 275.607 137.646 274.9C138.153 274.18 138.406 273.147 138.406 271.8ZM139.846 271.8C139.846 272.547 139.753 273.253 139.566 273.92C139.393 274.573 139.126 275.147 138.766 275.64C138.419 276.12 137.979 276.5 137.446 276.78C136.913 277.06 136.293 277.2 135.586 277.2C134.879 277.2 134.259 277.06 133.726 276.78C133.193 276.5 132.746 276.12 132.386 275.64C132.039 275.147 131.773 274.573 131.586 273.92C131.413 273.253 131.326 272.547 131.326 271.8C131.326 271.053 131.413 270.353 131.586 269.7C131.773 269.033 132.039 268.46 132.386 267.98C132.746 267.487 133.193 267.1 133.726 266.82C134.259 266.54 134.879 266.4 135.586 266.4C136.293 266.4 136.913 266.54 137.446 266.82C137.979 267.1 138.419 267.487 138.766 267.98C139.126 268.46 139.393 269.033 139.566 269.7C139.753 270.353 139.846 271.053 139.846 271.8ZM140.906 266.6H142.366L144.466 274.6H144.506L146.546 266.6H148.006L150.086 274.64H150.126L152.146 266.6H153.606L150.826 277H149.366L147.286 268.96H147.246L145.186 277H143.726L140.906 266.6ZM162.08 266.6V263.18H163.52V266.6H165.92V267.84H163.52V275.24C163.52 275.48 163.606 275.66 163.78 275.78C163.966 275.9 164.273 275.96 164.7 275.96C164.94 275.96 165.166 275.953 165.38 275.94C165.593 275.913 165.793 275.887 165.98 275.86V277.04C165.846 277.08 165.64 277.113 165.36 277.14C165.08 277.18 164.726 277.2 164.3 277.2C163.513 277.2 162.946 277.08 162.6 276.84C162.253 276.6 162.08 276.147 162.08 275.48V267.84H160.38V266.6H162.08ZM169.9 262.56V268H169.94C170.353 267.533 170.82 267.153 171.34 266.86C171.86 266.553 172.42 266.4 173.02 266.4C173.406 266.4 173.78 266.453 174.14 266.56C174.5 266.667 174.82 266.84 175.1 267.08C175.38 267.32 175.6 267.633 175.76 268.02C175.933 268.407 176.02 268.88 176.02 269.44V277H174.58V269.48C174.58 268.787 174.426 268.307 174.12 268.04C173.813 267.773 173.4 267.64 172.88 267.64C172.613 267.64 172.333 267.693 172.04 267.8C171.76 267.893 171.486 268.02 171.22 268.18C170.966 268.327 170.72 268.493 170.48 268.68C170.253 268.867 170.06 269.047 169.9 269.22V277H168.46V262.56H169.9ZM185.353 270.84C185.353 269.88 185.133 269.107 184.693 268.52C184.266 267.933 183.66 267.64 182.873 267.64C181.993 267.64 181.32 267.933 180.853 268.52C180.4 269.107 180.14 269.88 180.073 270.84H185.353ZM187.113 274.78C186.94 275.073 186.746 275.367 186.533 275.66C186.32 275.94 186.053 276.2 185.733 276.44C185.426 276.667 185.06 276.853 184.633 277C184.206 277.133 183.7 277.2 183.113 277.2C182.526 277.2 181.96 277.1 181.413 276.9C180.88 276.687 180.4 276.36 179.973 275.92C179.56 275.48 179.226 274.92 178.973 274.24C178.72 273.56 178.593 272.747 178.593 271.8C178.593 270.96 178.693 270.207 178.893 269.54C179.093 268.873 179.38 268.307 179.753 267.84C180.126 267.373 180.573 267.02 181.093 266.78C181.613 266.527 182.193 266.4 182.833 266.4C183.366 266.4 183.873 266.493 184.353 266.68C184.833 266.853 185.253 267.133 185.613 267.52C185.973 267.893 186.26 268.38 186.473 268.98C186.686 269.58 186.793 270.293 186.793 271.12V272.08H180.033C180.033 272.653 180.113 273.18 180.273 273.66C180.433 274.127 180.653 274.533 180.933 274.88C181.213 275.213 181.54 275.48 181.913 275.68C182.286 275.867 182.686 275.96 183.113 275.96C183.753 275.96 184.313 275.807 184.793 275.5C185.286 275.18 185.686 274.747 185.993 274.2L187.113 274.78ZM195.507 274.36C195.853 274.853 196.273 275.247 196.767 275.54C197.26 275.82 197.833 275.96 198.487 275.96C199.26 275.96 199.827 275.787 200.187 275.44C200.547 275.08 200.727 274.68 200.727 274.24C200.727 273.8 200.573 273.46 200.267 273.22C199.96 272.967 199.58 272.76 199.127 272.6C198.673 272.44 198.18 272.293 197.647 272.16C197.127 272.013 196.64 271.827 196.187 271.6C195.747 271.373 195.38 271.08 195.087 270.72C194.793 270.347 194.66 269.84 194.687 269.2C194.713 268.293 195.04 267.6 195.667 267.12C196.307 266.627 197.127 266.387 198.127 266.4C198.46 266.4 198.8 266.447 199.147 266.54C199.507 266.633 199.84 266.76 200.147 266.92C200.467 267.08 200.76 267.273 201.027 267.5C201.293 267.713 201.513 267.953 201.687 268.22L200.687 269.1C200.287 268.607 199.88 268.24 199.467 268C199.053 267.76 198.567 267.64 198.007 267.64C197.393 267.64 196.927 267.78 196.607 268.06C196.287 268.34 196.127 268.713 196.127 269.18C196.127 269.553 196.273 269.847 196.567 270.06C196.873 270.273 197.247 270.46 197.687 270.62C198.14 270.767 198.627 270.913 199.147 271.06C199.667 271.207 200.147 271.407 200.587 271.66C201.04 271.9 201.413 272.22 201.707 272.62C202.013 273.007 202.167 273.52 202.167 274.16C202.167 274.667 202.067 275.113 201.867 275.5C201.667 275.873 201.393 276.187 201.047 276.44C200.713 276.693 200.327 276.88 199.887 277C199.447 277.133 198.993 277.2 198.527 277.2C197.713 277.2 196.933 277.033 196.187 276.7C195.453 276.353 194.847 275.86 194.367 275.22L195.507 274.36ZM204.833 266.6V263.18H206.273V266.6H208.673V267.84H206.273V275.24C206.273 275.48 206.36 275.66 206.533 275.78C206.72 275.9 207.027 275.96 207.453 275.96C207.693 275.96 207.92 275.953 208.133 275.94C208.347 275.913 208.547 275.887 208.733 275.86V277.04C208.6 277.08 208.393 277.113 208.113 277.14C207.833 277.18 207.48 277.2 207.053 277.2C206.267 277.2 205.7 277.08 205.353 276.84C205.007 276.6 204.833 276.147 204.833 275.48V267.84H203.133V266.6H204.833ZM217.254 271.8C217.254 270.453 217 269.427 216.494 268.72C215.987 268 215.3 267.64 214.434 267.64C213.567 267.64 212.88 268 212.374 268.72C211.867 269.427 211.614 270.453 211.614 271.8C211.614 273.147 211.867 274.18 212.374 274.9C212.88 275.607 213.567 275.96 214.434 275.96C215.3 275.96 215.987 275.607 216.494 274.9C217 274.18 217.254 273.147 217.254 271.8ZM218.694 271.8C218.694 272.547 218.6 273.253 218.414 273.92C218.24 274.573 217.974 275.147 217.614 275.64C217.267 276.12 216.827 276.5 216.294 276.78C215.76 277.06 215.14 277.2 214.434 277.2C213.727 277.2 213.107 277.06 212.574 276.78C212.04 276.5 211.594 276.12 211.234 275.64C210.887 275.147 210.62 274.573 210.434 273.92C210.26 273.253 210.174 272.547 210.174 271.8C210.174 271.053 210.26 270.353 210.434 269.7C210.62 269.033 210.887 268.46 211.234 267.98C211.594 267.487 212.04 267.1 212.574 266.82C213.107 266.54 213.727 266.4 214.434 266.4C215.14 266.4 215.76 266.54 216.294 266.82C216.827 267.1 217.267 267.487 217.614 267.98C217.974 268.46 218.24 269.033 218.414 269.7C218.6 270.353 218.694 271.053 218.694 271.8ZM220.834 266.6H222.274V268.66H222.314C222.514 268.3 222.72 267.987 222.934 267.72C223.147 267.44 223.387 267.207 223.654 267.02C223.92 266.833 224.22 266.693 224.554 266.6C224.887 266.493 225.267 266.44 225.694 266.44V267.88C224.787 267.907 224.074 268.207 223.554 268.78C223.047 269.34 222.62 270.16 222.274 271.24V277H220.834V266.6ZM234.654 266.6L230.994 277.92C230.807 278.507 230.58 278.987 230.314 279.36C230.06 279.733 229.78 280.027 229.474 280.24C229.167 280.467 228.84 280.62 228.494 280.7C228.16 280.793 227.827 280.84 227.494 280.84C227.254 280.84 227.054 280.827 226.894 280.8C226.747 280.773 226.6 280.747 226.454 280.72V279.54C226.56 279.553 226.674 279.567 226.794 279.58C226.927 279.593 227.074 279.6 227.234 279.6C227.447 279.6 227.687 279.573 227.954 279.52C228.22 279.48 228.48 279.373 228.734 279.2C228.987 279.04 229.22 278.793 229.434 278.46C229.66 278.14 229.834 277.693 229.954 277.12L226.334 266.6H227.854L230.654 274.54H230.694L233.134 266.6H234.654ZM248.974 277V275.6H248.934C248.521 276.067 248.054 276.453 247.534 276.76C247.014 277.053 246.454 277.2 245.854 277.2C245.468 277.2 245.094 277.147 244.734 277.04C244.374 276.933 244.054 276.76 243.774 276.52C243.494 276.28 243.268 275.967 243.094 275.58C242.934 275.193 242.854 274.72 242.854 274.16V266.6H244.294V274.12C244.294 274.813 244.448 275.293 244.754 275.56C245.061 275.827 245.474 275.96 245.994 275.96C246.261 275.96 246.534 275.913 246.814 275.82C247.108 275.713 247.381 275.587 247.634 275.44C247.901 275.28 248.148 275.107 248.374 274.92C248.614 274.733 248.814 274.553 248.974 274.38V266.6H250.414V277H248.974ZM255.408 266.6V268H255.448C255.861 267.533 256.328 267.153 256.848 266.86C257.368 266.553 257.928 266.4 258.528 266.4C258.914 266.4 259.288 266.453 259.648 266.56C260.008 266.667 260.328 266.84 260.608 267.08C260.888 267.32 261.108 267.633 261.268 268.02C261.441 268.407 261.528 268.88 261.528 269.44V277H260.088V269.48C260.088 268.787 259.934 268.307 259.628 268.04C259.321 267.773 258.908 267.64 258.388 267.64C258.121 267.64 257.841 267.693 257.548 267.8C257.268 267.893 256.994 268.02 256.728 268.18C256.474 268.327 256.228 268.493 255.988 268.68C255.761 268.867 255.568 269.047 255.408 269.22V277H253.968V266.6H255.408ZM265.601 277V267.84H263.841V266.6H265.601V265.42C265.601 264.807 265.654 264.307 265.761 263.92C265.867 263.52 266.021 263.207 266.221 262.98C266.434 262.74 266.701 262.58 267.021 262.5C267.341 262.407 267.714 262.36 268.141 262.36C268.354 262.36 268.567 262.373 268.781 262.4C268.994 262.413 269.207 262.433 269.421 262.46V263.74C269.247 263.713 269.067 263.687 268.881 263.66C268.707 263.62 268.541 263.6 268.381 263.6C267.887 263.6 267.541 263.7 267.341 263.9C267.141 264.1 267.041 264.493 267.041 265.08V266.6H269.301V267.84H267.041V277H265.601ZM277.781 271.8C277.781 270.453 277.528 269.427 277.021 268.72C276.514 268 275.828 267.64 274.961 267.64C274.094 267.64 273.408 268 272.901 268.72C272.394 269.427 272.141 270.453 272.141 271.8C272.141 273.147 272.394 274.18 272.901 274.9C273.408 275.607 274.094 275.96 274.961 275.96C275.828 275.96 276.514 275.607 277.021 274.9C277.528 274.18 277.781 273.147 277.781 271.8ZM279.221 271.8C279.221 272.547 279.128 273.253 278.941 273.92C278.768 274.573 278.501 275.147 278.141 275.64C277.794 276.12 277.354 276.5 276.821 276.78C276.288 277.06 275.668 277.2 274.961 277.2C274.254 277.2 273.634 277.06 273.101 276.78C272.568 276.5 272.121 276.12 271.761 275.64C271.414 275.147 271.148 274.573 270.961 273.92C270.788 273.253 270.701 272.547 270.701 271.8C270.701 271.053 270.788 270.353 270.961 269.7C271.148 269.033 271.414 268.46 271.761 267.98C272.121 267.487 272.568 267.1 273.101 266.82C273.634 266.54 274.254 266.4 274.961 266.4C275.668 266.4 276.288 266.54 276.821 266.82C277.354 267.1 277.794 267.487 278.141 267.98C278.501 268.46 278.768 269.033 278.941 269.7C279.128 270.353 279.221 271.053 279.221 271.8ZM283.461 262.56V277H282.021V262.56H283.461ZM293.447 269.08C293.061 268.653 292.634 268.307 292.167 268.04C291.701 267.773 291.254 267.64 290.827 267.64C290.401 267.64 290.007 267.713 289.647 267.86C289.301 268.007 288.994 268.247 288.727 268.58C288.461 268.913 288.254 269.353 288.107 269.9C287.961 270.433 287.887 271.093 287.887 271.88C287.887 273.213 288.147 274.227 288.667 274.92C289.201 275.613 289.921 275.96 290.827 275.96C291.294 275.96 291.721 275.853 292.107 275.64C292.494 275.427 292.941 275.067 293.447 274.56V269.08ZM294.887 262.56V274.72C294.887 275.107 294.881 275.487 294.867 275.86C294.867 276.233 294.901 276.613 294.967 277H293.647L293.447 275.98C293.207 276.313 292.847 276.6 292.367 276.84C291.887 277.08 291.334 277.2 290.707 277.2C290.241 277.2 289.754 277.113 289.247 276.94C288.754 276.767 288.301 276.473 287.887 276.06C287.474 275.647 287.127 275.093 286.847 274.4C286.581 273.707 286.447 272.84 286.447 271.8C286.447 270.787 286.581 269.94 286.847 269.26C287.127 268.567 287.467 268.013 287.867 267.6C288.281 267.173 288.734 266.867 289.227 266.68C289.721 266.493 290.187 266.4 290.627 266.4C291.121 266.4 291.601 266.513 292.067 266.74C292.534 266.953 292.967 267.227 293.367 267.56L293.447 267.6V262.56H294.887ZM298.261 274.36C298.607 274.853 299.027 275.247 299.521 275.54C300.014 275.82 300.587 275.96 301.241 275.96C302.014 275.96 302.581 275.787 302.941 275.44C303.301 275.08 303.481 274.68 303.481 274.24C303.481 273.8 303.327 273.46 303.021 273.22C302.714 272.967 302.334 272.76 301.881 272.6C301.427 272.44 300.934 272.293 300.401 272.16C299.881 272.013 299.394 271.827 298.941 271.6C298.501 271.373 298.134 271.08 297.841 270.72C297.547 270.347 297.414 269.84 297.441 269.2C297.467 268.293 297.794 267.6 298.421 267.12C299.061 266.627 299.881 266.387 300.881 266.4C301.214 266.4 301.554 266.447 301.901 266.54C302.261 266.633 302.594 266.76 302.901 266.92C303.221 267.08 303.514 267.273 303.781 267.5C304.047 267.713 304.267 267.953 304.441 268.22L303.441 269.1C303.041 268.607 302.634 268.24 302.221 268C301.807 267.76 301.321 267.64 300.761 267.64C300.147 267.64 299.681 267.78 299.361 268.06C299.041 268.34 298.881 268.713 298.881 269.18C298.881 269.553 299.027 269.847 299.321 270.06C299.627 270.273 300.001 270.46 300.441 270.62C300.894 270.767 301.381 270.913 301.901 271.06C302.421 271.207 302.901 271.407 303.341 271.66C303.794 271.9 304.167 272.22 304.461 272.62C304.767 273.007 304.921 273.52 304.921 274.16C304.921 274.667 304.821 275.113 304.621 275.5C304.421 275.873 304.147 276.187 303.801 276.44C303.467 276.693 303.081 276.88 302.641 277C302.201 277.133 301.747 277.2 301.281 277.2C300.467 277.2 299.687 277.033 298.941 276.7C298.207 276.353 297.601 275.86 297.121 275.22L298.261 274.36Z" fill="#ABABAB"/>
</svg>
