<svg width="399" height="137" viewBox="0 0 399 137" fill="none" xmlns="http://www.w3.org/2000/svg">
<path d="M121.509 121.6H122.969L125.069 129.6H125.109L127.149 121.6H128.609L130.689 129.64H130.729L132.749 121.6H134.209L131.429 132H129.969L127.889 123.96H127.849L125.789 132H124.329L121.509 121.6ZM137.749 117.56V123H137.789C138.203 122.533 138.669 122.153 139.189 121.86C139.709 121.553 140.269 121.4 140.869 121.4C141.256 121.4 141.629 121.453 141.989 121.56C142.349 121.667 142.669 121.84 142.949 122.08C143.229 122.32 143.449 122.633 143.609 123.02C143.783 123.407 143.869 123.88 143.869 124.44V132H142.429V124.48C142.429 123.787 142.276 123.307 141.969 123.04C141.663 122.773 141.249 122.64 140.729 122.64C140.463 122.64 140.183 122.693 139.889 122.8C139.609 122.893 139.336 123.02 139.069 123.18C138.816 123.327 138.569 123.493 138.329 123.68C138.103 123.867 137.909 124.047 137.749 124.22V132H136.309V117.56H137.749ZM153.203 125.84C153.203 124.88 152.983 124.107 152.543 123.52C152.116 122.933 151.509 122.64 150.723 122.64C149.843 122.64 149.169 122.933 148.703 123.52C148.249 124.107 147.989 124.88 147.923 125.84H153.203ZM154.963 129.78C154.789 130.073 154.596 130.367 154.383 130.66C154.169 130.94 153.903 131.2 153.583 131.44C153.276 131.667 152.909 131.853 152.483 132C152.056 132.133 151.549 132.2 150.963 132.2C150.376 132.2 149.809 132.1 149.263 131.9C148.729 131.687 148.249 131.36 147.823 130.92C147.409 130.48 147.076 129.92 146.823 129.24C146.569 128.56 146.443 127.747 146.443 126.8C146.443 125.96 146.543 125.207 146.743 124.54C146.943 123.873 147.229 123.307 147.603 122.84C147.976 122.373 148.423 122.02 148.943 121.78C149.463 121.527 150.043 121.4 150.683 121.4C151.216 121.4 151.723 121.493 152.203 121.68C152.683 121.853 153.103 122.133 153.463 122.52C153.823 122.893 154.109 123.38 154.323 123.98C154.536 124.58 154.643 125.293 154.643 126.12V127.08H147.883C147.883 127.653 147.963 128.18 148.123 128.66C148.283 129.127 148.503 129.533 148.783 129.88C149.063 130.213 149.389 130.48 149.763 130.68C150.136 130.867 150.536 130.96 150.963 130.96C151.603 130.96 152.163 130.807 152.643 130.5C153.136 130.18 153.536 129.747 153.843 129.2L154.963 129.78ZM157.043 121.6H158.483V123.66H158.523C158.723 123.3 158.929 122.987 159.143 122.72C159.356 122.44 159.596 122.207 159.863 122.02C160.129 121.833 160.429 121.693 160.763 121.6C161.096 121.493 161.476 121.44 161.903 121.44V122.88C160.996 122.907 160.283 123.207 159.763 123.78C159.256 124.34 158.829 125.16 158.483 126.24V132H157.043V121.6ZM169.863 125.84C169.863 124.88 169.643 124.107 169.203 123.52C168.776 122.933 168.169 122.64 167.383 122.64C166.503 122.64 165.829 122.933 165.363 123.52C164.909 124.107 164.649 124.88 164.583 125.84H169.863ZM171.623 129.78C171.449 130.073 171.256 130.367 171.043 130.66C170.829 130.94 170.563 131.2 170.243 131.44C169.936 131.667 169.569 131.853 169.143 132C168.716 132.133 168.209 132.2 167.623 132.2C167.036 132.2 166.469 132.1 165.923 131.9C165.389 131.687 164.909 131.36 164.483 130.92C164.069 130.48 163.736 129.92 163.483 129.24C163.229 128.56 163.103 127.747 163.103 126.8C163.103 125.96 163.203 125.207 163.403 124.54C163.603 123.873 163.889 123.307 164.263 122.84C164.636 122.373 165.083 122.02 165.603 121.78C166.123 121.527 166.703 121.4 167.343 121.4C167.876 121.4 168.383 121.493 168.863 121.68C169.343 121.853 169.763 122.133 170.123 122.52C170.483 122.893 170.769 123.38 170.983 123.98C171.196 124.58 171.303 125.293 171.303 126.12V127.08L164.543 127.08C164.543 127.653 164.623 128.18 164.783 128.66C164.943 129.127 165.163 129.533 165.443 129.88C165.723 130.213 166.049 130.48 166.423 130.68C166.796 130.867 167.196 130.96 167.623 130.96C168.263 130.96 168.823 130.807 169.303 130.5C169.796 130.18 170.196 129.747 170.503 129.2L171.623 129.78ZM180.456 121.6V118.18H181.896V121.6H184.296V122.84H181.896V130.24C181.896 130.48 181.983 130.66 182.156 130.78C182.343 130.9 182.65 130.96 183.076 130.96C183.316 130.96 183.543 130.953 183.756 130.94C183.97 130.913 184.17 130.887 184.356 130.86V132.04C184.223 132.08 184.016 132.113 183.736 132.14C183.456 132.18 183.103 132.2 182.676 132.2C181.89 132.2 181.323 132.08 180.976 131.84C180.63 131.6 180.456 131.147 180.456 130.48V122.84H178.756V121.6H180.456ZM188.277 117.56V123H188.317C188.73 122.533 189.197 122.153 189.717 121.86C190.237 121.553 190.797 121.4 191.397 121.4C191.783 121.4 192.157 121.453 192.517 121.56C192.877 121.667 193.197 121.84 193.477 122.08C193.757 122.32 193.977 122.633 194.137 123.02C194.31 123.407 194.397 123.88 194.397 124.44V132H192.957V124.48C192.957 123.787 192.803 123.307 192.497 123.04C192.19 122.773 191.777 122.64 191.257 122.64C190.99 122.64 190.71 122.693 190.417 122.8C190.137 122.893 189.863 123.02 189.597 123.18C189.343 123.327 189.097 123.493 188.857 123.68C188.63 123.867 188.437 124.047 188.277 124.22V132H186.837V117.56H188.277ZM203.73 125.84C203.73 124.88 203.51 124.107 203.07 123.52C202.643 122.933 202.037 122.64 201.25 122.64C200.37 122.64 199.697 122.933 199.23 123.52C198.777 124.107 198.517 124.88 198.45 125.84H203.73ZM205.49 129.78C205.317 130.073 205.123 130.367 204.91 130.66C204.697 130.94 204.43 131.2 204.11 131.44C203.803 131.667 203.437 131.853 203.01 132C202.583 132.133 202.077 132.2 201.49 132.2C200.903 132.2 200.337 132.1 199.79 131.9C199.257 131.687 198.777 131.36 198.35 130.92C197.937 130.48 197.603 129.92 197.35 129.24C197.097 128.56 196.97 127.747 196.97 126.8C196.97 125.96 197.07 125.207 197.27 124.54C197.47 123.873 197.757 123.307 198.13 122.84C198.503 122.373 198.95 122.02 199.47 121.78C199.99 121.527 200.57 121.4 201.21 121.4C201.743 121.4 202.25 121.493 202.73 121.68C203.21 121.853 203.63 122.133 203.99 122.52C204.35 122.893 204.637 123.38 204.85 123.98C205.063 124.58 205.17 125.293 205.17 126.12V127.08H198.41C198.41 127.653 198.49 128.18 198.65 128.66C198.81 129.127 199.03 129.533 199.31 129.88C199.59 130.213 199.917 130.48 200.29 130.68C200.663 130.867 201.063 130.96 201.49 130.96C202.13 130.96 202.69 130.807 203.17 130.5C203.663 130.18 204.063 129.747 204.37 129.2L205.49 129.78ZM213.884 129.36C214.23 129.853 214.65 130.247 215.144 130.54C215.637 130.82 216.21 130.96 216.864 130.96C217.637 130.96 218.204 130.787 218.564 130.44C218.924 130.08 219.104 129.68 219.104 129.24C219.104 128.8 218.95 128.46 218.644 128.22C218.337 127.967 217.957 127.76 217.504 127.6C217.05 127.44 216.557 127.293 216.024 127.16C215.504 127.013 215.017 126.827 214.564 126.6C214.124 126.373 213.757 126.08 213.464 125.72C213.17 125.347 213.037 124.84 213.064 124.2C213.09 123.293 213.417 122.6 214.044 122.12C214.684 121.627 215.504 121.387 216.504 121.4C216.837 121.4 217.177 121.447 217.524 121.54C217.884 121.633 218.217 121.76 218.524 121.92C218.844 122.08 219.137 122.273 219.404 122.5C219.67 122.713 219.89 122.953 220.064 123.22L219.064 124.1C218.664 123.607 218.257 123.24 217.844 123C217.43 122.76 216.944 122.64 216.384 122.64C215.77 122.64 215.304 122.78 214.984 123.06C214.664 123.34 214.504 123.713 214.504 124.18C214.504 124.553 214.65 124.847 214.944 125.06C215.25 125.273 215.624 125.46 216.064 125.62C216.517 125.767 217.004 125.913 217.524 126.06C218.044 126.207 218.524 126.407 218.964 126.66C219.417 126.9 219.79 127.22 220.084 127.62C220.39 128.007 220.544 128.52 220.544 129.16C220.544 129.667 220.444 130.113 220.244 130.5C220.044 130.873 219.77 131.187 219.424 131.44C219.09 131.693 218.704 131.88 218.264 132C217.824 132.133 217.37 132.2 216.904 132.2C216.09 132.2 215.31 132.033 214.564 131.7C213.83 131.353 213.224 130.86 212.744 130.22L213.884 129.36ZM223.21 121.6V118.18H224.65V121.6H227.05V122.84H224.65V130.24C224.65 130.48 224.737 130.66 224.91 130.78C225.097 130.9 225.404 130.96 225.83 130.96C226.07 130.96 226.297 130.953 226.51 130.94C226.724 130.913 226.924 130.887 227.11 130.86V132.04C226.977 132.08 226.77 132.113 226.49 132.14C226.21 132.18 225.857 132.2 225.43 132.2C224.644 132.2 224.077 132.08 223.73 131.84C223.384 131.6 223.21 131.147 223.21 130.48V122.84H221.51V121.6H223.21ZM235.631 126.8C235.631 125.453 235.377 124.427 234.871 123.72C234.364 123 233.677 122.64 232.811 122.64C231.944 122.64 231.257 123 230.751 123.72C230.244 124.427 229.991 125.453 229.991 126.8C229.991 128.147 230.244 129.18 230.751 129.9C231.257 130.607 231.944 130.96 232.811 130.96C233.677 130.96 234.364 130.607 234.871 129.9C235.377 129.18 235.631 128.147 235.631 126.8ZM237.071 126.8C237.071 127.547 236.977 128.253 236.791 128.92C236.617 129.573 236.351 130.147 235.991 130.64C235.644 131.12 235.204 131.5 234.671 131.78C234.137 132.06 233.517 132.2 232.811 132.2C232.104 132.2 231.484 132.06 230.951 131.78C230.417 131.5 229.971 131.12 229.611 130.64C229.264 130.147 228.997 129.573 228.811 128.92C228.637 128.253 228.551 127.547 228.551 126.8C228.551 126.053 228.637 125.353 228.811 124.7C228.997 124.033 229.264 123.46 229.611 122.98C229.971 122.487 230.417 122.1 230.951 121.82C231.484 121.54 232.104 121.4 232.811 121.4C233.517 121.4 234.137 121.54 234.671 121.82C235.204 122.1 235.644 122.487 235.991 122.98C236.351 123.46 236.617 124.033 236.791 124.7C236.977 125.353 237.071 126.053 237.071 126.8ZM239.211 121.6H240.651V123.66H240.691C240.891 123.3 241.097 122.987 241.311 122.72C241.524 122.44 241.764 122.207 242.031 122.02C242.297 121.833 242.597 121.693 242.931 121.6C243.264 121.493 243.644 121.44 244.071 121.44V122.88C243.164 122.907 242.451 123.207 241.931 123.78C241.424 124.34 240.997 125.16 240.651 126.24V132H239.211V121.6ZM247.971 117.36V119.08H246.531V117.36H247.971ZM246.531 121.6H247.971V132H246.531V121.6ZM257.597 125.84C257.597 124.88 257.377 124.107 256.937 123.52C256.51 122.933 255.904 122.64 255.117 122.64C254.237 122.64 253.564 122.933 253.097 123.52C252.644 124.107 252.384 124.88 252.317 125.84H257.597ZM259.357 129.78C259.184 130.073 258.99 130.367 258.777 130.66C258.564 130.94 258.297 131.2 257.977 131.44C257.67 131.667 257.304 131.853 256.877 132C256.45 132.133 255.944 132.2 255.357 132.2C254.77 132.2 254.204 132.1 253.657 131.9C253.124 131.687 252.644 131.36 252.217 130.92C251.804 130.48 251.47 129.92 251.217 129.24C250.964 128.56 250.837 127.747 250.837 126.8C250.837 125.96 250.937 125.207 251.137 124.54C251.337 123.873 251.624 123.307 251.997 122.84C252.37 122.373 252.817 122.02 253.337 121.78C253.857 121.527 254.437 121.4 255.077 121.4C255.61 121.4 256.117 121.493 256.597 121.68C257.077 121.853 257.497 122.133 257.857 122.52C258.217 122.893 258.504 123.38 258.717 123.98C258.93 124.58 259.037 125.293 259.037 126.12V127.08H252.277C252.277 127.653 252.357 128.18 252.517 128.66C252.677 129.127 252.897 129.533 253.177 129.88C253.457 130.213 253.784 130.48 254.157 130.68C254.53 130.867 254.93 130.96 255.357 130.96C255.997 130.96 256.557 130.807 257.037 130.5C257.53 130.18 257.93 129.747 258.237 129.2L259.357 129.78ZM261.657 129.36C262.004 129.853 262.424 130.247 262.917 130.54C263.41 130.82 263.984 130.96 264.637 130.96C265.41 130.96 265.977 130.787 266.337 130.44C266.697 130.08 266.877 129.68 266.877 129.24C266.877 128.8 266.724 128.46 266.417 128.22C266.11 127.967 265.73 127.76 265.277 127.6C264.824 127.44 264.33 127.293 263.797 127.16C263.277 127.013 262.79 126.827 262.337 126.6C261.897 126.373 261.53 126.08 261.237 125.72C260.944 125.347 260.81 124.84 260.837 124.2C260.864 123.293 261.19 122.6 261.817 122.12C262.457 121.627 263.277 121.387 264.277 121.4C264.61 121.4 264.95 121.447 265.297 121.54C265.657 121.633 265.99 121.76 266.297 121.92C266.617 122.08 266.91 122.273 267.177 122.5C267.444 122.713 267.664 122.953 267.837 123.22L266.837 124.1C266.437 123.607 266.03 123.24 265.617 123C265.204 122.76 264.717 122.64 264.157 122.64C263.544 122.64 263.077 122.78 262.757 123.06C262.437 123.34 262.277 123.713 262.277 124.18C262.277 124.553 262.424 124.847 262.717 125.06C263.024 125.273 263.397 125.46 263.837 125.62C264.29 125.767 264.777 125.913 265.297 126.06C265.817 126.207 266.297 126.407 266.737 126.66C267.19 126.9 267.564 127.22 267.857 127.62C268.164 128.007 268.317 128.52 268.317 129.16C268.317 129.667 268.217 130.113 268.017 130.5C267.817 130.873 267.544 131.187 267.197 131.44C266.864 131.693 266.477 131.88 266.037 132C265.597 132.133 265.144 132.2 264.677 132.2C263.864 132.2 263.084 132.033 262.337 131.7C261.604 131.353 260.997 130.86 260.517 130.22L261.657 129.36ZM278.218 129.56C278.724 130.067 279.171 130.427 279.558 130.64C279.944 130.853 280.371 130.96 280.838 130.96C281.744 130.96 282.458 130.613 282.978 129.92C283.511 129.227 283.778 128.213 283.778 126.88C283.778 126.093 283.704 125.433 283.558 124.9C283.411 124.353 283.204 123.913 282.938 123.58C282.671 123.247 282.358 123.007 281.998 122.86C281.638 122.713 281.251 122.64 280.838 122.64C280.411 122.64 279.964 122.773 279.498 123.04C279.031 123.307 278.604 123.653 278.218 124.08V129.56ZM278.218 117.56V122.6L278.298 122.56C278.698 122.227 279.131 121.953 279.598 121.74C280.064 121.513 280.544 121.4 281.038 121.4C281.478 121.4 281.944 121.493 282.438 121.68C282.931 121.867 283.378 122.173 283.778 122.6C284.191 123.013 284.531 123.567 284.798 124.26C285.078 124.94 285.218 125.787 285.218 126.8C285.218 127.84 285.078 128.707 284.798 129.4C284.531 130.093 284.191 130.647 283.778 131.06C283.364 131.473 282.904 131.767 282.398 131.94C281.891 132.113 281.411 132.2 280.958 132.2C280.331 132.2 279.778 132.08 279.298 131.84C278.831 131.6 278.384 131.287 277.958 130.9L277.698 132H276.698C276.764 131.613 276.791 131.233 276.778 130.86C276.778 130.487 276.778 130.107 276.778 129.72V117.56H278.218ZM293.691 125.84C293.691 124.88 293.471 124.107 293.031 123.52C292.604 122.933 291.998 122.64 291.211 122.64C290.331 122.64 289.658 122.933 289.191 123.52C288.738 124.107 288.478 124.88 288.411 125.84H293.691ZM295.451 129.78C295.278 130.073 295.084 130.367 294.871 130.66C294.658 130.94 294.391 131.2 294.071 131.44C293.764 131.667 293.398 131.853 292.971 132C292.544 132.133 292.038 132.2 291.451 132.2C290.864 132.2 290.298 132.1 289.751 131.9C289.218 131.687 288.738 131.36 288.311 130.92C287.898 130.48 287.564 129.92 287.311 129.24C287.058 128.56 286.931 127.747 286.931 126.8C286.931 125.96 287.031 125.207 287.231 124.54C287.431 123.873 287.718 123.307 288.091 122.84C288.464 122.373 288.911 122.02 289.431 121.78C289.951 121.527 290.531 121.4 291.171 121.4C291.704 121.4 292.211 121.493 292.691 121.68C293.171 121.853 293.591 122.133 293.951 122.52C294.311 122.893 294.598 123.38 294.811 123.98C295.024 124.58 295.131 125.293 295.131 126.12V127.08H288.371C288.371 127.653 288.451 128.18 288.611 128.66C288.771 129.127 288.991 129.533 289.271 129.88C289.551 130.213 289.878 130.48 290.251 130.68C290.624 130.867 291.024 130.96 291.451 130.96C292.091 130.96 292.651 130.807 293.131 130.5C293.624 130.18 294.024 129.747 294.331 129.2L295.451 129.78ZM304.391 133.1C304.378 132.593 304.091 132.213 303.531 131.96C302.984 131.693 302.071 131.56 300.791 131.56C300.231 131.56 299.764 131.62 299.391 131.74C299.018 131.847 298.718 131.98 298.491 132.14C298.278 132.313 298.124 132.5 298.031 132.7C297.938 132.913 297.891 133.113 297.891 133.3C297.891 133.5 297.931 133.68 298.011 133.84C298.091 134 298.251 134.133 298.491 134.24C298.731 134.36 299.071 134.447 299.511 134.5C299.951 134.567 300.531 134.6 301.251 134.6C301.678 134.6 302.078 134.567 302.451 134.5C302.838 134.447 303.171 134.353 303.451 134.22C303.744 134.1 303.971 133.947 304.131 133.76C304.304 133.573 304.391 133.353 304.391 133.1ZM303.491 125.12C303.491 124.36 303.271 123.76 302.831 123.32C302.391 122.867 301.731 122.64 300.851 122.64C300.024 122.64 299.398 122.873 298.971 123.34C298.544 123.793 298.331 124.36 298.331 125.04C298.331 125.733 298.578 126.307 299.071 126.76C299.564 127.213 300.211 127.44 301.011 127.44C301.424 127.44 301.784 127.38 302.091 127.26C302.398 127.127 302.651 126.953 302.851 126.74C303.064 126.527 303.224 126.28 303.331 126C303.438 125.72 303.491 125.427 303.491 125.12ZM305.731 122.64C305.424 122.64 305.124 122.667 304.831 122.72C304.551 122.76 304.318 122.827 304.131 122.92C304.278 123.107 304.431 123.387 304.591 123.76C304.764 124.133 304.851 124.56 304.851 125.04C304.851 125.56 304.751 126.04 304.551 126.48C304.351 126.92 304.078 127.307 303.731 127.64C303.398 127.96 302.998 128.213 302.531 128.4C302.064 128.587 301.571 128.68 301.051 128.68C300.624 128.68 300.278 128.653 300.011 128.6C299.758 128.547 299.491 128.48 299.211 128.4C298.664 128.56 298.391 128.88 298.391 129.36C298.391 129.6 298.464 129.787 298.611 129.92C298.771 130.053 298.984 130.12 299.251 130.12C300.478 130.12 301.504 130.18 302.331 130.3C303.171 130.407 303.844 130.58 304.351 130.82C304.858 131.06 305.218 131.367 305.431 131.74C305.644 132.1 305.751 132.533 305.751 133.04C305.751 133.427 305.651 133.787 305.451 134.12C305.264 134.453 304.978 134.747 304.591 135C304.204 135.267 303.711 135.473 303.111 135.62C302.524 135.767 301.824 135.84 301.011 135.84C299.544 135.84 298.431 135.633 297.671 135.22C296.911 134.82 296.531 134.187 296.531 133.32C296.531 132.8 296.684 132.387 296.991 132.08C297.298 131.787 297.731 131.493 298.291 131.2C297.891 131.08 297.571 130.88 297.331 130.6C297.104 130.32 296.991 130.027 296.991 129.72C296.991 129.267 297.124 128.92 297.391 128.68C297.658 128.44 297.991 128.193 298.391 127.94C297.898 127.567 297.538 127.133 297.311 126.64C297.084 126.147 296.971 125.613 296.971 125.04C296.971 124.493 297.071 124 297.271 123.56C297.471 123.107 297.744 122.72 298.091 122.4C298.451 122.08 298.871 121.833 299.351 121.66C299.831 121.487 300.351 121.4 300.911 121.4C301.471 121.4 301.951 121.46 302.351 121.58C302.764 121.7 303.144 121.88 303.491 122.12C303.798 121.893 304.151 121.693 304.551 121.52C304.951 121.347 305.344 121.24 305.731 121.2V122.64ZM309.631 117.36V119.08H308.191V117.36H309.631ZM308.191 121.6H309.631V132H308.191V121.6ZM314.917 121.6V123H314.957C315.371 122.533 315.837 122.153 316.357 121.86C316.877 121.553 317.437 121.4 318.037 121.4C318.424 121.4 318.797 121.453 319.157 121.56C319.517 121.667 319.837 121.84 320.117 122.08C320.397 122.32 320.617 122.633 320.777 123.02C320.951 123.407 321.037 123.88 321.037 124.44V132H319.597V124.48C319.597 123.787 319.444 123.307 319.137 123.04C318.831 122.773 318.417 122.64 317.897 122.64C317.631 122.64 317.351 122.693 317.057 122.8C316.777 122.893 316.504 123.02 316.237 123.18C315.984 123.327 315.737 123.493 315.497 123.68C315.271 123.867 315.077 124.047 314.917 124.22V132H313.477V121.6H314.917Z" fill="#ABABAB"/>
<path d="M57.8414 11.36V26H38.5214V98H21.9614V26H2.64141V11.36H57.8414ZM80.6414 49.04H89.1614C92.8414 49.04 95.7214 48.12 97.8014 46.28C99.8814 44.36 100.921 41.28 100.921 37.04C100.921 32.8 99.8814 29.76 97.8014 27.92C95.7214 26 92.8414 25.04 89.1614 25.04H80.6414V49.04ZM102.961 98L88.5614 62.72H80.6414V98H64.0814V11.36H88.0814C98.0814 11.36 105.481 13.64 110.281 18.2C115.081 22.68 117.481 29.04 117.481 37.28C117.481 42.72 116.441 47.32 114.361 51.08C112.361 54.84 109.041 57.6 104.401 59.36L120.721 98H102.961ZM128.121 98V11.36H144.681V98H128.121ZM198.36 90.8C196.12 93.36 193.76 95.4 191.28 96.92C188.8 98.44 186 99.2 182.88 99.2C178.88 99.2 175.2 98.68 171.84 97.64C168.48 96.6 165.6 94.96 163.2 92.72C160.8 90.4 158.92 87.4 157.56 83.72C156.2 80.04 155.52 75.52 155.52 70.16V39.2C155.52 33.84 156.2 29.32 157.56 25.64C158.92 21.96 160.8 19 163.2 16.76C165.6 14.44 168.48 12.76 171.84 11.72C175.2 10.68 178.88 10.16 182.88 10.16C191.36 10.16 197.84 12.6 202.32 17.48C206.8 22.28 209.2 29.64 209.52 39.56H192.96C192.96 33.96 192.04 30.12 190.2 28.04C188.36 25.88 185.92 24.8 182.88 24.8C179.52 24.8 176.88 25.64 174.96 27.32C173.04 29 172.08 32.24 172.08 37.04V72.32C172.08 77.12 173.04 80.36 174.96 82.04C176.88 83.72 179.52 84.56 182.88 84.56C186 84.56 188.44 83.52 190.2 81.44C192.04 79.28 192.96 76.32 192.96 72.56V67.28H181.32V53.6H209.52V98H200.88L198.36 90.8ZM261.439 90.8C259.199 93.36 256.839 95.4 254.359 96.92C251.879 98.44 249.079 99.2 245.959 99.2C241.959 99.2 238.279 98.68 234.919 97.64C231.559 96.6 228.679 94.96 226.279 92.72C223.879 90.4 221.999 87.4 220.639 83.72C219.279 80.04 218.599 75.52 218.599 70.16V39.2C218.599 33.84 219.279 29.32 220.639 25.64C221.999 21.96 223.879 19 226.279 16.76C228.679 14.44 231.559 12.76 234.919 11.72C238.279 10.68 241.959 10.16 245.959 10.16C254.439 10.16 260.919 12.6 265.399 17.48C269.879 22.28 272.279 29.64 272.599 39.56H256.039C256.039 33.96 255.119 30.12 253.279 28.04C251.439 25.88 248.999 24.8 245.959 24.8C242.599 24.8 239.959 25.64 238.039 27.32C236.119 29 235.159 32.24 235.159 37.04V72.32C235.159 77.12 236.119 80.36 238.039 82.04C239.959 83.72 242.599 84.56 245.959 84.56C249.079 84.56 251.519 83.52 253.279 81.44C255.119 79.28 256.039 76.32 256.039 72.56V67.28H244.399V53.6H272.599V98H263.959L261.439 90.8ZM283.119 98V11.36H328.479V26H299.679V45.92H321.639V60.56H299.679V83.36H329.679V98H283.119ZM356.079 49.04H364.599C368.279 49.04 371.159 48.12 373.239 46.28C375.319 44.36 376.359 41.28 376.359 37.04C376.359 32.8 375.319 29.76 373.239 27.92C371.159 26 368.279 25.04 364.599 25.04H356.079V49.04ZM378.399 98L363.999 62.72H356.079V98H339.519V11.36H363.519C373.519 11.36 380.919 13.64 385.719 18.2C390.519 22.68 392.919 29.04 392.919 37.28C392.919 42.72 391.879 47.32 389.799 51.08C387.799 54.84 384.479 57.6 379.839 59.36L396.159 98H378.399Z" fill="white" fill-opacity="0.2"/>
</svg>
